<mxfile host="app.diagrams.net" modified="2024-01-30T22:08:11.716Z" agent="Mozilla/5.0 (Windows NT 10.0; Win64; x64; rv:122.0) Gecko/20100101 Firefox/122.0" etag="6HSUP076hVw_0d5nkUVz" version="23.0.2" type="device">
  <diagram name="PÃ¡gina-1" id="FJyDDwkfmckldkVXgaXi">
    <mxGraphModel dx="1822" dy="597" grid="1" gridSize="10" guides="1" tooltips="1" connect="1" arrows="1" fold="1" page="1" pageScale="1" pageWidth="827" pageHeight="1169" math="0" shadow="0">
      <root>
        <mxCell id="0" />
        <mxCell id="1" parent="0" />
        <mxCell id="lu7XamibzpSkQB7wHSbF-45" value="" style="rounded=0;whiteSpace=wrap;html=1;strokeWidth=4;" vertex="1" parent="1">
          <mxGeometry x="1080" y="30" width="680" height="450" as="geometry" />
        </mxCell>
        <mxCell id="lu7XamibzpSkQB7wHSbF-44" value="" style="rounded=0;whiteSpace=wrap;html=1;strokeWidth=4;" vertex="1" parent="1">
          <mxGeometry x="-40" y="30" width="950" height="450" as="geometry" />
        </mxCell>
        <mxCell id="lu7XamibzpSkQB7wHSbF-35" value="" style="rounded=0;whiteSpace=wrap;html=1;strokeWidth=4;fillColor=#dae8fc;strokeColor=#6c8ebf;" vertex="1" parent="1">
          <mxGeometry x="1520" y="69" width="160" height="130" as="geometry" />
        </mxCell>
        <mxCell id="lu7XamibzpSkQB7wHSbF-31" value="" style="rounded=0;whiteSpace=wrap;html=1;strokeWidth=4;fillColor=#dae8fc;strokeColor=#6c8ebf;" vertex="1" parent="1">
          <mxGeometry x="1140" y="70" width="160" height="130" as="geometry" />
        </mxCell>
        <mxCell id="lu7XamibzpSkQB7wHSbF-22" value="" style="html=1;verticalLabelPosition=bottom;align=center;labelBackgroundColor=#ffffff;verticalAlign=top;strokeWidth=2;strokeColor=#0080F0;shadow=0;dashed=0;shape=mxgraph.ios7.icons.cloud;" vertex="1" parent="1">
          <mxGeometry x="344" y="300" width="220" height="120" as="geometry" />
        </mxCell>
        <mxCell id="lu7XamibzpSkQB7wHSbF-18" value="" style="html=1;verticalLabelPosition=bottom;align=center;labelBackgroundColor=#ffffff;verticalAlign=top;strokeWidth=2;strokeColor=#0080F0;shadow=0;dashed=0;shape=mxgraph.ios7.icons.cloud;" vertex="1" parent="1">
          <mxGeometry x="338" y="60" width="220" height="120" as="geometry" />
        </mxCell>
        <mxCell id="lu7XamibzpSkQB7wHSbF-2" value="" style="html=1;verticalLabelPosition=bottom;align=center;labelBackgroundColor=#ffffff;verticalAlign=top;strokeWidth=2;strokeColor=#0080F0;shadow=0;dashed=0;shape=mxgraph.ios7.icons.cloud;" vertex="1" parent="1">
          <mxGeometry y="60" width="220" height="120" as="geometry" />
        </mxCell>
        <mxCell id="lu7XamibzpSkQB7wHSbF-1" value="" style="image;html=1;image=img/lib/clip_art/computers/Netbook_128x128.png" vertex="1" parent="1">
          <mxGeometry x="80" y="100" width="80" height="80" as="geometry" />
        </mxCell>
        <mxCell id="lu7XamibzpSkQB7wHSbF-4" value="" style="image;aspect=fixed;html=1;points=[];align=center;fontSize=12;image=img/lib/azure2/networking/Virtual_Router.svg;" vertex="1" parent="1">
          <mxGeometry x="420" y="100" width="68" height="68" as="geometry" />
        </mxCell>
        <mxCell id="lu7XamibzpSkQB7wHSbF-15" value="" style="shape=image;verticalLabelPosition=bottom;labelBackgroundColor=default;verticalAlign=top;aspect=fixed;imageAspect=0;image=data:image/png,iVBORw0KGgoAAAANSUhEUgAAAfQAAAH0CAYAAADL1t+KAAAAAXNSR0IArs4c6QAAIABJREFUeF7svQeYZUd1Lbyq6px7b6eJmtFETdIoIgkFUEJCo9EoC4SQBgRCgACbJCQkEQQYTDA88LPxD9+PsY3Ds3kPGxv+Z/5nGxuwMEEooTSKozA5T+e+4YSqet+uOqf7jhghTXdP33v77qOvNdPdJ1Stqrnr7Kq91xLggxFgBBgBRoARYAQOOwLW/r4EVnZg18NvwL6HP4jKxqMR7Z+FxEqoAIA0KHYOY/bS5zDnxD/Hked/B7ipLIQwL6dx4uWcxOcwAowAI8AIMAKMwPgQsNYK1L5/VLTjwY9X9z/1dlPe3hHovSjJfZC6DCEUlAxhhURNC6RhN2xhISK5POmYe8pfdi961WdF9xW7X+rpTOgvhRD/nhFgBBgBRoARGAcC1n5XYdAsT3b/8uOVwUdv0tFOKc0wBFIoJOhAAtjE31ko95UaCW0UUkhoIaHlTATdx4/MOvI178OSN/2TECtqL9YUJvRxDBJfwggwAowAI8AIvBgC1j5TxOBjS+Jt931Slx9/Z1J5GsrshgrKkEpDCAEpAiC1sNZC2xS0pi5EgFCGEFY6opciRioEIjMbSeE4dBxx+TeL81/7CTHrvP6DPZsJneckI8AIMAKMACMwCQhYe1cJ0fYl0Y67bx/e8+B7UduGoh1Gl7SQUgNGw6YxLJF3AGgNWAWYALD0QwvQTrrSgEj99yjQ1jpQTkuolI5Baf6ab/cccfXNYvaagRc2mQl9EgaRb8EIMAKMACPQvghYe3cH+ravqO6+785y/0M3KPM8OlQviqoGG8eglXVJIbgkJs9wor9bQCticE/oRru/OkJ3ITsd9HcFpCFQUR3QpZPRM+/1XwmOuu7TQqyO6lFnQm/fOcg9ZwQYAUaAEZgAAtb+ogcjDx9V2fbIbfHg8zeF8Q4UzCCEHoHQERITQ4YCMrCOvIXNyJqYlwhdAi4Qp1/b7Ef0pw0BUQQssXnVR+lE6BFQSWZixqzTUVhw8dvE0o9/mwl9AgPIlzICjAAjwAi0NwLWPjATlc0rB7f9+6dt9emrUdmFMOlHyZShdOyXyiUluQE2EDBIoa320Tf93OXCaYiObKk9y4lz11GOXNrh1+SVhcYIjARkABgDmLQIKedAhydWS2d8+JWidMXGfDQ4Qm/vecm9ZwQYAUaAEXiZCFj789kYfHyV3vPAR0b6Nqw3yXYU7DCU1QhsioAiaktr5dl6ORG6oO+kK0lz39SvurvNdA1B19Cv3GXE3J3QEjCqCq0S9zuK7qUOIE0IpSVqYiHM3DX/1vnKdVcLsT6uv+/L7A6fxggwAowAI8AItBcC1j44D30Pr67teuj34sENl4Z6C4pyEDYZgHQsTOvn/hgl5+x74mz6vSN1iIzTHZNDmgDKkXnkCd2dLGFtEVoapCqBoc13QcvwQJACygQQhgrfZqHafTx6XvGmU0X3Bx5mQm+vOcm9ZQQYAUaAETgEBKz92Tzse/T4Wv/9d0ZDT1wa1PYgSIcQJCmQxlCFLDXdBd8GmgTd6ta9XVSdkXT+WCOMJ3USh9MdLvKGLPvl+exaQ3/P+X30TcHf2kfqIWL0oKK6MWPpxf9TrfiLG0lNjpfcD2Fw+VRGgBFgBBiB6Y+ALf9iEaqbjx/afe8dovbUpbryNGSyCx0yQUhL5yYEHOtSpptxrJ0Tek7KecTsCJs4O/tzDD0JoYvuW6siENHXk7q7ru5ax9YZ6VsrYWwRNQOoWWf3d5/6lSOFOCNhQp/+c5N7yAgwAowAI/AyELDl/1iE2jMnV/fd/4lo8InzRG0HCmIYRashTeKSzkkIRroMdQFSdPUHkbGvNcvDZPrVAeSeZ7m7LfbQXyYsrDQwULBCu7/n++WK/krnOpEZOpf24QEtU1/qRj9KgJo6BTNO+9J80XP5Pib0lzHIfAojwAgwAozA9EXA1n6+EgPPnFDrfeBDlcEN61TyPIqqDwVbdTztRF4oR11SORnlrMcu41yqAMIKEmk9YO/cJ8J5Qq8ndeJrImqnJOMYOXXb79olzRF3+2Q6V97mCJ1WA2TG7L6I3UqLNEjd8nuQACPmOHS/8pNvEfPe9h0m9Ok7R7lnjAAjwAgwAr8FAVv99xUYfuSMeO9Tt1aHNp4j420ITS+KogJBkTPxLQXIMoC2BoZYnBLUFKAUoNNsT5ui7/rnUF05kbrbCycZuDy7najb+HPzJfjRTPj8R5T0FkJa6V8SXKV6rveep8i7RrlIP0qXIzz+vV9Vy2+5jQmdpzsjwAgwAoxAWyFgh391PGrPnja886fvEtEza9LqDoS2HyUx6ErQfHjtg3L6O8XDVlhXGu4OUnWjaDvLTHexc/0euU9ih3X0TTJwWRa8IEKnt4Ds/IOQOkhUxgZuz50q2L1UnFsiqDvylwSJOF0Gs+Jd3+o49mPvYUJvq2nMnWUEGAFGoH0RsMPfPx4Dj56b9G14d1rZfKau7UUAsi+NoGwMIRLSchk7skibfnCwFPIXJrrVE+rYbcZK2vyNs2X1sb9m6et5zfrY412+XV4SV0/+1hXAuVvZ7qMxOOtdX5t9/J23MKG379zmnjMCjAAj0BYI2OEfnoihpy/Q/Y+8NRl+/GyRbEFgBgAbZ3XkUw+Dz2KvI/v6LPfRmnS/GiBsvjTgy+OIyV21mwBG5FJ0H/uZ94oj3/1nTOhTP478REaAEWAEGIEpQMDu+8FpqD5xQTz48JvikY2vNulOKFNxam6UtV7Il8CnoC0He4SL+q30++V59O4IO9srz0rXvMpcnhznf0/XKlXAnupyHHn+11aL0qXPMqE3aCD5sYwAI8AIMAKHBwE78O+no/+pi+O+R65Jo41npNXnIOw+hIFGIZDQFPFqA0nlaKO2ZoenLS92V58w5yN08j8f2zMnkndr7e4YU5rz37v2UsKdldDyCAzYE8rzX/vfZ3Md+tSOHz+NEWAEGAFG4DAiYHu/dxaGH7k8HXzosqj8zBki3otAVJwYjKWUdW1grXEZ7JSp7pLIG3SM6ru7rHd6ufB0TQbpRPA+S5503LNGZsvzLkueSt1sAYPRMsxYeuU/B8e/7loh1qQcoTdoMPmxjAAjwAgwApODgB3817Mw8PTVUe8D65LyE6dJvQmhIJ11n6juiJJqvw1luVEtWuZV6l1NG3hQC7OI24XjROgkOkOETj+ncjXjCd5aKOqNSB2hx3Ymhu3pmHvGO9eInrf91EX6DewJP5oRYAQYAUaAERg3Arb8vVdh3yNvGtz7yFpE217ZKXsRYgg2rcAkCUQQQKfW1ZAraRFSbhmJtzgT8ry0bNyPn9CFL6xFd4v/QjkTFx+V++0AtxTvpOEEhKA/NazSiLAE4RFv/K/ghK+uEcIXzTGhT2hI+GJGgBFgBBiBqUbA9v/L+Rh86rry3nvOtslzp9t0P0IxhMAQmXsSVIUiTEqROJmJ+8hcWO23p3ODtExVdarb78j3Be4rWgZIRx1WvRJcmEnF+21+BXJUt6KEVJZQwyrMPun954q5b7s7bz8TeiNGkp/JCDACjAAjcMgI2IG/Wav3PfzmpO+Zs01t64lK74ZCxd8nK+dy/uKZEMsBFeCja+tZxnj9NYfckolf4Ag9E7ChlXatJIzKndgAmQBO8Z1Ymrb/Sce9UEDNzIMqnYCuBWs+KZZ/4ov1LWFCn/i48B0YAUaAEWAEDiMCtvfv1lWGHr/BDj35alQ2Hafi3ShiEMJ4H3EyPTMIx7LGSV1NpKMu5bmKm+N0G8AIX+jtM9wbkxnnI3TfDsp417TNT1vkAghoFcF7vYyKztCqe00diUitRs/ci74RHn3xHUKcU2VCP4wTj2/NCDACjAAjMDkI2L3fuhTDT94YD2w4I6luXo1kHwSGIKVGQOF3HnVnTmY+oSy3KiU1tUyEpSlDV9JqL8BCI5WJ43Yic1KqkxSO01sK5cSVfE7fiO5A0nUKZixY900168LfEzPW7H8hyk3ZzcmZCnwXRoARYAQYgVZEwPZ+/9La7vvfaQY3nI500yqV7kIghiCV10F3ETlFtVnnXNK6syUnkqRQl9jRZ5D78i9i/HTUkzwnvoZmuNNKAa0qOH1Xv9KQWatDaMre830lMq+JHsSl1eiYd9GfhCsv/oIQF/UebFyZ0FtxtnObGQFGgBGYhgjYvm9fhl33/W7c/9gpVu9cLkU/rB2GIJ11qX3Gt7EQWjhX0Tj0y9VhlujmrUmdWXlmNSqhBZH6GKE7rfZ8lf0F9qZTCSllszvfNSHcnj+RsaLSOnpLIWc3qpUvBRisdUJ2noqepRf/IZZc/kUhTh14sXYyoU/lCPKzGAFGgBFgBH4DATvwjxdXt91zc7L/oZNCs31ZSfVC2CGXGTa6y+2IWEAYQbnegJJIpPYSqLl/eJ45TlE6JZoJ6YgxZ3CX/V6/bT6aVT71g0LtNpZK0YT3P6f0e/cyYv3LiiiiJmdAdZ6AnvkXfw5HXfEVIU4p/7aWMqFP/TjyExkBRoARYASIuvZ98yrsvvdDQ/3PHaPQe1Qh6AfSfpi06mLs3M1MGAWhpNtjtkj8ajodrp6c6rbHirBpCTt3RstsyEexJjI/wBTFRe+NGwqK0t1aglsxyJYNFBArgZpciCQ4CXOXXfwpHHn2H78wAY6X3Bs3bvxkRoARYAQYgQwBu/cH64f3PvBe2XfXcQW9eaGxZQhVg0DFibmRixglvQmrXPq31T6StULDInURrPMfc4QejO41ezKvI+ncd5zOpftmm+Zun90lmU80wz1TenvRkf3N349m3NPLCXWUXlxItJUM1un0AKiFR6Aij8WspW/4mFx0+teEWFN7OZOnge8mL6d5fA4jwAgwAozAdEHA9n79upEt99ycDD1zXKfqn4ekFwGqLmHN+4TSn/4Y8xo/uJ84nePJMSfnsSi33rv8hZ7lk4dlloDnpFv9i0GeZJc/X7hKcpJupTK6OjEZ46VdqwooFgFFxWekKqOKiEw3dPfx6Fy27lYsfPM3hVgdvdw2M6G/XKT4PEaAEWAEGIFxIWD3/e2bB7ff/WEz/Piq7mD33EDvRrUyjI7CuG7XhBcRuY+9UOTL+BSBkwZ7/oJC6W+O9angnPb2OwxqNb/aoEQPavEMoPMY07Fs7S1Ycu43yXDlUDrLhH4oaPG5jAAjwAgwAi8bAbvrG2+Pdj74oVrfhpUdqndWqEaQpP0QMkVYCqCjqC4Sf9m3bYoTnf1pJh0r02LmaU7lZ8aTdpZw56J1Q/v/Xo9dOoKnBDiSoyUpV4NEGVTFLIjSaemMpZd8AAsv/GuyQz3UjjKhHypifD4jwAgwAozAb0XA7v+rG3Y/9/PbSvGmo8NoS09o9qIQRn513KQuu5sWqVW+odyCeBJRpxRaU4a6DqAocY+W1ilb3TmleVInjRjn+Ub5AK4+nkxXUghKBIgU0DkHI0agVlqWHHHMNe/B3I/+nRDj29xnQm/BicRNZgQYAUagGRGwu/772/t3/PJ2XXlmRafq7bZpL7qKGjAaCUmuGyAMnO0IbEpuaJToNtHEtMYg4Qjdl7v7sjnaJtcdPmyXZe/Ymqu7CgHjCJ1O15CCZGcJj04YsRgjheNqXUsv+N1g2e1/O5HeMKFPBD2+lhFgBBgBRgB2z1/dMLTt3o/Hw4+s7JS7OorBXghdhVRAFPsothD6oJXk1yVFrIUCkEYtTei5Z6kLxomsc0JX1C+v9OZeV4jc6WRSgCMyF8T+IeL4CKDj5L6OpVe+Vyy7+R8nOpWY0CeKIF/PCDACjECbImB3fPZdtd2P3j7cv3VFUYyUOsMRCD0Iq4dc6RkdbuuYVpzp71R6Zi10AiQJWj4pznXRsXoAUo7PjVb8q8tY1j7VzROhGxPACgWpNLSYB1M4ta9zwZoPiKM+8veTMYWY0CcDRb4HI8AIMAJthEC680/fNrDz7jvD8qNHF80uWj9HoBJYUwOxtaIaclpaJz9yUoNxZdbWfUvRKpG8oqQyXV+e1loAjvqZO2Eb0mSnknmvyQ4Teq0b60VwCAJKV08RwohuWDUDsVi+dfbq6z8o5r33/5+snjOhTxaSfB9GgBFgBKY5Anb/H93Yv+nuT+jBTau61VBQ1PshRBmaJFgl6Y97AHKzFEU/oC9nJeYLx61MnVWoi97rxF5aDTonTpPQ5rlydWca6ahjmiBJVyNgawayAGhKaA+BtNiB4WgOih1nbpqx4qpbxLx3ThqZOzxbDURuLyPACDACjMDUIWDt3R16/71v3fP83Z/Sw08tnRUMyS5Rga0NQpH7mTQuD8w5ftYxCu0pe0KnNffscITu1dxy4p+6nkzuk0Zd3ah7Ujtud32iHQb6O4XkYQdcoXkRSMIu9KfdCGad/tScJW/6gDjixv+c3BYxoU82nnw/RoARYASmBQLW3tWNnf+5fmTvPZ+MBjeu7FTDCJEirZVdZF3sCJHqWp0CWqZLPqreNibB6uhbGFernUfm9GerZriPvp9Q9rrwjm9UXk64BLmbG73h0FdHEVZaDJu5FjPOe2LGUVfeIo644SeHY5JwhH44UOV7MgKMACPQoghYe88M7Hz4ur3P//j3i3bjEpVuRWgHUKSaa+LjrNTaKirFsi4ql0Z6YZVRzVViN6rgyrTV67CgyHZMzLU1S9aoO66rWUdyyVdP5pkfuxEw2sKEPYjVHKtmnPpQcdkbPiDm3nDP4ZoaTOiHC1m+LyPACDACLYSAtT+bh63/9ebhbb/6hK1sWlAqDAG6gkKRousUcXUEwlqEuVwrLSk7JVMqxSK98jox89EQ1i/Dj9ZjZ3XZuZ4MycscPq31wwu+i8opez/LA/Be7eHoDylPQHV1YvdgyfbMveS+rlXXvF/Met2Dh7NVTOiHE12+NyPACDACTYyAtVZg5O55pvfBa4d33fv7orphXne4D9L2wUY1CBUgTsgFLECBhNeptjqueYamiJ2UVZyXaZ3JeM4q2dK721e3MrM0zUxM6AXgAAOWJgbpRZrmCD3rK+2Zu7QA7V5RoFWIWHYiCueawszTftW98LrfFXOvffxw95IJ/XAjzPdnBBgBRqAJEbAjPz4S+//jjen+Rz9VHtq2UIkhFNQwbDoEYQ0Kzp/UuZKTWitSa1z5lQos6D9aelfZ7ykDzEXidSSXR+Fu35yW44n0nSxqBkb2Z75c3YQQvUSTqF8k90ovLCQU419WaNs8LnQhDpabtPTqn8097ur3iNLrn52K/jGhTwXK/AxGgBFgBJoAAWu/q1CZMT/q3fyG4d33/n5P7f55Kt0Ci8iJnQipoYmbsvJxIm1JQbizASUO9xlftDdO57gs9iy5rZ7M8676srT6RLjMuIROcGVsY5ajTQDP2Ka413fLHNR8y3w0TisNY/v+Ku3wijEydoROXY1kiLh0jImKJ//XvGNvvEl0XLZ5qvrGhD5VSPNzGAFGgBFoEALWWonq9xeh94EbRnY/9HFTfn5m0Q5A2TKEILvtMU9vR1u/ETbXe5JTotvBBWHqfcgPdh8XzdaxTqOj8zFvmOzFhCTtXBO1xySQQGrcagSp5ZACe4IUJgBINydIi0CceiH3UCCxBQzZpVrMWfvjOSe/8SYhLt45lUPOhD6VaPOzGAFGgBGYQgSsvStAbXhRvPPht0SDj92J8tMzZLQVRfQjyMrDG02qUwjHQR9VT+o2I3RyRKNtBy/rmh0kbycktEicJLsrP3fCcBIGBrHoRhKu0nLmmT/sOun6dwixZv9U940JfaoR5+cxAowAI3CYEbD28QKijUvT7b98sx58+k499HyX1L0oqhqEjGFsCmOSlrYvnRQIc735uuo5S0l+Ts6VbF5dYO7FcWjN3aajHuhuBUJ5FbiaKqKGo3Wh54p/6zll/Q1CnDE4Ke07xJswoR8iYHw6I8AIMALNioC1m0qIHl1W3XXfTcO7H/5wF3aEYbQLKu2DQuLZicxRhHL8pCgKzfaLm7VPDWtXTvb0pw6gU8pfNz6p36X4W9hQoIJOVMNlpjjnvB/0HHvDW4Q4p9qoNjOhNwp5fi4jwAgwApOEgCPy/l8dk+y798ZK/+MfQLy5FNj9KIgI0tYcidO+ONVMG9oupz3w+m3xSWpHq92GltspIieqdqp1WTmd243IFN8sitAkoAONQAgIspEjECExRBaoxWNMMOOy78868aYbhFhNCQkNO5jQGwY9P5gRYAQYgYkhYO0Dndj//PHV3Q9fXxt44pYw2RyU5F4E6IU1kVsydlVVKstWz0vFSO2NlpMn9vgWv1rC6bFb4cxijNSutI4gcri4xQsJawrQKoWQpHCnHJkLrZGILgx3LNdy7vn/a9axX3u7EGO78Y0Chgm9UcjzcxkBRoARGCcC1j7Shb5HTzH7/vMNtvLszdFIXzHQZRQoGkcVMBWAlthLgdv3TTSgja8Tz6Nz54jWwm5n44Ru7DIbeGU3WlFXtDeejCbgq3wngpYxtNektyqEtgWHpZQBkuIyo4689K+6jv7Keybclkm6ARP6JAHJt2EEGAFG4HAjYO2PZmJg+6nJ3qffWNn30Ps6xVNKxDthtEZBEXkTO6VewCUIYOKURN7clq+rE4dASo5noOiUjERaV3p14lhTWE66tlSnlngVvNEkOS+oA0mKOv4UGwaIbAdq6EHQsVTLnlP/vOuEb75/4u2YvDswoU8elnwnRoARYAQOCwKOyAefezX6Hlk/tPvRdwTxvsDVkZt+R0YUQdKycS5F6kRfcjnSeo11QXvFEintAxOtE6G3aVKcq6UXBWitEZCaDrE5vewYIKWyNKpSo211ReDSDrpENehANViZzlhw1ddLK75422EZ7AnclAl9AuDxpYwAI8AIHE4ErH1oFvY/ed7I4AOvq/U+cmNRby/I6nZ0qQSQCemxOh5yZD6qZuYVzg4gdFpC9unZLvDMvctb2RxlMnB3ejGjWjeZS5qw0NK4pEHKfUtJNyYIEGMGauHSdNayi76ilvzRJyfj+ZN9Dyb0yUaU78cIMAKMwAQRsEP3zoXZeEG8956rasNPvNVWtwYi3YdOSs7SFUfWtJeLgs/dck5fRE5mLNFr1NvTtYVCzTG98XxpmRLj2vlwaWzZ6rqr4KMjN5Vx4FikgUJNdCEpHBfNXvCmL6llt3+2WTFjQm/WkeF2MQKMQNshYO0DR2DwmbW1XfdcPbD319d2qD2B1LsRmDIUDAr1pWZSIbJeXZ0InkhduVCdTnJeZu7Lm6Z4Qpe0IUwry/Xc1aak7nPSaV1duxWOzA0WAWm/6dBVCCTCIi3MRVo6utazcO1n1OLPfqWZJyUTejOPDreNEWAE2gIBa385H72PXBbvvvfSePDxa2SysxCIIVdDLigxKzMKSRP3NwRCQYYBUpIpc6VWlOaWHmAm4tXOSH+cXgXoMsrW9lE6kbwzYGnjLHdXsmaEwyShajQq7aNFD1Fym+ipkaiKTsTF1cMzjlr/mcKSm7/a7JORCb3ZR4jbxwgwAtMWAUfke598w/CeB9bWBp54Q1FvDjpUL0JR9oYg2Sav8zQJQ5iELEwVdJzCWosgKGTYEFGn9b4nY6vHRFOZH7kTT3Fuaf4ySVbnbRqhO+c0WsGgVQ5pnYwrwWNNCKM7EYlZMN1HD8xYuu6jYtHH/6IVJiETeiuMEreREWAEphUCduRfFiS1TW9Md/9inS0/e1Va65cKVafspmzFicKQOQiRDB1p7HXDKUkrKAa+NI3MQigpzgftTunMuZ3VWZKOeZJPK/gmpTOUGJgEAsIIFFPya/clf9YEiDoWQXeeuLtr8WUfEws/9LeT8sApuAkT+hSAzI9gBBgBRoAQsCN3LUDtyev27nvyomrvo5cfGWwJZLQblkqngsCRuHbr6gZhQPrhKZQUMNpChgom1a6u3BCf53vhmSWp3ysfK13LEXfL6tk3o1pm2XtAXubWqqOT27XmSYGjCW2O2eocV0Y76JGg37hSP2VhNVDUROgK1kjE6giIuadtL8w9+zax5M5/bCVsmNBbabS4rYwAI9CSCFj77/Ox88G3x+Unzu/f+eAlHUE5LGAYKh2BtG5j/CCU89JdzQm6nphfypP8pe/aGmfUv7wEubKb20sgQRi/YgFlvHY9bS3QigbJvBoLIwUUSbmS1zmZn4YGNVVAVSyC7Hrls7MXvO4OseCmf24NJMZayYTeaiPG7WUEGIGWQYAictO/4XdqgxvOKu/fsK67sD9AtBMdhQhItRMx4WN8COSEntfc+0J8UssjxRjrtyBId5343W1FEMsHsIa2JgQULXHUEqAQoKaAkWAegjlnPzpr4SW3i1m/8+PxtaqxVzGhNxZ/fjojwAhMQwRs+XsL4/5H3pf0PXauLW+5IEgGpYn60NmhYOMhCESIYqCQKY9OQwimpEs5gWkETtaWDsr4d7aw7mtMOcbp2NOPsi0IV2YeSlR1iCRcgo65Zz5YOPKSW8Sct/9iShp/GB7ChH4YQOVbMgKMQHsiYMs/XBgPPHlLPPjQWdW+DeeW7N4gTPtRIvnQuOb01W0cQVByOgWMlMXOx7gQcNsNWS5AKkNoisAF5a1rBBSZ57/PSvJp6Z3gDrLcA0qKi8IeRGIhOmee+fPiknUfETNvvHdcjWmSi5jQm2QguBmMACPQugjYyveWpH2P3l7pf+iMWv/TZ3eKERWaERSlgE2qrv7M6BQq9IEjbec6Qs+MP1q3541ruSNs42vtSZuexGG01E6fPvTb56OE7zL/XfF9wanwCMSIRAEDciVmLlhzV2nuug+L2dc80rjeTM6TmdAnB0e+CyPACLQhArbyk8Xpngc/Wh1+9Oza0BNnlLBdBGkvOpSFiUiZjRKxMuNxInFloUkMJvcjr1d+a0P8JtLlMUInIpcuw5802EmfnpTzxhLl6Cm0kS6R2sCX9imJKFgENf+if+tceOHHRPf6DRNpS7Ncy4TeLCPB7WAEGIGWQcD2fnsJys9+Mtn16Jm6svVkiEFldT8KQQSrKwiUBJIU3rv7EQHqAAAgAElEQVSUDu2StJLckzyg1fcAIHvTthV2mdzhpsV2L3Xr5W29OQ0V71MU76kuFili2YWwazVEz6v+qbD8uk+K0kUbJ7cljbsbE3rjsOcnMwKMQIshQEvr6Pv1J4Z3PvaapH/jiXM6qhK1PiAgxbEYQvk6ckXf6xSCLLu08cvsgYQhdRgpkGQ+5O1sXzoZQ5+X6BF5j9WgG8fhdDhte/qSElaFqJFdanEpuue/9rtYdMmdonTl85PRjma5BxN6s4wEt4MRYASaFgFb+/tjzK57P1He/9CrUd1+jLJDqogIKi37TXGElG7luMPZfMjIRYlO8CTf67XZxrkzSvFlVQcXP2laGJqvYZl6niTlW9reoL/YzEqW4vWM2BMLxHIW0HEMOuae8zdy9oWfEXNet7X5OjSxFjGhTww/vpoRYASmMQK29n9WVvb++lMjO+45H+WNK7rVoOwsVAEb+SV1OtySOdU/K2eRYshMRSSe0LPfj5K6y4TLASO1E2+Uwsf4EKCsdXppkoSr83uvGxPa9bDedCUVM5CGR6N77rq/UovW/p7ounjn+J7Y3FfxVGru8eHWMQKMQAMQsEP/67jBnT//vWhww7mB3rUk1EOqIBIoXYNJIoTGQgRA6hTJKOCWfs92dOmXyNr/LtdXJyJ3mdfuKytAV0kWqTegky3/SOl014UQELTiQWSeKfUQsTlp1xAo2wJsx8mYMf+Sb8g5V31OdJ+1p+W7/iIdYEKfriPL/WIEGIFDRsD2f/+U4d33fqo28PBZRbt1EeKtUskyQkH1y8LXjackXKKAQCERqfMaz8l8dC83j8LrST2LJh3pE9PQIX2yHB/jQMCS9n0pM6OJkJKELq2KeOVXpFRnLoswnceiY96lfxIuvfrzQpzTN44ntcwlTOgtM1TcUEaAEThcCNjy/zg13fbrT0b7HnuNSnbMCzAorR5GWCKZ0Bhpqim3DaQPU3DuKKG3PhM+wh6NwrMGHrh37h3Qch9yEjTxe+2+tIqz3Mc5qkToZHVKSx8ygnVuNQUXmVuZIpJdiNVyzFpy6Vfl4us+K8QZg+N8UstcxoTeMkPFDWUEGIHJRsBG3z1pcMsvPlve/ej5XXbP7JliQCLa5+3MCkAcAYWSY3EYrb3LmasuD2A1eZNn/uKUnFX3aeoI3QmbZNriZBri9sstUpVCZ7aogc6W4Se7Y21xP1r+UDBGQ1D9Ob1nmRIiE0AHndBFR+ZfxqJzPy/EJeV2gIQJvR1GmfvICDACByBgy395xvC2ez5r+h45p2D3z7BJRUJXoEQVBVISIwm3XCfUWNBqrkvAIv9sRdnU1pl8CK0yBfFsczz7RPUr7hnhUMqWJeETL0vqk+Z8cySvto97ZtILVFYV6Lc8KPlNA1U7B0HPqxHOOfdLwcq1tMxOUn1tcTCht8UwcycZAUaAELD9f3fK0Laf/8HwwJOv7RR7OruSnTK0IzBUp5yTMdWIkzCJu8BpwgBUPx5QGA4kOnbROOnCQAeQVjhDkCzbzQFtXcY1/UQ60xBKmnM646QaJ9Kcz8cS3tt0eAStYNCiuSvly0A4iNAO5R0cWA0gXW6hCowrNnBjpSRq6EEaHocZC1/3eSxb/wdCrI7aCVom9HYabe4rI9CmCNjBb7063nb35yr7Hz0vTPeUOkRNSlQBUfPKYkQrL1gyp5+5H2UE4wmFiDrbM3dJbvXarQcLtz3xHKjwymG5w5awc9n+xMgJ3LfZ/HR5BfTu49fR3Vdude7GyoYOeyE0UmL0zhAVOQdluwrzjrri94Mll3xRiDMONJpvg7nPhN4Gg8xdZATaFQHb/z9Ore25/wuDex9aW0h3FHqCYRGg7J3PiD2yLe52xaex/ZZuy8J7l6ej6m7utclr78AY6cVhhK/Xdwqu9GUKlPmGJK4hnHEE+qsSFXkUFh+//jOY/6ovCrGmLW1vmNAbO6P56YwAI3AYELD7//xV5W0//6KNn70gqe1QIhkWxZCWvFOkcdktlxdLXh+GjwYikDGQqQu/aU1DZNqtVF3u5HSlhckSDWl53fmaU7VAoYiKnoNUnRTPWXjRZ7DyI18RPlOxLQ8m9LYcdu40IzD9ELD2uwp79Znlnfd/KRl+6DUhtkoku1AKIkjaI7dECsIlp1mq/zZwNptcNta4uUC87bYyjISwyi+j1/mcuzr9gLY4SCOfiFwiEBICqVOBS7sWYzBZUl6wdP2nsey2rwpSmGnjgwm9jQefu84ITAcErH0gxPCDrxrecf8XKn0Pr1F6FzrsCAomQqATCHI+MzEZmznzs6AEaCGQRNYJxjChN2YWUM5CfaIbUbE0IYShRLksWc5p4o+tnhuQMhytwVtUMRPl4onD85dd+hmx6M6vNqYXzfVUJvTmGg9uDSPACLxMBKy9q4S+vldWdv7yq737f31WMdiBjsI+IBpEqIEScULFZz/7rDRKrvIKYvS9op+TWgwfDUHAETo9mfbGMxU9l/lmSSzG285KRIDNqgKkAjnMxyhCq9lIwhV9s5df8Xti4ce+0ZAONOFDmdCbcFC4SYwAI/DiCFj7713o3Xhmbct9X45GNp4RiD5YMwJry5CyhoJKISgrOgVC2nBNMgYPCr5wOU2BNIGlvVqyOW3fLdeGTjNP6ETcqS87yw6nx2NJGlcioDI/TXWDFL4rxFKgpuZDznrVruLscz9dWHrHtxraiSZ7OBN6kw0IN4cRYAQOjoC1v+jBwJOnD2/+xVfS/qdf1SF7AbMbSlScelvmUwqb1ZG7jGidOXERQWS84M4bdVJJ2e2sYROO0t98GaDMXqpGo3ZndBN4zfyUNNotEHSjImch6Tx+68ylV31ULLj5HxrW9CZ9MBN6kw4MN4sRYAQ8AtbeNQv7Hz013v2rL1b6njhLoQ+hjCBMFcpEUJakWw5UahvFzkmvKlfi5NbZaT9WkHl2RuRtnULV6BlGZWcGYakAEcbQiVd6I7180vBxL2BkZ0cJjQEwYuZY03X25pmrrvyomPuef2p065vx+UzozTgq3CZGgBGAtXfPwZ5HXhnte+gP44GHTgvMTpTkkFta17T3TUEbZTy7rOg6pbF67JxCm0+l9glY1mVMe6F1Tohr7DSTEKqIJImRGg1VAAIaKjLBIUkYGtcgRCo6MGw7UJhz2sau5etvETPf+cPGtrt5n86E3rxjwy1jBNoSAWt/Ng/7Hz6rvOW/vhhi6ytqw8/BxP3oKFjndGZ1StVM/tOfePk3PsUOJPc8kzpPf3PfZ5H5aDJWWyLd6E7Ty1gBibEw0kCGFpJU4xJAUWK7LMGEAn16NuTs856cs+Kym8Wsd/yk0a1u5uczoTfz6HDbGIE2QsCO3HMkqk+dObLt7i+I6uMnieh5KOxBWDAul42czsgkxXmOkxOHE/iuJ+8xPXbH9OJAOdexZXjicyITCS/MypnujZlmEjoWkIUiBHnLW9pGiV2anDBFGNuNspoFMfOUR7tXXvO7YuYN9zSmna3zVCb01hkrbikjMC0RsOX/WITqU2eN7Lj3C3r48eNltAOdxRg6HnYa3mHBJ07pGM40RZLMm1GwUQThk6HdQZG3y5B2P8iz1z2x54qhzt3MKY75C62ktV0m9MZMLBKICVxinLap8zVXogCpqDxNoJzOR2HWRQ92HvO6d4juKzY0po2t9VQm9NYaL24tIzBtELB9PzoKyeYLBnb+8tPR0FOrOsVudKhe6OqwW01XxLkaSA25lVmn4y1d6rpnb2N85J4vuTu/M1cKRQ5n3t2MyNpdQaROlU+5TzkROp3r1u6Z0BszqSSEDKETymI3zpZW6w7UTCdsx1yo7lPu7Vp1wztFz5VPNqZ9rfdUJvTWGzNuMSPQ0gjY2vdWJr0bLqj1PfnxpPfh1SUMInCWogl0OoyQPMfJNzwFqHScSN0I4eRbicS19uQeBEQARMhE8LmfmY/mXyzpzTl81R1cg97YqUTRuaAyQyfQDiRpCTW5CsX5F91dWLD2ejHndVsb28LWejoTemuNF7eWEWhZBGzt+8eg77ELhvs3fCIaen5ZEO3ArGAASGugIE2FCnGsUSwGMKQKk62mO22RLIlNUlY7bZ8Tz5ss+q731XRXEU34qHtM2fsFhJ/tsXPV2sSmU46vrntPcqsgo8D6X/htkMxVJRsbt5pCqyaZkF+kFdJgOYqzz/9psPCaG8QRV+2YWOva72om9PYbc+4xIzBlCFhrBUb+vxNN/z3n1/ofvd2WN68sxP0I0xggWU9JfuT1S95ZhP1bWkhEQKSR/+lPfSlf8vyGL33/KQOnxR9Ub6KSUrl/1h8aG0X14/m40AtXUHTjTE53KgBkqJAkmqrSECVArDpgCivQOWftDwuLLrtR9Fy+r8XhaUjzmdAbAjs/lBGY3ghYe1eAcuUV5d33XSziZz5gKk8fhdo2hHE/iibxn/5ZptoLVsGnNzDTqHejhE42prlrGknn5zseTgMgBBINHQiogleL0SZxkTmtuhC5x3IWKnY5uua+5v90HH/5W4W4fGgawTSlXWFCn1K4+WGMwPRGwEXkQ/9whum/d1114PH36OqW5SLpd/rp0kZO4jOQCYRM/XJr9jW9UZmevcvd0pySblY9MPqSNrrdQZmNZH+qySHVVyKQxj6Ne0FgIJUwxRMwe8513xNz3vgOMf/EkemJ1tT0igl9anDmpzAC0xoBZ2Hav+XVaf+GtdHgIzfZ6MllUu9CARUIish16Iw4DNWdqRQpYrfPSn7kjgz4aDkEiNCdMiuNI6U85KsuRNxZxQEp7cqigDUWMenqU5E5/VIDNpiFYbUIXUdc+J3SMe94uxBnUA0hHxNAgAl9AuDxpYxAuyPgiHzk0XPi/Y9cVh164gZT3bw41PucF3mBEttIotV4ARiK0PyXQkrZzcaCjDIVicPw0XIIuNRDSlIk0T6n+lNXQigktJAuuZGUdylNwmkIhCUYXUIlNUiC5Zi59Jq/lsuve68QJ1JSBR8TRIAJfYIA8uWMQDsi4PbIe/e/Nu297zJde2Z9rfbsUphdKKLPWV4KKi2m6IzqyyiUI9mQPHKTEhqhqy331M6E3pJzyJIoTOjGT4jIdyHLjHOvajTsKnHvdKTuR7oCaVLESDITqudo9Cw470/Fii+/vyX73qSNZkJv0oHhZjECzYiAi8iHNqzD/ocuquzfcK1K9y1FOgCjhwExQppfrtnOMYsSnfO1VyfomX/gezGXXGO9GfvJbXppBMjeFGmHC79tWPYE7nIi6M2N9s5JHiCFsNqVGlLpWjkOYTpOwIzF678qlt9520s/hc84FASY0A8FLT6XEWhTBKy1Ev3/eFm0597L4pHHrxHp5oVB2ouCrgG66lCRijZUSQVGu1V2d2TBt4CCoLVXd2QbrrnoW5ti2urd9oROinsGNohcpruP0AMop+4HJ/yjlAJChWragbR0FHqWXvzfxNI/vLPV+9+M7WdCb8ZR4TYxAk2CgF9af/Z10f771sWVJ69Csmsx4j4oZ6JhoUySJbUdqMDmzazrPMrr9ldH3dEyYZEm6So34xARGBWPoWEOKBsCqCUJlJIohiT7ZqkmDSh0oCYF4uJqzFh47afF8js/f4iP4tNfJgJM6C8TKD6NEWg3BGzvP70x2XvPFWn1ictM9PQCafdA2RFYnSU5QY4ltNkAgtbQKWobDc1HnVAyOdY6q9NseZaV2lp3VjnyoNX1bPtcFEtOG5+MVqjInBLhVDALlaiEtHOpmbHs4k+KpX/w31q3x83fcib05h8jbiEjMKUI2D1/81YMPHBx/95fryvInQuR9EKYCsj0jHKarbWwLhGqjqBH68m9LanfIM+y4NynTL72nu2f5wE9M/qUju1kPywnEFfIQNnskpbZAXK1U4UODMcShdmn14pzr/mYWHbr1yb7+Xy/AxFgQucZwQgwAkTSAnv+/qak77G1Q3vvW9td2D4/sLsg7YC3HM9txynZibg5UxOxVI5W9ylCNcluH9VF6gd+vAifITcWwTtnND5aGQFDxF2UsMYgTgFKo6DDmgC2sADlYGlt9qqrbhXzPvFnrdzPVmk7E3qrjBS3kxE4TAiku7/+rmhw4+XDex577aygb66Id6MQJtCVfifNaYUdM0dxxhsKwha8q4Yhk3K/Bu9UwOpIOidr4v4sXvemHe5rzKyDs90P08Ae9tsSkQeAAhISCqLtckURegGRnQVTPGV/98q3flzMf8dfHvam8AMcAkzoPBEYgTZFwO762w8M7bv74rj23DlFu/8IW9uJDjEEW6uiEGRc7QgdMORwRp7iFKlT9E0/oE9yUME5MXY6RugvyF7PV+Zd9J5LgpLCjMt6pxcBrkNvzSlIGzAFJKTNLrWvM087EOk5KM4+eU9x0bpbxYLb/r41+9aarWZCb81x41YzAuNGwPb+ye21fRvWDu977KxZhf7ZurIXQAwlNALSYaW6YdolT60Lwt17PxUS5wdlxZEQe/2RlSvZ0RjBk/xvhA0HXMbOZ+MexGa5UEnY1PuZW9GNml4A23Py5s5FV9whFr3re83SzHZpBxN6u4w097OtEXB15Hu+eefg7l9dGJc3nhGavTNKoh8FPQCZWhddE2fr1C+bu2g896t2S+T0ie0z30S+hp4v8eXL6CQeQ+e5d4CsbC2LvkfL0l/wiZNH7W09OA3svEtgzER+RnMhrHRmtGOe5tTAgwsB0UINJcQJOwOJXYCg57SN4VGXfFjMf+e/NrBbbftoJvS2HXrueLsgYAe+szbd+6sPDO2976ISdvUoPeDcrpBGECqGoA/rlwQjT0v/bcvjL6xF56X0l4S1gSc4MndbHwZaZVr7zv40E4Zx9eXKOeXBpqPbLvRe50oUpUVEvxZFpFiNsPP0x7qWXP5hceSbftzAbrX1o5nQ23r4ufPTGQFb+9Elad/jvyuj5461wxtWRv2PlzrkAERKpla0D05hGO9hT+c58Nv65iJwSmqrI3R6s/MFDCGEoeX0GIJS12krhgTZ6aASNS2QCIGkUEBNLELnjPPu71h8yW1izlt+0a54NkO/mdCbYRS4DYzAJCJgK/92TW3gsfdURzadVDCDiwu2zwTRHlkb3IKiGIZOYyhFlpaCjVEmEfdWvpVbbs/YwJcekoaAX08XVFROL35E5KQuIAWMsIjRgYpage45Z95TmL/mVnHEjfe2MgbToe1M6NNhFLkPjAB9Bg/ddXXS/+gHR0aeO1HJvgUdxRgqrUDaKlDdh3hgG5QYgdEJROZLTdEY72O37/QhC1Qia7dnXgeDs9ixgddhN7ETE3I/srRKH8AGJcRyCYIZ591VXHzBbWL2Wx9uXxSbp+dM6M0zFtwSRmBcCNiB711b63325qS287iC6psfhhGsiWGSGKEIATJQqe1FNLAJgRqCgYEkfRjyqKavl95AH1e7+KLmRoBonAxsqaKBbGzrD+30BKQjcvq9c86TQKKByHZAlY5D2HP6T4JlV35I9Fz9RHP3tH1ax4TePmPNPZ1GCHj3s59cXxt49H3S7DxO6cG5wg5CyCGQGbmlZCcbQOoiYBNH6PHA8yioIViRuFwokugkm1Mm9Gk0MQ6hK57QixBIoUhPoD5CzwSCjPY2uFSWRtnsZV2CLazCjHlr/hULzr9FzFz/7CE8kk89zAgwoR9mgPn2jMBkImDtdxX65fp4ZPOH0trW44t2eKbQQ4COHZHLIHEs7XzONJUfFdzHNqr9SPs2IxBDACquJi111paT2Tq+V2shIGFs0b3QEannpYb1yn1Or5/eDQ1Qs50wxRPROfe8/y3mr71VzL5iS2v1d/q3lgl9+o8x93AaIGCtVej/0fXR8DO3ptVNq4XdNSMUZUgduSjbb4rTEUMLDUM/pMLyRMAZW9YGEO/fglAOQ9gaEFDNOJUjae+jwkcbIpAlvrkddMpup+S3TD/AZb/5jXXKj4tMD5JgFTrmXfT9YOkVt4jONdvbELCm7zL/U276IeIGtjMC1m4qYeCht5QHn/6QiXccHWKgK7Bl50cunI8prYWS6AuVH9EHcAojDVJpYYRx9qahoSX3XkR921AUI0Aaw4fm3iyFCb19Z5i2AiJTAXSRusunIHWhLEuuCAwnnUjDV2DmgrX/IBe+/hbRfdae9kWsuXvOhN7c48Ota1MErH2gEwP71kfDG2/V8c5jkWwvKTmEgkggoP2GJgJQ4E4pTZLqiYmis7ry1C2lE6FbKMpyp6S4fipboyx366U6ORmuTWeX77Yz0snK1ZxQTGpdubl/MfTnVNEN3XksivMu/odw3lXvFzPP6Wtr0Jq880zoTT5A3Lz2QsDaR7ow8Pi16chzH04r24+zSX9B2ZoIhfFeJvQv1kXmPrJOZOA+mENnmmL8r112ctGpefmEtxEg3oVk4BkoVYWmzHZabc0iMk6Ka685lveW5o2mF7/MdIfInIzz3MKN4/ceVIITMGPpum9j5fXvE+LEkfZEqnV6zYTeOmPFLZ3GCBCRJwOb1kdDz9xmo23HhnZPULAjQiLKVsZpSZ32vV0c7sqJdAAkgV82DzIhL7cP6iL30LmiebvSMpAQoT8Hqcqe0HNpdi5bm8az6rd3LSd0mg/E62R96hZ/Evpjptsz71xy1d9g1QXvEWLNgXVtbYtac3ecCb25x4dbN80RsPauWWZw75tHBrfcmtR2H12w/aqIEQQ2gqRyM6ez6dbSs1BKwEoFYxW0TGGCmiP0UBd8trJLbBrTZnd63a5srRdJ/w5INQRtYshAuJcCuoYj9Gk+yV6ke0To9PqnLRAI6URk4jRBNe1BqedUlGad/9c49uT3CLHe6czw0fwIMKE3/xhxC6chAnbg57Nhdq+v9j95q0n3H2vMiAhVze2Ru6g8SWF1CkFr47ntGS2lu+8VaHE9tUTMCaQ1kLrkDTMoxBJktOEK1zxZO0IfRNK3A0qOQJsaZBB60RC61n2s89GOCJC4kC9NKyCxRZQpF6O4ys5ZdOm3xMov/E47YtLKfWZCb+XR47a3HALW3j0Hg0+vr1Q236ErO1d1JcOQJvZETBpuhjSzNWQYQIQhdBI77Wy30O6y2GiNnLKZtDs3cEXC5JpF66VE9tm3FH05SU/tk+KiLCkOFZ8UJwou6reSVgGY0FtuIk1Cg93qTUqqMfSiaFCRs6A7T9Rd81/758Hyz71/Eh7Bt5hiBJjQpxhwflx7ImDtA0dgaNP11aGNH4tr2xYL24eCqKBEUlxJ5n4mA4CcrYyFsSTQat1qu9PTFnaU7OkU8iR3++OU1ZQTerYq7z6nhXSr9KQAplAGot2I+ragiKqrSnLar3QiqcplnuXtOTKt3uu8htxXONAx6mvu3gJzb3MKxcf66gscJATNH9mBiikiCpelMxau+9PgmC99qNVRadf2M6G368hzv6cEATtyz5GoPnVDdXjjbSbds4jIVblEtwTSGFDRmc8qHvMSr68mO1iNuNeBGzu8r3X2T1lYR+RGkCMWOV5SzvvBytaUc1uj5XmO0KdkKhyGh0i4sc9ZXGpo6asfSIvdvbBpSnaj5EgNpNlWuKtwFIhoxacYYijqgiqcWpuz+OKvi+V3fvQwNJRvOUUIMKFPEdD8mPZBwForUL7/SES7r0+Hn7xDpzsWmXS3i5QDSYloBtaQKUaWtD4BaCgqc4G5W3LPHLGkgcleELybWg2I9iHq34yioCx3DSUFSFSE988nAH4TXEqVDPlhRQpNOzD5p7qVUCgCaQIhUqdBRJNFk0AgWa6UZmJIK5ji0ZXZcy/5erjqcx9vgi5xEyaAABP6BMDjSxmBegScYUr1Z4tN9fk3VstbPqqjfQuRDiIAybOmcLXkLkktj8EpOp6YugsTenvPQZpPLiKvI3L6UA8yBVeQOY+U0EHVRe20KEMpGNKUUEuPQFQ6ZmjuUWv+WCz9vc+2N5LTo/dM6NNjHLkXDUTA6axXf7bIDG+6vlx99qNpsnOuwhAKKoWgaNjVemc14aTw5pa5NYTwpWMTOZjQJ4Le9LjWlZ9lK+/0gU7zzU8xWnIvurwMHZYR07cub7IEaeYjMsv7Zy2/6o/E8o/8wfRAgnvBhM5zgBEYJwKOyId+ugK1rdfXRrbdGke75kjRhyCsuH1y2ut2kqzOqzSzNaOlT0mqb96u0posOW28beAl93Ei1/qXubSJzOaUeuO2V7I/vd1eAASdQFRDSi+XnQEqIkElnomu7nP3dc+76PNi2Ye/3vpIcA9yBJjQeS4wAoeIgLWPFzAytAq1ndfW9m+4Vdq+OSSvKoMqAlkFRASbRkhT2qsuQhJpZ45WVB4kpIZF4rLWpSj55KVxHhyhjxO4aXDZqBa7y6HIstmJyd22Dn2RuiAlTAJWWcSqAyPoBjqP2TV34ZWfE0vu+OY0gIG7UIcAEzpPB0bgZSLgnM/Kz65GZdv6uLz1Fpvs7xFJP0KKtoWGNTGMIWGYFJJKzciiNCFdTZJspVCKytCs14mBhiY/ciofm8DBhD4B8KbBpXlxg6Jo3M2xLETPSth0bKA6Q2fgU9bzgc5zt3UvvehOsehd/3MadJ+78AIEmNB5SjACL4GAI/LKthPSkS1vTkY2v8/GO7sDDCFUVQjyFKda8tFSsuyfFO2N519BFqEbX1tOe+f0RYd12uvjP5jQx4/d9LjyBaVrTlzI+5o75z0JpwCX2CMgO1+5uXPh+lvFUW//5+nRd+7FCxFgQuc5wQi8CALWbutAdcMpcXnLG6KRLe8Vyb4ZgakgJJ11pBBuA5PqvrNsdZfFXk/QtJSepx9L54LmjlEhF85y58k3fgR8Dbp32fErP/nHeaYtQGQeSJTT+Qi6X/tM91FX3Crm3/iv438iX9nsCDChN/sIcfumHAFnYTq855VptO3aeOS590Dv64LuRSAiKJtmJih+idOtcpI+i/MirRdp8ZKspK9uaR8z3ycfPWdi2e05KByhT/n0aKIHZkpvNPfIP9e5pRkksbfHlSmVbooAACAASURBVKUu9Mdd6Jh/9lMd86/9HTH/bT9vosZzUw4DAkzohwFUvmVrImDtUz0YeeI0U916dVrd9m6R9HbraAABUihpvVGKJQlWb19KBb1uPzyvLx/tdmZc7gi9LuFNkOYqEX/qv+iwpKnOSXGtOWMa22pS6rem4JIslUgym10ftCdComwXoDDnwkc6F699r5j7znsa21p++lQgwIQ+FSjzM5oaAWufm4ny9jN19bmra5Vnb7DR1p7QDqJgY9LTohRhQFB5md8qN05elYrLqVs+KifipkjcO55lspt5rx3h10fwWaGwI3KK9JnQm3qCNGnjyJoHsohU1xAI7QRjaPalogRdPApp8eT7ulavf7foXr+hSbvAzZpkBJjQJxlQvl3rIGDtpll6eMNrknjLFVF5z/WI988sULKbqCAwidfIdHXktJZJxEtb4hZGaa/e4eqBdLa0ToQu6iLyfF+dIvFc6SMneor0xyQ7J4IYL7lPBL3WvtZF6EEJcVJDURqoQoA0ERgxS9Ax78pfFI9+/dtF6aLnW7uX3PpDQYAJ/VDQ4nOnBQJ2+MF5iPa8Rsfbr4jjZ9drs7fHJlWneV4QFPdkyW2k6kaiMI58vTWp20APyOI0haH9dEqNowibongXshOx++utzLLfR5fX8yQ5ul8mNOMi/PHvpzOhT4spOa5OUMmapoUi5UsfI1OCCRejY+45/xksuO5dYvZlm8d1Y76oZRFgQm/ZoeOGHyoCzsJ0ZOsaU9lyVVTd/oa0trc7NH0oKgtBH4rG+KDcGJcxrAKSZvV/99G4J95cstWmGlJm9qV5hrGzJM042pUP+XV6txLvltbdW0Fdkly2r36oncnOZ0IfJ3DT4DL34U3vjCFQFZ2oyuXonnv5DwtLr3in6F6zexp0kbtwiAgwoR8iYHx66yFg7eMLMLT1oqT8/KVxdeuV0HtnBnIERRUBcTmrI6c9cgUr8micHCwsUp24jGHyHzc6cdG4lBSX+3IhR9JOzOMF/5QcsY+VsB1og5oR+iRkvDOht958rG+xmzXuPdH717+ola1bJRq1UcsSKwGarpWkiKSwAl3z1/4gWHTVe0XXpbtaGxVu/XgRYEIfL3J8XdMjYCsPL0b1qYtNvP2SpLr9CqsHuskbXNG+t0lhdISA8t1c7XhdnXj2wWlddJ0f3qZ09MgS2Q72D8iLdVG52ostpddfNf7ldscFrOXe9PPwxRp4IH97wrZOdXDsCnpPpFUjmCKU9DLB1lYBVUMaAOUwRBqsQvesS/+htODim0XP5ftaFhBu+IQRYEKfMIR8g2ZDwFYeWYLq1st0ZdPlOtm2TpjeLqsHANQQWK/SJigad0voE9vDbnTfmdAbPQLjf362G+NvIAIXoRu3TUPpbpnxivY15RCdsKmC0RZWGecbUFNFDARLMHvh2m93HHXtB4VYNzj+1vCV0wEBJvTpMIrcB4eArdy31NSevbxS2XS5SPeuUXaox8TDro6cFsmlk2j1fuRefpXqyScmvdpo6JnQGz0C43++S6bMfE+tSp1fuaVqCrdeRHN2NAXDe54T4UPByABWFRCpJZix6Kq/kD3rPiLmMJmPfySmz5VM6NNnLNu2J7ayYSlGtlxdizZdotMt5xmzd0aAQQgTuw/FwCpIyhwylOSWwtKSuyA/ctoDn5zysUaBz4TeKOQn/lxfHeGTKLVMPWlnlRKKkjGJvp0Yu1eBowrKmgwQmW4UuleiNOvV31Ar3/QxIdaMTLw1fIfpgAAT+nQYxTbtg609sAqDz7zBRrsviuP952jT16PEEAJZAUgUxmhYnYu9yCxbncg8BkhZy0XrxZYmdSb01p/8uWNaLiPs56VXGZRpCkmKMVJCC4lhFGA7VmHmgsu+Kpde+mkm89Yf/8nsARP6ZKLJ95oSBGzt/pVpZfu1yci2y3R546tLYqRTKQ1ja0BaA6g+nJLd6H+5vLpTaqMvDSspy0i7PXQBSjRq3SidCX1Kptxhe0hO5vkDXK4lLRy55fYAUltXVZFooGK6oGYei+7FF3wRiy/9vBBraoetYXzjlkSACb0lh609G22r964wQ8+8rTqy6SJhe08N5WB3iAGYpAKd0PJkABkUfC2P1jBpDFmicrRM0Y0SjrJacpJp9YSeC7y0JqZM6K05bvWtfiGp0+9Iv4hS45QKESVAJApQ3Seha94bP4vlZ39ZiHOqrd9z7sFkI8CEPtmI8v0mHQFbu2c1+p6/KY52nA+z61RhBzqEHQL0EKyuIAwkoDoAHZIrheNvQQ5ngQBSsp4iOa28PCxTa3P15sTvlCg3sdKxSe/wIdyQCf0QwGrCU/PKRlpOp1Q4N01zpUEhYUSAEd0N2bMaPUsu/wQWrvsTJvMmHMgmaRITepMMBDfjNxGww784MR14/O2wO9aYeOfJ1vYXnBe5oDryzPHMranTEWQSrPVFvLR2meuoZwYoVK7mMokpMqcl+JgJnSdfQxBwSXGiAKQpUpHCKgVpS5CUEGdjQEmMaIlg5kkoHXntR7D0qq8JcSJNWD4YgYMiwITOE6PpELDDvzoe5e3vSSqbLxR2+/HC7CtY3efqyJ38i/MsVS7hDSrI9htzx7J6NS1P9rlwjBePyaVXs31zJvSmG/92aZAjdMrNDEMqxXC7QTrNInUpkcpO6MLipGPJRR/Bksv/jPfM22VmjL+fTOjjx46vnGQEbPSjk5K+je+PqptfI9L9xxRkVJAJJbklkIZqx20mh07a6FlkPmpbmjemjtCz6P1gkzz3KW/dxXbfX15yn+RJONW3c9tD9FAnWQgLg1QUoYM5SIPVle5FV96BpRd+S4gzsrKMqW4gP6+VEGBCb6XRmqZtpaX1ZPiZW6Joy3lS7zhaoT+QZhhIIwSyA8LZlxa9dBZpqiNxTmZeGCabwgeKpY8qclAtr4/SDwRvjNDH70XeDMPBhN4MozC+NlAynKT8zQQIKJUjCJBYi0jMgZp9Sl9h9nl3qKVXfJvJfHz4tuNVTOjtOOpN0mc78stXYviBD6XRznOr1d4VwpTDgopRUCmsSWC0hnJEnlmTusxf+o/0MH3EPjqBDzBDsT6CF6lfbqfzHKELCFLncG5nPrv9xfXWmwSkl2gGE3prjNPBWkmEngiAcjpJ/EibEDU7E7bnhN3di664Awtv/44QdQ4/rdtVbvkUIcCEPkVA82PGELAjPzsZQ9tvq5afPy+tbTyqWBgJAilgqTY8iWGMRiCV93nWY6G1E96wtCxJNeZevpXU3/xR72xGyW7O0WL0oXmETrW9ntCz69wyZ+seTOitO3Y0dZ2TgBKwuhOJnQs18xXbOxa+9sNY8NHvM5m37tg2quVM6I1Cvg2fa8s/OU0PbPxItbzpHJjehQVVCQtE4jqC1rSELqCUctG3NVRHrp1ATE7MjsBH2TeTzRz9nkjcE/jo6rtT6TiwztwTe2bI4s6nRLnWPZjQW3fs3Icv5cXpAmpqOdSM057rXLjuNrHgXT9o3V5xyxuJABN6I9Fvk2fbyl1nRQPP3ZZUtp4LvXd+IAYCJUYgdAykEoFQrkTHkbEjWF8b7jzIrY+0ncgbReXOhzxjbTpNhhmKY4Se38ftuecReRbF+z11Wob3Ri30vFY+mNAbO3ruA7TOz9y9UpJbWvaWWJ+i6V4lsx/430tY2YGqPQKYecbGrsXrbhHz3/vDxvaIn97KCDCht/LoNXnbbfmnr4r3PPJRa3afD7NnrrWDSgqqI/cNF8Y6zZcDD/plXcx8kC3EsQS3A8n44JH2waZ4K8fkB6LFhN64fwRuZuXuu87+VEA7pk7z4ki/8xN4gcLU0vunhEkNJKWBFHuwP12AngXnPFZacNHNYvbbftq43vCTpwMCTOjTYRSbrA928Odn2oFnPhGNbH5NEPTOhO1Xwg46QxRnWwryIvfSq2Rr2spKbY2Gngm9cSMwSuju7TSAFiJLsvSE7jZ7yORvBBAhfQnUYgEVdiAMFQaqPehafOmvw7lnvk8c8Tv3N64n/OTpggAT+nQZySboh63+8Lxa/xMfi8qbXyNNb3dBREroBIoE26wgYUtnNEGZ5SS5apEwoU9w3JjQJwjgBC93DryZVzn5A0jj5VsFUr/jk69GUaQuQhjRiZooQZfmQnYf8+uuFde9W3S/9eEJNoMvZwT8qifjwAhMFAE79LNza4PP3FmtPr9G2O2lguqXSlSgyN05DSBMIbMpVT4zXVDpWez2x5VX1eBjnAgwoY8TuEm4jPbD83QOV1NuqZ489LmZLkfDOCvzsEiufwpal6DlTFTkXARzT/pV91EX3iRmvPOpSWgK34IRYELnOTB+BCyF3NWfnJX2PX6nru1aF8cDBSGGZCmIoVQESw5oaYowLLkPM1f3bWlJkp7pNx4p+a3V3c7Gj+DkXMmEPjk4jucumrx/iKsFENKeuJFQhtz9KLeDInTthZAoVyTsRIIZGMY8dM4/+1elFVfcKEqvf3Y8z+VrGIEXQ4DDI54bh4SAtd9VqM46K+7f+qna8Ka1NtoSdBQqokDOZkih0wTWpM7ojJSvyMbUf8D5RLQ8y5cy2N3Rwl7khwTcYTqZCf0wAfsybktWAnFWFVlIAWWlVzV0QgmZPKE1MCpAxZRQkwtQmn/Oz7qXX/4W0bl+x8t4BJ/CCBwSAkzohwRX+55s7eMFjDx7rh585s7a8LYLkQ7KUFVEoRADugJDa4tuj7zg9SwpCqfUXmdPmpWKHUDouWRrZpLSvtBOqOdM6BOCb0IX08spRehE4AXaWqK7ubR2mujkpCaRmhSiYxaG1Txg5un/OWvp9W8R3a/fM6EH88WMwIsgwITOU+O3ImDtphJGnjs76nvyY0ll88XK7hcFMQyJCLBknJJCUB051YNTKq/bWCRPck/iglSwyN/ZWZV6pTcXmGfZQrzkPrEJyIQ+MfwmenW+4qSIwB2hj9VhagQwQQ/60xm2Y9G5d/Ucc90bhXjDwESfydczAi+GABM6z42DIuCIvPzMudGuRz4h7f4LofdDmGEIUYWUtD8YuzpyWNJapw+zsankuTpX1jCjK5Ceyf0Hn8gIvdW11Bs9fZjQGzcCbtdISCA1LkVE0GITBejkOaCAWAbo00vs/FVX/ihYevnrhLg8alxr+cntgAATejuM8iH00dqnerDvmfNsdevHbLzjfJnuB+wQYKuujtxJtpEqhjAu2nYZ7KM+4/5BBxB6nZ66J3JP/l5Tnc7NPgEPoY186hgCTOiNmw2O0L2ooas3d14DLmUkgA5CDJkjzIwVl/+4sHTtVUKsjxvXUn5yuyDAhN4uI/0S/bT28W5UHjtfDz/3kaSy9QIbDUDpKgq57gt9UlGJGe0ZOgtTylInoRgvoerlsIikaXE9V3DLJVZpyd3vsfsIXWWuZ/me4/RRbpvq6cSEPtWIjz3PEXoepWvj/22EBQzWQsTFlXrmogv/pXj0//P6xrWQn9xuCDCht9uIv6C/tv+hWbC7zksrz388iracY/V2BGIICjECisC1r6F1a4qk2UpqWCCNdfp/ChHEPmp3ZWljTmbuPcDZlhKp50lxROie9L2NKRP6RKcfE/pEEZzY9YLW2YnMKRFUljCsQ1TlUj1z0SU/KB3z5Wsmdne+mhE4NASY0A8Nr2lzth18fA7MptdgaMMdNtlzXhSXYXUNUiVQKoFFBGFTSFdxRkvrnoj9fjlxuHcmH3OhyJOBsmS4zPjEL7HTkUfn/h7entybrrD06/inFRP6+LGb+JWkehggiTWKxSIqpof2zNN5Ky//36WVn79u4vfnOzACh4YAE/qh4dXyZ9vhX85Hbe9aXd1zi0l2nWlrzyIU5Syjx+urU+Tt9rYFWZr6JXUi5jFypkDdT50sad2TsiAN67ESNU/iY1H7qK0pxfhZNnD9PVse3AZ0gAm9AaBnjzT0YmoljOxEOQqRllamc5Zd8p1g+RdubFyr+MntjAATepuMvrUbjsTQc2uTkWdvjqtbz4LeC4kqClZAUaauWza3MDrxpilSgKrRTOZT7mEaK8nxhC4BUtdwUXv+u1wwJp9adeU8pOHuiJxeGPz5wpIsbGtbmDZyCjGhNxL9TGqhMA99dlXUufC13+k++svvbGyL+OntjAAT+jQffWsfOAr9u84bGXr+dhNtP1WJ/SioIZD7mdUppOl0+98UWTuZ9TFv0uzTyu+b+7Vxnwo3dmTKWPVJcC9GzkTgTOiTPtuY0CcCab4NVCcI84Lb5Tmh7nXWfeNfPiUMNEIkajaGzaLq3GWX/02w4ovvn0hr+FpGYKIIMKFPFMEmvd4O3L8SessFUe8Ttyv0niAwAGtHAFODoFobJ/aiRsvIXtY+9gu9yUfJ208jJx4ztq5+IDJE5vlP6u/D0fmEZhAT+gTgswGM7fAELWnbyYxKE0v//uky1+MaeZcDQUGhGtFpFqXAILLzsEedUZm7fN3/2730to9OoCV8KSMwKQgwoU8KjM1xE2eYMnTv0ahtvchWtn3QJrtOECQII0YA1ABSdzMCVlJE7urPYCkLnY+WRYAJfQJDR/kdThiJlFpJZ8G491G3mZQRuqvW7FBu6ylKSRCxBIES0kSiFq4e7l79tm8UF37w4xNoBV/KCEwaAkzokwZl425kKTMnfuAEU37+tXH1ufclta0nKt2PAFUo2gMnLRj34eWXC620EDLbz3YSrXy0KgJM6BMbOW91CqS0+p6Ruf/34hNBXXl5GAJpAk1bTkEBFTsPtnTqQNeCc/84XH7n5yfWAr6aEZg8BJjQJw/LKb+TtXcFqBRPQm33BeXKlvel8a7VMDsRiiEUROT8yE1CH05FCEtSVmpUxc2AVN8oT5ePVkaACX38ozf64UeEnnmbE5kTkbt/F1TZIRWSOEYYkulQJwaiEKbnFXvnrLjmS2LBB/9k/E/nKxmByUeACX3yMZ2SO9rhX5yIZOtVtZEN77bpvlVpUoWwMUJlEJCCmzU+6U2QzCpFId7nMS8z8wrreVX5lDSZH3IYEGBCnxio/5e97wCT6yrPfs+5907Z3qRVs+UmFxlb2LjKxtgYsLHp8JsWIJgSAqZDgMQQasDUhBJKSAgJBH46ocRggn8bMDbITZYsV+RutS3a3Wm3nPM/3znnzo5kA6uZ3Z2ZnW/8rCXNzr33nPecue/92vvZDmkug4Q02A2VU325jaF7pjRNA36AUjKCcmbDw0OHPOXdYvXr/7WxK/PRjMD8I8CEPv+YLugZjUTrxI6nx4W73hJW7joJ6g4Egpqm+JAk/kJdn8i1bphbQVZV2ujG5XyKRtjFs1rss4XkCzpuPvnCIMCEPj+41hZ3JIII3fqulKKOgb1GNEZ0HXtv32EX/Z1Y9oqvz89V+SyMwPwiwIQ+v3gu6Nn09NXLULzvr6PiPW+Nwh19SHYj749ByMgm9yQkQ0lELSBI4s0jk4N6Qiho6pBmTHTftjslqVZjsXMMfUEXbYFPzoTeCMBUfOa5eDl9h2bFEBMqTJP0fCwQeiugcqfe1b/qKW8TK17zw0auyMcyAguJABP6QqI7j+fWetMIdt/ytvLUrW+IKw/lfVFEzo+BuGBV2ihGTv3IqUmKqZe1FjqpvRlCr5aKOSEYR+hzKlebx3nwqeYXASb0RvAkTxZ9Z8i9Hs2KIwmrlxSJPKJgCOg5fmvv2me/VfS/+meNXI2PZQQWGgEm9IVGeB7Or/WdWYxd98bpiev/LoMdfYGcBuIKJPUjN8IwROJOctUJuFgS3+/ilOSz/1vzMD4+RfMQYEKvH3vbLS2t/LDeKvMvEkAUAkWxEv7IuTfkV57zFjF48VX1X4mPZAQWBwEm9MXBuaGr6L1Xnh9NX/P5uHjbIYGYgKeKEFQga7qg9Vn3OVnijtSpy5n9e3rDml1mI/6yn976bLvThobJBzcBASb0+kGvfiuUiVRBegHiOEIl9uF1r0LQ97jf+Qc9+w2i/6XX1X8VPpIRWDwEmNAXD+u6rqT1b5aHO67/bDi9+f/4GEdGVSCM2puTZHVZuYa7zd/TfuRpVzR3WUPwiW2eQo1XTFtTOihT07+8riHyQU1EgAm9AfCdritFp8hQV56PipaIvdXoHn7SVcHKc98u+l/w+wauwIcyAouKABP6osJ94BfTM994SXHsun9UpQeHcrIML6FWpk75AklNbNz6CjXF0E0djo2V225msz3JrewrJchZC16Dm6Mc+Kq0zhFM6I2tRULPxUTmWqKiu5F0rUF+5LSfZZY9/c2i9znbGjs7H80ILC4CTOiLi/cBXU3rO/squ7/zCVXY8kovLBD1QsXS1JbDi6HIWheihtTT/uKW3G37Uspmr5WPmU2Us4OpaVBxQKPjD7cCAkzo9a+CaX9KwjGa/FY+kD8M2aEn/9hf/sS3iP6n31n/mflIRqA5CDChNwf3OV1VFzedWtj1tc/6evtJfiwgI+puJh1XlxGrCFKSRU4varYymxhHlrmpwtF+1RWfXtQmy1lhmdr62zkNij/UUggwode/HIkgCSYflTgPL38Qelec8V0MP/XtYuAZ2+s/Kx/JCDQPASb05mH/Z6+s91754qnd3/xcznu43ysH8GLPdH+CiJCIaUfiJOtqa8qtIlzajzx1s9vLWBInkreiMqnVLhCzuMyfXYnW/QATev1rQ4QeiwAivw7B4Hn/Vw6d8zYxfMED9Z+Rj2QEmosAE3pz8f+TV9djP31bYfx7H8t5DwFFHx5ltWfIRR4i0iV4PinDUQtUJ+9qzuZi5mSB15SypZnsFGM3hO5K3ZjQW3gDzGFonU7o9vnVPqjSS6UCSg47arKyz0u47BEtEYkeqNxadK18wlcx8rR3ie7zH54D5PwRRqBlEWBCb9mlAaKHvvEBGV15Kcp3g8TgrHAMEbUPLfJIqG5WxLa/efVlU3ddAq9xw+9Tj06ueIrBuxdLv7bwBpjD0DqZ0A2ZUwjKeJwyRgxGeSUoaevJbdc0AamlaX9qlI8zQER6TCqAyh8Db9nT/yV3+DPeJcSpY3OAmz/CCLQ0AkzoLbw80YPf+qiMfvl2VO6EjInIbVkaqVspr8tKvKKyH6G38IR4aPOOQMcTuhGHoTyS7KMTummjRl3TEsP7FQ2ESTfyvesRLDv781j77EuF2Dg+7wvDJ2QEmoAAE3oTQJ/rJaMdP/igrvzv36HyBwSRI3Qdu/4rAoqS3RWVps31jPy5pYZAJxM6raXxRJEb3SR/kgkemfdsP3Pr1aImRCoTo4IAJTUIL38cBoYv+CRGzvwH0ceW+VL7TnTyfJjQW3j1k50//5ty8aeXiXA7sjEgqeGKipEgBoLQEnqScbXmLTwRHtqCIdDphG6aC6bxJSLxlMzNL0hB0aenXoReBTNE+rkjMbzmKR/Cyhd8VIjTphZsYfjEjEATEGBCbwLoc72knvjVS6cm/vszIr67L5sAGeFBK+pkHkL7RWhqj6ozENQ2lV8diUAnEzo90JpOwa53uY2ZO8ucAurUeEVn6KkXYaaEAv2954iHBw+78Bli4KObOnLD8KSXNAJM6C28vLq06czpPf/9WR3etSGIQmTJg0gqcZQEJ0tQoCaPdNOqFY5p4Qnx0OYdgY4ndLqDubuYIfS0cjN2hE4thT1AZSsoewFK3nCU6T3+7t7hJ71PrHjLN+d9QfiEjEATEWBCbyL4f+7SWt/cXd59xefi0raXicoEMjqGn6Qd08g8iaFNXQ4H0f8clkv1951M6NU1dS53stjTR9tqBrzKwKS3ezGI48sgZbhe5LuO3J0ZPPGH8ogL3yHE+ZwUt1S/IB02Lyb0Fl/wcPKrfxVO3fxRXX64L4MCvCSGZ/yMWdvzXIYw3dX41ZEIdDqhz4oeUlLcbB26IXbzhgchfagkMu1RvZwHramrWg4Vb02c9J14ff+h571ODLz4+o7cQDzpJYUAE3qLL6fWvxrUEzd+pTi59ZkifBg5UbJWSJSzST8+ud/p5qWhlDLa7kbfXWskSQLPsypy/FqaCHQyoVefYykBjrLZIY2wjBbRvm54o7FED8EmZuUC74HRcigFA9D5I+7rXvbET+GQ0z8rxDnUuYhfjEBbIsCE3gbLFo9/7wUzE5s+Huj7V+fEGGRUBqIA8Ch+rqClXUYidHpRNjyRekrwbTBFHmKdCDCh08MsPdE6Qhf0fSBCT9sD2yQ5j74aaedB4+FKleWA0B+GDo4qZAZOucobfvzFYvSZO+tcDj6MEWgqAkzoTYV/bhfXemsm3nP9B0qTN75NJttl3puBpIChEZsh1Thrhe9P6PQeWer8WroIdDKh06qmNzAj/UqKcEToKZnXLnu1pM1F2Ulsxn0/lJQoa4GyWKbzAydv71p17mvF6Ot/tnR3Dc9sqSLAhN4mK6v1pq5wx+8/U5zafHEGO5FDBKFjq4LlpFyJvFMCr3W9t8kUeZh1INDphP5okNGzbvpKH2f3kT92vyTL3TduePtTBlCJRyDzx073jp77rzjs6HcIcVFYx7LwIYxAUxBgQm8K7PVdVOtf96rxOz8xPXbrxTra6XVlInjRDKRpwkLJvDZ2zq/OQaDTCb1K3pThXrv1XdMW0/OcCkJcoyLzeXfXI1vdpJ+EROwCCHJGuKmYZKBzqyPZfezm/CEXPlcMvvLeztlRPNN2RoAJvc1Wj9zv0fiW11X23vVuHT4wmNN7INWMmUUaO2dSb7NFbWC4TOiz4FVr0OktEyOnLmwkkayrhG4sdRKicYd5tvoTIiS9dwn4JMkIFBX9DCHoO32if825bxUr3/KVBpaJD2UEFgUBJvRFgXn+L6L3/u8pydTmT8vK5lNFvNtktJOFTqTOhD7/eLfqGTue0F3l+SyZu2x2Ym5jsruYuvucMAlxqXSDso3a3AOASoj4KYOOCkgUYp1FrIdQUQdHPUNn/SS74dkvEmJjqVX3Ao+LEWBCb+M9oPWm/uT+Kz6iowdepsK9eQ8leIKqbhIoMjvoVdsq1d24bO1uV2fr7gAAIABJREFUuvTkkrQu+6pATfXfqaVTC9L+W4Zd/M3cQkzo0lK1S3Kb3demVs0Q+j42vCK2piPS9102PBG75xtph1jFECKBpPe0j1LYi5I6WOf6T7q/55BzXyBGX/TbZq45X5sR+GMIMKG3+d7QWotk6scvLO7ZfJkX3rc6jzEhRNHEAk3Gb4bK12y2O3Vm80jf2ohg093KuSWNADY9ANDNjXqrpzdCF2WsSssKU+s7q8dFrks6jkm9Wduo0wl9H7KuWQQytGcfVGd/YSz09LWPELxCIm2NeqoNL833gQpJBEpxgKnyALyeDZWRNWd/HGvX/b0QF9GXhV+MQMsgwITeMkvR2EB06apDK3s2fyGZ3nZOIMaCwCsBuowwriDI5iBkYMvc6IesFBLaIHL2hCvzIRJPnFVTM5b0BugEOaxh77pimL+ZAt/GBs9H140AE3rd0NkuhfRdIPYXsemnbneyhEcKc0hMMyRibT9PxnoWU6VBzFRGMbz88dfl1j31WaLnwh31j4CPZATmFwEm9PnFs6lnI2s9Hv/me8qTt7xRVu4ezGLShgiphSQlCCXaWO2eEaQhSz2CJmUt6dzzhrxTlyQd4yx1kUAg3JfstT0nN4Zp6pKbhzGT50XE5OhISwUlrCVqO5CVgcpuVCbuQVYUkKgEnhRItCBtteZOoIlXt/F0Upkja548WmkrViL0wKrL+ZQFXzJ+KJkDQpFBMc5Becshs4dPDq99ymsweswPhLig0sSp8KUZAft9ZxyWHgJ64kdnlydu/GdRuufILIoeErLWKdlHW8PcycMKqaE03Yfopu5ubkT0+7jVKQU4JXTrYbSSm3T3I1EbJvVm7iAm9EbQl9ZKp8Q5SS732jSSAB51aqN4lScBWUGiFRJ6bsoKVJREodyNwDsS/SMbv+uvv+jlQpw53cho+FhGoFEEmNAbRbBFj9d7tw6hsPkLlfFN5/vqoV5PFo21QRZ4GJWh/BhB1geixN3UDNO7GDl9juKH2pE3WYHWWp9thuEeAkBNMbh9a7O2ARN6Y8gToROGRuo9rVF3+XSSflfRkBSuMiknpBOvENE3wTmoyoUssl1HQOWOub37sKe8AAOv2ixEbVZpY+PjoxmBA0GACf1A0GrDz+pd37k4nt7y/riwfZUvZ4RP4XNRQSzLEIIS5XwIc3fyqsRspTPNbcsRuXSfIY43gpkAOSHN7qFaXyb0Zm0NJvTGkDe7Wbg80dTl7rxQpP8uEACRAhKKXZD4TGJ2v7HmySPveZiaFlD+Cqjs0aWh1U97Hw458wtCnLS3sZHx0YzAgSPAhH7gmLXdEXr618eWxm/4girdfnJG7sgGXgFaJ0iiGD7F1ykerrPQxgyhWlwS1yBXPJE2pQt7EIratWb2I3RKouOUuGZuCCb0xtCvEroj9qrwDFnpxOG0xU39WgbGNE8Sm7dAkSlPoVxSyPV2IYk9E1sPM8uRGzn5qu61F7xYdF30YGOj46MZgQNDgAn9wPBq209rfaUfj9398fLkTS/y4l3LMjqG0BVIU65GdzMibIqJO3e7rBhiN652R/j0pzDlbml5G7kgzcFti0u7D5wJvbEVTG+AVoJmViY2LebwBZBUiNglhNcFSN+QOlCxbnhfIqqU4fsSCDIokHSsWo5s35kP9q9+0uux/IwrhDjWSjnyixFYYASY0BcY4FY7vZ754ZPLu7d9Sszcf3RW7vXgTwHxNJQOIL2s7Ssdk7CGBgIJJLGja9oqLnOa7mROtMOq0jGhN2udmdAbQ75K6DoLVc0HoSS5CoR72DWWuqLKEHqgdT3VXUgqTSBNnLs+EQqJCBCjF5EaxcCKJ3zRW3P2e0XPRVze1thS8dFzQIAJfQ4gLbWP6JnfrcDE1k+He+94EtQ9g5lsychkJnFkLHLpZWxgMSaXu7XIjSQmvdJGMMY8oWYwnVv21Ar7ggm9sVUw29r85KERmHI/TeJKomz6qldvkIbM038lsw2RzPaXSAm9mjhqAlZ5yOwRUNn112cPuvA1GHnJDZww19h68dF/GgEm9A7eIXrP5a+LJm56i47vPyzGLnjeNDyvAkkuReVDihxApTtkmRuLZLZmnRLhTMJQba/KDsayWVNnQm8M+Sqhg3JIfFeLTiGlinl4reaA0n5PJWMphu7unCQuRw8EaQ071a5TdrwwD7oBypEPmR9FmBud6DnorA+i9wn/KXov2N3YqPloRuDREWBC7/CdoSf/90Q9dfsnpkvbTpNyV873JoCkaLLfA5kHorQunax1K0RjEueM7UJWC9ehN3MLMaE3hv5sCgiVX9rboTIWuiPztO2Ba8dqiNqVt6XpJtZzZYndqChTzokR+rHp8mUKYXX3oYQVyA89+YfZwy54h8g99fbGRs5HMwKPRIAJnXcFtN7ao8Zv/kBxZutzk3j7QYGcRpBEpkbdR9aRNhnqlOFrNd+t99FZLbX62IznoiLAhL4AcDvC3qdlUZXQXWMXF3pKvfAmzu7K3cxHVd5+P0hh0ZcoFyvwuoZQ8UcRBofeOXTwBe/B6LofCXFeYQFmwKfsUASY0Dt04R9t2rrw/WeV9m67NCre+zgvmUAGZfhaQKiaHhSut3SaBrdPswvGctERYEJvDPLaiJGxrtPT1ZRjms+YOLt1p1uD3LZlpdh5aqBX1RjIBU9VI6QJLxOE5RCZLurkJlFMKIq1HIl/VDI4uvEzGD7502LgGdsbmwUfzQjM7kPGghGoIqBL1x0a7dnygaR811MzcveQiMYgqESneufzjHWedrISJsudX81CgAm9fuRntdvJM27bsFb7pZvSTOter93hNjfUdXGhBDrjoqcDXfmnG05K/EopeFmJKFYmv5SqSbTykQ0GMB33IRg97Ve54ZPeg5HRX3H3tvrXko9kQuc98EcQ0HpTgD33XFKZ3voqHd53jCcn4ekQQimX6evarpo4o80KqibBV5t9zKrHMeUv3FZjQq8f20cQuklmq6lMrwbJXdycLlWt0kzbCFO3QuqRYDUZ0u8BWfvpK1WVo1xT+rpkSHFOaSQyh0KwBip/5M6+wdP+UQ4//sui75w99c+Ij+x0BNjl3uk74E/MX5d+dfbUzt++Q+r7nijVzkwGRXixhiA/Y+wbKczYiyAC6k6lgJiy48k9L6wAh7nD0Q3P6WS7a6VWvXFbsmxsQzuQCb0h+KqOJ0vAsw+htp86vffIssyUtI3scfUOSh3ubFLc/q/9C0Gqrn3jvu9CiD5EudXIjJz49WDVuZeJnotuaWxWfHSnIsCE3qkrP8d5a33dcLx369+Up7a9QFR2HJzRRQQ6MQlzple0J4wr0eT00vtkwqQ1Pa5G17otLbGnDszZm+IcB8Ife1QEmNDbd2OY74D5jnio+AOIswfB79lwQ3bkxE9jxdnfEWIDJ8y17/I2ZeRM6E2Bvb0uSn3WMfHTF0TFu18fl+86HfEO+KKIQEqrb02WhoygQIIbZLmTeRMBygnTVPtO285Wxmtp2q4KSI7BN7QZmNAbgq/pB5vIu0m6yyPWXYhkF2TX2krP6MbPY9mpnxBdz32g6YPkAbQNAkzobbNUzR+onvnVBjVz6xtLhTueneidA3lRQhAReSvTN5rqd8m9SFxNIjRGdY5+V61VJ4GaVITDZQu7JhjNn117joAJvT3XjUZtXPGUKJfQM7A0bVrjJEEouiG6D4XoOe7H+WXnf1Ise/GV7TtLHvliIsCEvphoL4FrUc06prZdPF249a+Swj3r+5MJCLLGqVubEEioVh0RhBDwaHcl1ASGSJ0mTyTusuRlZLtWUftWrmOve2cwodcNXUscSA4tknwg17v5vhCpa40okFDZ5YgyR97ZN/KE/5SrL/w0t2RtiSVr6UEwobf08rTu4KKZy5+UlG57sxq/5YKMmrKd2ky2T2QJXVlxWLLSBbF5NVnIZgVDhC4rmJLnuJ96vSvNhF4vcs0/rio7m+bdmUQU+rZoxJ5tclhGHxLvKOR7z/uv3MpzPyyGztnS/JHzCFoVASb0Vl2ZNhiX1psOV7uvfznKf3h5FO5apZMZeDqBZyzyxLgRtWnu4l5UqysqriWrK33jLPeGVpoJvSH4mnqw8UxF1LlQAj495NL3Q1FFGyi1hHjeDwLMhBmoYA3yIyddk1n2lK+IZS/7clMHzhdvWQSY0Ft2adpjYFp/y8OMfm5pYttbVOXhU31VMApzArGptSUzPC1NM/3VReRc8K6Odz/hjvaYdeuMkgm9ddbiQEdiRWxSD1UCRRmmVPpGz8CuEYwmju+SiEUGe8N+qNxjJ4dWPOHr3vAT3i96z9h1oNfkzy9tBJjQl/b6LtrsdOGqE6K9t78uKW57sVS7coGagdChKW2jmnRBGfEUP08kNFnv1M3KCG4Ro7PLvd6FYkKvF7kWOS6VjjX6TETutl2xKR9xXwtKnlM+EHs5lHQvErEaA/2nXO4vP/sjYtmLrmqRmfAwWgABJvQWWISlMgStNw9i7IYXJcW736LKDxyGaAJBVkPHZSQJWesePJk3HkatK1A6hDQCNEzo9e4BJvR6kWv+cYao3danNqzU4RAJdTckZTqy1ulh2NK7aeAmgZD0m+Iu5INDEOSPu130nvktrLvkvdxnvfnr2QojYEJvhVVYYmPQ01eeradueWdx5tbzMno3PBStgpbWtm803bI8z2TCy2RWNnaJwbAo02FCXxSYF+Qi9F2IHaF7CvCJsenHSCv6toWrDJF4OhVdtNpNyoOnJJQYQJg5JM4Onvwjb90FbxO5p/1hQQbKJ20bBJjQ22ap2mug1OQFM7e+vDh28xszYryPSF2giITc8KYWPQchPHhJAm7wUv/aMqHXj12zjzQWerUNMVnoVBdiCXuW0COrE08VbabfOmk50FMA5agA5SQPr/swlINjNvUe9sTPipHXfrXZ8+LrNw8BJvTmYb/kr6z11gzGtj9Nle54b1i69TidPAzfU5BSIkkCqDhBxiMLndu31LsZmNDrRa4VjpNQVjTZSSI7y9z8m9zuCTxBHV0EQG0SFAk1EbP7Vl6OqkmyGZTDClT3IApi5e7uZWf/d9eh571BiKcXW2GGPIbFRYAJfXHx7sir6emr1yfTN7yrXLr7L6gdq4cSpKCyNrpBMZk3simY0BtBr9nHUnc363NP27DqlOCpGoSaF2nAJ0I3CXPaJJRSqIrUmM03h75HeYFCqKH8jKlZl7nH/rrvoKf/jRi+6LfNniFff3ERYEJfXLw79mpabxvG2B0vDKe2vE+V7x7KyochgggIPWiQxcGvehBgQq8HtdY5pnoDrnZ3S93wzm53z7vGjjf/k0jIMjdkLkDKy3Go0ZvPQSuJMPQRyyGga9093SvP+KpY+973ts5seSQLjQAT+kIjzOevIqC1lhj/yWm6eOtH4uKdj1fJTgTSZPmkdyt7n6qx2m2DttltmnZss33Y6bNOE/6P4PzH7f+avtdtvEZM6G28eK4vy+wXxG11iq27N6nak/qo01eC/m7y5VLypxw67UNqHyLSRtBJCuqAKBH7fZjBilLPyif+LLv8Ka8SfU/nPuvtvVXmNHom9DnBxB+aTwR08ZrV5an7LilObXl7j3eXp6JdELoLgZ83HdqSuGxuTB4pbFDvdWOakKIWjSKBIr14GZohySQDUUP41g9Jqlv0J8UhZ58HZnuvixr9eFMUNJ/TW9RzMaEvKtxNv9gjeqtTqRt9N0yyHDVIiqClMtKxMQKEWIls/oQt3cvP/4g46K+/3vQJ8AAWFAEm9AWFl0/+xxDQelOA6d1P27vzl5/py06uDitFlEt7kc8IZHwJxNTwJQESInJXq240aBS0SCBSy155lpxTTk7/dBZ8SuizlE1xS2Pbu6G1L5lb5wVp5dO93MiLmTkRRsq2vDNzlboMVHajMnEPsqKARCXwpEBC7WurtiDv1XZDwGrBp+EqaoxE5W2xlXVIrXyZQyVaBpE5frx39PE/EIe/8xXtNk8e79wRYEKfO1b8yQVAQJc3HV586HeXVcJbntuVGYOIpuAlETyZMy1ZLSsRVQVVzjYNXyyLQTn3vPmnucHVDNJZ5/u+ReckEqQ/pY3ft7GwDRP6AmzKNjnlPvudXPNVGWV6wCWBGokoVvDy3aggQDEZjHMjJ/6m/6Anv0b0vfy2NpkmD/MAEGBCPwCw+KMLgwC1ZFW7rv2L6cnNn+qSE7lATSEJS/A8aYpv6T9lrHTq3maJWxiJrQTKI4vdWalpslC14QsR9r4qdKQxb8i8+tnMIz6zMLNcmLMyoS8Mru1yVkPq7i6eZsqbB1SdNTXrwqPEuRJiL0EkA5SxAsiuf2hk+ZO/7K1929+3yzx5nHNDgAl9bjjxpxYBAb3316eVd17zrzLZvj4TjCMKx+B5nrXCDWl7kAioUsdJZCZQAcUMY2t17+M99y1RG23sWfezeSCgot5qpjCRfvu+mNDbd+3mY+QmsuTEaWgvpDF2L/VWCQkVKmOwy6xEWecxHXUhkz28kh84+fLsyuf8pRg8Z3I+xsLnaD4CTOjNXwMeQQ0CWt84gIc2/e3U5I1vyfqTHnQBkBVAR9TaBT7IFU/JcuRSpNpbUp6zbSdrCd1a5qlwh7QKW/SOUeNKLfQ0aa59KZ0JvbO/Pume1yZnwhK6C6Hb8BM967owO3VuS0hRNpNHpHOYKo+ofP85t/auOfcdYuXzf9rZSC6N2TOhL411XFKz0Fp7mLziGXt3Xfv5wL93VOpdkEnF0rOmJLiME9oQxjqfLWEjGKzudZr4biwW8w9L6obQjfYsufNJhYuOJ5O/PV9M6O25bvM16llCn61fJzW56o2dHFQVl1viE7NLKBWbUJXMDKBSWY2yOLiQW3PiV7rWfej18zUuPk9zEGBCbw7ufNU5IKD1bw+Z2X7llyUeeKJM9giZlGytLVzZGRGzyY5zr1R1i5pauB8y25XxSxKh22xwyoo3WeEmGE8WPlvoc1gO/kgLIpA+r9oH19nvgbXS1WxBu+2IZEvcqLWb04fX6ENJ9aOSW51kR068unvl2a8W/Rfd1YJT5SHNAQEm9DmAxB9pHgJab89h7LqLp8dv+KSId2RzfgU+YuikAh0nkEFgdK5NrNwkylE9rqnVAvwECZkn5JJ35VmGzM2PTbJrZzI3/gguW2ve5myFK7s7eEroFJSyJYxGUw7C7P3q9gdU1n1HYuOhiqDgZ3IIkwymw27td6/fMXDouR8QK//2860wPR7DgSHAhH5gePGnm4SALv7P6aVdN/97ZfoPR+bkNHIBxc1DqFIRklyJVOaWuNodstpNL2kSobGErl3duq1ZJwvfN8S+fxZ8k6ZX92WZ0OuGbmkcmBJ61UtF5Z0uTwSJEWiiV7XETVHuCbne7fdDBzGiyEk3+VTa1o+KOEx1jz71a5mjn/p6IU6bWhpAdcYsmNA7Y52XxCz11KaRZOaGT1SmbnuRjHf5WX8aQs5YCzz2oBMJIboAGVh9zCQEfCe2YRLnZgWzrWSs++E69CWxPzpyEukdXPmznducWhwF0vepVacckhqpZJt7QloOgOcEGVUsUIh7oPOHwe977E1dq857k1j2oqs6Ets2nDQTehsuWicP2ejBT3zj+ZWxbZ9OwnuHs7lJodQMkJCWtQcpKGGORK6NQ9rG2AWRuo2rpy8bNidrfd869XbDli30dluxeR5vldDpIZZS2GMoGc1KHu+XHpKmixhiJw+Vim03VnpR6Iq89dksojiLiWIvMj0nVgZWn/0BrH3CR4U4KZrn0fPp5hkBJvR5BpRPtzgI6OkrjommtnyhXLr1dKixwBcKWU9DJiGSStm400183cQTqdVkTUc3Z5nYkbZvQpwZPcfQF2fDtepV3B1ckKa7SRK1HqlU+rXa5iD9nNvuMqGQk5ML1sr0R4hdDwQpyLEVQCGLMOmCzqxGbvjEH4rVZ7xFDFz8h1aFgsdVU93AYDAC7YaA1jd3q7Hf/W15+g9vLJd2dmdkAVmvDE8VIRWVpJGlTjFDal6RtfFyQ+ZkuaeJckzo7bbuPN5HIvBohRqmOjPd8zWmG+WLknVukucMqSdIPA3tubZuCvBNYQh9fxQikUPFH4XoXv9Q97InvxUHnfVdttZbcxeyhd6a68KjOgAE9OTPnlyYuO2zUekPh2W8PX4+mIHQRSAKAVOzTj+U3Us3LxKTId8iWTEJJ8Vxc5YD2Gmt+FErKFO9kVf7GTiL3TRsmQ010QxEVfaYvgUeJBG3iE1nA6ut7AGRQhJqUMNDkROIEGA67oPIH4fB1Y+/DH0bPyr6zx9vRUQ6eUxM6J28+kto7rpww6pw780fK89sfaavd3T7YhJUt+4bK51ubml2r23qQrcyW7KWfgVqLPX9boCzcXb72X0U6Zpcw84u9yW0iQ94Ki4HxIRdHGk/CqHXBpaMqJLRXzAOdijpQVETJK0R0PZ2Iopmp2c8wNOIK1aBTmSzKKsRhFiD3sHHXZNZefrbMfQXvxWiyV+CA8Zt6R7AhL5017bjZkYtWdXEPX81teeWd4vo3mU9maLwqHVoEsGk8jpRTG3qz61lorU2N0NrxThrJq3ddQjamnXXpnWfRDqy9tMHg+bAzYTeHNxb56rWQjcPmumg0oTPVCTxUQdrj0m1340bPj2H+3s1/u6OT4y8bA4J8kh0NzV6KQ2tf9absfxxXxPivELrYNK5I2FC79y1X7Iz14VfnJxM3Pqx0tRdpwQYy/tyGp4IXdmab60QeKbZizapvebWNpsgt0/SnGvsYpLr0lI399Fq5nzz4vBM6Et2G7fsxIRTZ6xgAHH+WGSGTv1ysOzcj4iBC+5u2UF3yMCY0DtkoTttmnpy8yBKt11aKtz8UqHvHxFqD3xRgUeud1PWZuOFlChnLRESmyGi9mctnSpoadzdZpXTy/zpVOeaiS0TejPR78xrp4SeIItC0oU4uwp+/7p7+1Y88Q0YeeLlQhwbdiYyzZ81E3rz14BHsIAI6PHvvigq3/GusHjnUSLeE2RMGlDiSnaI0Mn9boWwTWjRNXIxNb2pzzGNOVISnWvVaomdmr3Q55pXy86EvoCbh0/9JxGgDHrpZVBUPorIwe89Xg2OPvs96D/rX0Tvhl0M3+IjwIS++JjzFRcZAV2+al2yd9v74tIdFyC8r18mBQSk+y4yhtCtDGYFwvSatERtNK8pO96UvNksYC0jaEGiHSE0BR21gFROyGaR55Rejgm9ScDzZQ0CgjJQhI9YC1REN0T3GgT9G36aHTj7MrH8lVczTIuLABP64uLNV2sSAlpv6sLeWy+Jpm57XTT9wMG+ChGY9qmJJXJD1LNNXIwQjXHPE6mnX5Oadqsucc4mzLGF3qRl5cs2EQEToqIUFJNaIqA8gZJQKKp+ZHofX+offcolWPXU7wixjvXgF2mdmNAXCWi+TGsgoMd/eYGevv2tYXjP6Z56OO+pMQiUqUbHZLJbL7uuutbNqA1pB7ZDW9qW0jwE6KbrzLGF3hr7qhNHYXNOXN8E+nugjeJcMaJn3D54XUega80TPovchi+I4b/c2okYLfacmdAXG3G+XtMR0FPXDcfFWy+Ni3e82KvctcwXM+bGZFpPGk86tZasOPEZ61oXKmfc70Zi07C6bWyRlrs1a1JM6M1Cnq9rGhzFpBNLpJ4gUhFkBvDo+VcBYZJFBcuRHz71tmDFhX8jlr38R4zawiLAhL6w+PLZWxQB0+Sl+JNXlh68+nWB2HW80DFUUgFUBE+SUIdzxVPXNlemY9U1bPtVLT1Qtq/Wphl702bJhN406Dv+woLyUOiHvgEeNTyMzVeE0ktIOpY8WkplIPMrsScaDkfWXfharHrPv7EQzcJtHSb0hcOWz9wGCOjiz8/Q47e8sTB9/4WenO4iPXgkRcgkgqAuFYbEjaaWC6WT+IxEQp2qtIYnXblbk+bKhN4k4Pmy9muRUIc3Be0pxKbJodVqIEL33NcmoQrP7CDQ+xj4I8+4RBz85s8xfAuDABP6wuDKZ20jBLTePIixba8rz2y7WFfuPVQmY8iajHe6YVGxutPTNA0stOH4xKnMBYoU5Jo3WSb05mHf6Veu9lo3+u/WTxULH8p5tMhSD7REUq7Ay2VRUv0o5zbowaOe/Rwx8tofdDp+CzF/JvSFQJXP2ZYI6KnvP6sysfUSVB44N0hIC75gsndBndtc4woi89ijdpMCvpQwraeZ0NtyvXnQjSNgXOxpfwNKN4GPRHiIpTRNYEjzwSdmr1BHtyxmxDIEQ2fd17XuFRtF17kPNj4CPkMtAkzovB8YgRoEdGXT0Zi49bWVwpaX6OjBgZw3A6iKzXQX5Gb3kFD/aBHDN2RvBWma9WILvVnI83WJzE1ECoBPz7xGRJE0GzxEMoNExtC6ggylnYSAnxGoII+pcC2WHfSSz4ij/vYNjOL8IsCEPr948tmWAAJa35nF+A0vrZTueG1YvPuxUu2FhwgZaugCDyqJICmNl9zuTW4/yoS+BDZcm04hJXQafuAiVGYq5MUSgSkBFTJGXNHIkZwDWfCeh6nyEJR/SjJ46sWHiK7nPtCm02/JYTOht+Sy8KBaAQFduvLMmYktr00q97xARA+KjJhBTsVAooEksH2jZeLasDZnxEzozcGdr2oRMN3aNEkgZ60wk4z26eAmVB4IIyCngFgBmQAV3YXpeAgj6y76Bxz0kUs5633+dhMT+vxhyWdagghofcOycO+2i4tTWy6R4QNrulUBXhICkatH9yJAOrnYWu13Z7mbt4ySHGnG18bb58dPz4S+BDddG00pzWqXVLcGyi2hpBJrpdPXQoQBEOSBaMpmzeUCJNpDxcuglHnc3cOn/HIdE/r8LTgT+vxhyWdawgjEhZ89rTy19U26cNe5+WQvvCixsXW/bAtvKcbuanKtNjzJZZFULLVo9U27ViNcYzAilTkbdDTiHA28mNAbAI8PbQgBInMq4aR97Jm9bB9eqYOhovh/lHRiAAAgAElEQVR52iZBkyOLnmYd3bgqkUmsT4bP/rc+IU4qNjQQPriKABM6bwZGYI4I6Mpvj4knt7yiMnH7JV40kc1ly1DxBISMIEjz3SQF2c5t5Iq3GfKuRSsRurn5GUelEa5hQp8j8PyxlkSA3O2m5wFi839jgWv78KqoNt1II8eG6KkufZ+XkJgQx2DwcR/YKPqe89uWnGAbDooJvQ0XjYfcPAS03p7D2PXPrxS2vkurB47S8W74umLsb+NpdFaKHSFlxdu/0c2t9jVfmfFsoTdvL/CVZxFwj7E2y12Tve4eXkkiWUTpv9yXwWrAT+pj0XX0Oy7JrX4hC83M02ZiQp8nIPk0nYWAjn6wsTBx2yvV1AMv89VeKVCAJ0J4CCEoaY7c68q62a3ue9pLPSX9wAHWWCydCb2z9l0rzbb6UEoRJ1KJS9nEJcmZcBJZ6SKE8pwL3j3wesoSenD4my7tPeSlH2qlebXzWJjQ23n1eOxNRUDr64bjh7e/TJfvf08c39sPPAxPTJkSN5lkIaiDW2LLd6iHuo2bkwuSrBgidIpBEtnXT+pM6E3dAh198VQR2XigpI9EKmjqg6ABj/a/kYWl7LgyYt8SuqJolPIhtcCUOha5de96W9fBz/9ERwM5j5NnQp9HMPlUnYeA1lpg/KdPimeuf0cc3nmuxA5IXYanchAiD8SWuCEq0BRrp4Q4JvTO2yhLcMa24WDanEVaIRlrlMNLAteZkAg9NI1bqDGbTQL14GuBaX0MBja8/2li6Jk/WYLwNGVKTOhNgZ0vupQQ0HprJr73B1dH4W2nemIHPFGCiDOQOg8kOduhTVA5T2RbsxqTxhG9yaRjC30p7YdOmUtttzVQcxaPEuFsWqhHBR7Uapi2togRe/avStB7npGDndLrMXjWpwaFOGeyUzBb6HkyoS80wnz+JY2A1rf14sHr/n16+sanQd2fyWWmECAEEutuB3Km3aoVfSdCd+m+OutwYUJf0htkCU/OWNuK6s+NH9253O2EDaG7nkbm+ZVK1Sgr3qgrZgCRxTSOHRt+/JtGhbiIYlH8mgcEmNDnAUQ+RWcioPWNA4XtP/uar++7QKs9QqoZ+LpsM3pJOYvENowGPNWlV2ybSfqhRDn6PaR1wbOF3pkbqO1nTQ1YbB06/aSSCmmFGskzVOPstOWphFMSsXchxnJkR5/8n95RX/pLIdKn3LYHpOkTYEJv+hLwANoRAT113XBl8ppvqHDLkyR2CqEobk4CG2SGBLNCM6ZshyyY0JG57RfNhN6Oq85j3h8BKk+TRlfBvSjj3TVtoXdIjoG87Oa5lbZ+VmJ8Og+ZPQEDj7v4WNF78a2M6vwhwIQ+f1jymToEAb33miE98btvFaY3PzHI7BYS00bmklq3gNyJ8GyyEJkkRvXVZv9adztluNvEIPpTcAy9Q3bN0pumEZZxcsZe1b1OlRsUK7d2ukcPt+SOrySQFIXKZDBWHMXAyHN/md3wzPOEOKe2rcvSA2mRZ8SEvsiA8+XaGwFduGGVHvvdt4qTN27szkyKRE9DIIQ06b0mHcgW5JKiDP149D61W62dt9V2t3W89SfEmaOFtY6o5j09Fz08KKdKZ5wDugxUdqMycQ+yooBEJfCkQKKFsa74xQjUg0AtoVfd60bmmJ5nbTWHR//WComIof0sJqMeBP0nY+CQVz5GDD9vaz3X5WP+OAJM6Lw7GIE5IqBLvzq4vOu3345n7jylSxYgScudOq4ZZiVDg35ckpv5ZpGohm3KUvsS+7zBhD5H+PljLYhA+qBKhG6/B755eE0fFBNqwJbJm3aqoRhG0V+LkTVPeYN30Ds/04LTafshMaG3/RLyBBYDAV268pDK7lu+W56+6YSsHBc5cqFHCkJ2WYvclKNRwNAluZGOu3Gok5611YQV2jZjsVxvv3r7S8Ie6FzYQj9QxPjz84lAqhaXUCTJnJgS5VykKY2ny25MlLuhu47G8NrzviAPuuBtQmwozOc4+FwWASZ03gmMwJ9BQFeuOTrc/ZtvFvbeenx3ZkZkRAlxpQzfJ612Gwsnt7q9uVFZDhG8VYjTpuOaU4hzKnG23MepaJkGFvW/mNDrx46PbAwBu49p7wOJF1fDSvS+acaiFRAAke5HJTga2ZGz/zFY8ZwPir5Txxq7Mh/9xxBgQue9wQj8CQR05erjKw9d+1+V6S3r85kZQVrtmmLmZKGbVmr0FaJMX/unJv12skwodmg6RlLtTg2hm3g3iWtQ6q/NKGJC5y1YPwKzHfwe7RxErmniWu2fxpojwqXNR6fYLzs9PVfVlb7fyY1bnbxNTimOCN3kxVHuhvYgVA6aFBlEFipzUNR7+NMuweipXxfiPLbM61/sP3skE/qfhYg/0KkI6PDKkwrbr/zPHB4+yksmhOl/TlaJjKGoDzqFzxN/357m1f7mtbFzkya0jzss7YPeCJnTurCF3qm703qDqsXfLqv8EV38jPfISLQ5fyw9YDrMDKFTWaV9tiS3uY2J24cEI+FKRJ8oSNrrnhVjj9xzAHmobDtBDSJ++musPCSiB0ouQ+itQm5ow+W51WdcIgZecHcnr9RizZ0JfbGQ5uu0FQK6ePkphZ03/2cQ3b0uoyYEYsraTaxFTu5FPyQTxajBpeTcjAkyoTcD9da9Zhr2qY4wJfQ0EbPK+I7M0w+6ErRE2Cx1SwwKfkC1ZhFUlNgqTHqeNYUcAlpreIGHUimBFAKZ3BAqSTdmwgHkh46/pfugM96AkQ3XCbGx1LqILa2RMaEvrfXk2cwDAnrqBxtLU5u/Ek5vP7JLxAhUBChymydWIEYm1k1OiW8qLT+bhwvXcQom9DpAWyqHpEZ3Op9qprm1svd1sT+yPLE2Q912ALTucqtoqI2UaxQrBAHgGyvfVUY61tAREEVApi+PSPRgT7ELyK/fvfzQJ77DW3X6d4Q4c3qpQN0u82BCb5eV4nEuCgK69D/nlnZc+8WkfPfhebLCYw1p4oTkmowgPKf4ZuLgjQvDNDopJvRGEWzj4/8IoafZ5qm4yx+bYbV6klzrikJHZKa7T0squYzpEdZ2QNVWJ8lksHtE+vRZSuwcxHgx0EluZWXZEWd+CAed+Vkhns3NVpq0rZjQmwQ8X7b1ENCT33tyOHnDF1G651BPT8PTMZRpJCFt61OSgzO15mSs56yrnfqcN5TW1hgOTOiN4dfORzupg/2m4JTaTI9yZ5U/2l0+1Vmno13inOkhlIobpu1S/IAC41BaQXs+tAwQK3K3C8RqRCfy6GTg4DO+hFWP+6DoPv/hdsZzKYydCX0prCLPoWEEdOF7zyzuuuHTonDXwXmPQn4aCGMgyBgZy8SzrU9NLrvyIRPbXIUJvWHo+QR1ImC7maVZ7jb5zbYodTLDLi5uTu8kWs1fa7qgGcvbHJe66CU80ksgQk+z4OkgL0Asu1DSvYjQh0x+RRh0r/tF9tCnvl30Pov12Otcw/k+jAl9vhHl87UdAvHU955Z3nv9P3nl+9ZmkykIkreKszZG7kVIvIohdJOprrKQmgg9MORu+5s3mqteP2RsodePXbsfaevAqUVvGhKingGJI/RHzi7NhzMyxU47IXXL2xI0SmVPu6dF9q9OUZi4vayWI/LXVYL+E2/Orzzt78Toi3/R7hgutfEzoS+1FeX5zBkBrbXE3h/+n9LULR8Pi7evyWISOYqVU+NmssApVuiVoLwQCWKbZESEnpAVQ3c669JsVO1tzgN+lA8yoTeCXpsfq30IQ+iuAZBIrIb6rBCh/ZWz5A1pp4FzU39u4+T2M2kXQBswN/FzZ+FH6AbkyjDTd8zd/rIzPyRWvePrbY7ckh0+E/qSXVqe2J9CQOtveZj2/6Kw69oPB3r3SqFKEEkFEjGkqc01gtRQSFyXNDqb7f9MN0Vh6m+tK7N59jnXoXf2Lq+tQ4+NaNs+ryqRexCaQkRplnqaC2Ky4YAkofJySJvnafuWQyLxBlFMhiKZO2Ksd3TjF+Uh517GJWitveOY0Ft7fXh0C4CA1psCTN79ksLE5g/l4vtXeHrKSLFSXa2ipDcRGVe7oFpbU9tDJD7b7lQYWS03MCb0BVghPuWBIGC26KPcySnBTSWk2uZDkgarqdSgbDiyyimE5HI8qeOvBEJF70pIfwiJN5yU9cqJkTVnfBNDx75P9L1oz4GMiT/bHASY0JuDO1+1SQgYMh/7wyuLe296P6J7Rrp0wQnGZGwfZxlCeRVoKlETAjLOQOjA3BSrWe10U3TqG820zo3Bxe1Tm7STWuOy1ba87k4+2/WMuJvKygKj7mZk3CjTjVzy6QNAunmJ+D1SiusjixwVuXa8e/nGK7pXbny36H/6na0xUx7FXBBgQp8LSvyZJYGA1lszmLj9VYWxm96H6K7h7qAAhKEj58DpasRIqNbctEMFvCRrCJ0y26smjSH0VNq1uZTOhL4ktmZdk0jJPBWQScl8n3i4eerTUGSVu5g4qb25nirQpPcqe1HR3Qjl6GR++ISbswed+XHRd/GP6xoUH9RUBJjQmwo/X3yxENB6e049/NvXFqe3/L2PB/uyYi9EXHRZwk45w9MmqciU8ZgOKxKemo2b1441jVdWY+mLNZH9rsOE3iTgW+Cy+xC6kpDUFMVksKeDc7Fyj5LcbK6nKWuTAkrQA2oXdNyLUI0W/KFjb+lZs/HzYuQ1/9ECU+Mh1IkAE3qdwPFh7YOA1tfkseve1xWntr5bR/f05eQUqGuayf4xsUVh5Vypftc1pkj7OpuQo7FyXJzSWOZE/Hb+5vdNNNKZ0NtnHy7ESKvyrSYkRCLrNZ4kSaVnypSeEc/HkAhVHrHOQaAHkRgOc91H3ta98uRviVVv/dBCjI/PubgIMKEvLt58tUVGQOtNXWr3bW8s7d18qY+Hu7KYAqKSVdPwqREFSbkSYdONkO58afc06o62f425gDIlPapaHuTt321tsefHMfRFRry1Lpc+WBJvmxI22sfm4ZPIPEZCwjHSdlKLdDcSvRyev0Jn82tu0/l1v8iuf/67hNjALU1ba1nrHg0Tet3Q8YGtjoDWt/XGO37/pqR827tUeXveV+MIKNBIJrUR0Ujs/Y9ckYqygalzms12l8bsriF046601nlK6OZUabJck8BgC71JwM/TZVPvDvURN6oGrg1qenrjCKrxAqVl5FXL3H3Q9iV3/U9dJrspQTOWeQ6RGESM5RCZw+/qGTjmN97IY94thl94/zxNg0/TIggwobfIQvAw5hcBrbf2YOz37yjtvv6dgdjt+7oEuEQ3mxxEQjF0C01reWtEN9KbZE2Fea1X3d5UrahMM1unmns9W+jzu3EW8WyzEqwkuyqNFZ04YRgSKaTfmy5nrtEfbTmjZ+QsbpJLCDRlsdObtBljaCeAZBTepECIAZSTESj/iJ35wROuyq868WNi4HmbFnGafKlFRIAJfRHB5kstDgJaX9uH3Xe8szBx099k9Q7PJze7aX9KL+oUZZWwbHZwjTjH4gxvXq/ChD6vcC7qyR6N0O1DpjK6Rub3VGmWqr3R3yihjeRdSbqddGGSLFSFMtgTyDxJFQuEkUKo89D+csRi9WRucMPV+dGTvy1GLv7aok6QL7boCDChLzrkfMGFREDrGwfiXTdcWp7e9lZEO5ATIaQuO/W31I1u3ZPkQm+uzlvjSDChN45ha5zBVlO4hI6qB4i6nJEeAkxWunXLk3ohxcdpF1NPcj8ryFRHWAYqCf17BWTXsWEoj/pF76ozfixGX/z51pgjj2KhEWBCX2iE+fyLhoDWmwcxfsN7psZuepOIdyCXjYAoMbdBYX7ISldO29o2tbAWURPT1BtEhwm9QQCbfHg1Fu7yMSyhpy8ywTXoP+VS1U05pdmzCaSnIT2BKNRIpIDMDCH2VpJ7/aqekdP/Hw4+9ANCXJS6ppo8U778YiDAhL4YKPM1FhwBra8bruy44QOVqS1/HWAPfFk22uxCuPiii3mTTvtsl6q0qQUT+oIvEF/g0RFwd2CbC1cb/jFp6+at2G1PKTxrrSv3UCo1irGGlyep1rVIvCOuyw+d9Bt/9HEfFT1P2smQdx4CTOidt+ZLbsZ65trRpLDlA4W9W14l4weQC8rwlEKSJJAytcIteROZG9U3Mo0M2VP9ORP6ktsU7TKh9A5cswVrt6OpwHA9y6n5n9ICSSyhVRax1wPRPYLEW3lnV+8JP/NWnvY50fe829pl6jzO+UeACX3+MeUzLiICevo3y9XMrR8tzNz6MrLMAzkDhFRnLuFRnblKoE3m8GybSKNxbdKAafuTmEz7vtjl3r5rRyOnB0xTBknEnXZLc03QzD41cXVqFqRNMju1VIl1H6S/Bjq/bo8cOvH7uYHHfEsMPJd7k7f3VpiX0TOhzwuMfJJmIKD1TavLD/z6MhHe8+I4ehgC08gK6hdluqy4kjJyXZIVTpnArtSM1OFc/2cTk2zjFxN6Gy8e7VTlWeVBz1ZdGE0YF0/3iMFNC9TElKvFfh4VOYwks7rY1feY/xsMnHCFWPGab7QzAjz2+UWACX1+8eSzLRICuvSbtZVdN35clbY8L8C4JW3T/DGBcHFy6ltuFeCI1CPbNtKQu4DW1DOStK+Z0BdpyTr6Mib2bfqkzO43k9+hclC6AvgxohgIAmkapnjIQtEbXgz4OdObPPIPgux57Ddzy0/8OZYd8Q0hzil3NKg8+UcgwITOm6LtENCTvzkchS2fVKU7niGieyFEEcqUoaUFuzarXVKxLslhmqJdS+ZU7mPapLoyoGZrsTcKPlvojSK4eMfv/+xID5yCfO3U/iyrgSRBonxEMWWv5wGvC4nIQQfL4Hcf9vNM/4b/Qd8Z/y4Gz5lcvFHzldoJASb0dlotHit0+ap1evfWT4czt52f0XsgxJSNMQrfxiFTYQ5XniaSjJXXSgOUxrWpEXvW/W67qbUvsEzorb92jyDy2sx2+juld9B2zARQvkbk+ShRO1OsQK7vxN/3DJ34fTl84jdF/gnbW3+2PMJmIsCE3kz0+doHhICevnp9tPeGz8TFu58YRLvhixkTXzSxcUHJRTZ53dSap4RuBK0pq53qzkkljrg9gfIqriY9jbUf0FBa5sNM6C2zFI86kFoyN/owzvVuPqzIKnf5mYkHZPsxFQGqawVk9yH354Y2fDUzcNq3Rc8zN7f2LHl0rYIAE3qrrASP408ioGeuOa4yuemf48LmM309hiyZNdT+1Oq3Wh1rs5ut650IPSV2E0dXWYB0r+HbrHdZNIly1UziNsWfCb21Fy4l9JTHa2PpaUdeIYEydfnLH4qKOLKQHzj5X4KB076HZeddIwTFifjFCMwNASb0ueHEn2oiAnry2sclkzd8Lq7cfqrU98MT0yaD3TZGSWt9rAvdinM4kqdWp+SON+9RZnsGJlGOKF+WbMka3U2r9UJNnGSdl2ZCrxO4Jh1Wa7EnwkMkuhF6fRDBct0zuOFfvZEzvouhJ1wpxDpyIfGLETggBJjQDwgu/vBiI6D3/s/JanLbF+PpO0/wxBg8PwRQRqJD06giJXWZWClXmwBHCls2MK6oEYv5074lNSm4K/u5lP8Xe1LzeD0m9HkEcwFOZZRanatdKXrAtDlwwveR+Msw5a1Dpv+xP+0eOvGLCA7/lRh4/MQCDINP2SEIMKF3yEK34zR19OvHF++7+nN+fN9xXrwHHkrOIFdQMoQmhqZMYXJXul7mNYW8ltBND3MidMqDT1z2O/2Cytksy7dxThy3T53njZ1qq+9/Wvd8aB4a902ipPwNWy5ee2z6+ZTQNXVJUz5inYPw+hFkhxDmDr42t+ZJn0Nuwy9Ezzk75nkqfLoORIAJvQMXvR2mrKevOLuw47rP62T70b6cQKBC01zFWOQmk90JxZg689RtTuTuZucsc7rb2ti6/YWNrc/2MW9nMjez4n7oDW3ntJ+9eegzeNrT2WoJqyVo9ws9+7kwj2Fu2ocJkMSAlTRASGkd1MPc9+AbbxGlr2vzHjmEYjGEyF8Lv2v97fmhk/4Jy9ZfLvLnceZ6QyvIB9ciwITO+6HlENCTv3hSac/v/1mKB9fp5CFIUQJVmdmacZJsJbe5lXJt9xh4o+AzoTeGoOFtU+5oW5Oa/VQldPLv1BI6/b2mzSltSE0Jlo75PQFNvf1MPib52aVpDlRRPkI5gEzPEYXs8EmfkoOn/ofof96djY2cj2YEHokAEzrvipZCQE/9+BmFPVv+Mancc6iHMQReCZ62lrlNaEtdnlSu1s6NT+cHdib0xnCscd5Aw4VharqekUdHkyUuYutSd3vOenYkfIqFR8q06fUoP8MGzKGlh1B0o5AMIhg4Et3DJ3xajhz/JfRsuFOIYykRhF+MwLwjwIQ+75DyCetFQBd+/IypnZs+o6L7Du7yZ5CEU8iYxDfrIk8J3ZpQtnsa/bLd3eb14pVakoZnSPfbIaElNfuwlqZ1FZeBym5UJu5BVhSQqASeFEi0ML3iO/lVvQGaTURucsJxv+oJaXsBkNs81VtPN11YAXKZDDxPAomGjgSUzCH2BlGRo+hZcdJ/yZHHfhiD6+8WYiOVVvCLEVgwBJjQFwxaPvGBIKD3/vcLp/f87qNS37fGE+MQcQFZ6pYW1ZSnWW1Xe1qKnTtVuHZuf3ogGD3aZ9lCbwzBNJHNCAeaRijE2jXBc0kWOpCk1ZHVhyT7ACD8LCplm6yZ6R5AWfVgJhxCz/BJv86vPuudGDz6FiFOm2pslHw0IzA3BJjQ54YTf2oBEdBjP3llceL694eVu1Zmg13IeWUgURCUiW7qx8kVSq/aWnNSfSN1OJt41KkvJvT6V95IBTsdA98Evmu2WPrsSIZ3+gzp4ueUwS4odg6JmNr0ZvtQ1DnsjbqQGz7m1qHDzvob9B33WyHOH69/dHwkI3DgCDChHzhmfMQ8IqAnv//q0s4b3x/H941mMtMQMcXNFYTIQ5VjSJl3RrltrGKtcycUQ6pwxkpnQmeXez2bkgIOZHrT/2cT4GrPlOoQpQ+WtoqCKiwiY5VHcgBT8TJkeo9/oPewsy7F8Ak/FeKs3fWMho9hBBpFgAm9UQT5+LoR0FPfecv0A9e9M+dNLlNqDBIFBBkNxAkQeqZtpPF1GqGYaLanuSF0qhVyqm91j6D9D2QLvbE1JA2DtKFPtY7c3RXTWnL7zBhAU32a9kx+AvF6KHpRDtbEQ2tO/wQOOfNjQjxnrLHR8NGMQGMIMKE3hh8fXScCeuwbb5vedd07A7F7mKRcSfRFUh9zc/Mkq4k6pFGc3Ca/aRFZDXZTrmaTlkwNcRvLttYJ3T6HMaHXj6Kxto2nXRr5tkhoJDIxym5mhymY5EGE2nxMBFlE6EUx6oOfPRT5oQ3/6q0/72+BvWNCXMSa6/UvBR85Twgwoc8TkHyauSOgd3773aWxa98cyIcHBaYgRMWqvRmCNu3Q7A9lahsytz/GtW5i5rOvTid1JvS577v9P2kInX48KjXzkSiNxNWV19afAwGE34uKolj5cgws2/BTf8Xpr8HQ8TuEOImaBfCLEWgJBJjQW2IZOmcQye6vvjecvOVNfvmhfl9OQ5v+5DYBzpSl1Vrchsidepe27VGNSSVmhWWY0G3sl2Po9X2HREYiLisj6pbJEpAZILZ7EhmBktaIMIBCfAi6+k68cWDtBX+N4VWbuQStPrz5qIVFgAl9YfHls9cgEI1/4yMzu3772ix29OZ9BVRmoD2qIyf3uTfrQjf15VT7q1y6G8Us0/pg8sKTlW512WdlXzsTarbQ6193iplXYiCXty52Tf3NKN8tyEMji6nYQ5wZgug78g9Da897AwY3XinEScX6r8hHMgILiwAT+sLiy2d3CES7v3zZ1Pj1r8tjvDuDGYgogfQp0SiuEjpZ53ZDpoRue5yb0iIj+UpWvNVjJ1130/602j61M6FmQq9/3akcTWSzqMQRvFiBtGGk9hDpXiRYjTA4cmJg9ZPfj0PO+BchNhTqvxIfyQgsDgJM6IuDc8deRWstsfMbnyzsvfbVQt2fz3kVQCdQkYDneTbRzajA2SS4lNCt3KaLnxv0Zq14Wzrk6oZZKY5d7nV+u8hCj8jfQ1vN64bv96AUZXWE5fHwqjO/KI+84FIhnry3ztPzYYzAoiPAhL7okHfOBbW+0sfOOz9eGLv5r7J6R87PhtBh2ehcy6ALcVSBlCRrrSCoDE0HVkzGJLqTW11BS8o5mhWUkUZ/k8jfSXcZ0uc6dI6h1/e9Eh5J4JK624AO/UPigVVnfi848sw3CXEhtzOtD1I+qokIMKE3EfylfGmtNwXYu+0fpx66+tV9mSkfUQGIy4CfMdnr1M9CBhJCkbx1SugUR3eETuAIcrnbxhjmn0ahi9TjUhd8WtLGhN6uhJ62LzUPca5lae33YvZZLe2CZn9L/e3T16P3Kre/N21RU6U3crGbzHbaQx4U8ghVPyJ/tNIz/Jjr/ENOf43ofdW2pfy95LktbQSY0Jf2+jZldlpfk8euLZ+cHv/dq7LeLs/XBUhlRTmoPaWVzLYxcBsTT2vPDW3XjNkRde2NPo2zu8bVnWydpyTYrlnuhszJ4+KW3TaVsURsOpKmZWXmMy4pUigkUkNJ2/3Mow6mCf1WQHoZy95xlL5JaRcI1WzPFU0OH51HgB6UcGgl6jv7rqGDz3ibWP7My5vyZeGLMgLziAAT+jyCyacCtL62Dw9v+2Q4c+MrVHQvMn7RJrCpfFUsxlhiomJi5J1edtbonmnnpLh9CZ3CK0Tos4gYzfRU+MUkRpLii0YiFBSpvlTbkEuIxIOKFRU/kEYM4AsgUNCxsvmU1F1O9qMS96NY6Q57+w7bkV977vsw+tj/EOKcfcUNGl0UPp4RaBICTOhNAn4pXlbrXw2qPZs/Vpjc8goR7kLei6z6G9nkWhjr3DZaIX+7dbUbE6rD1d4a2QvtTOgm0TG10KWtaKgSehpFqcmVMK711EonaQkAACAASURBVG3uQFOGwCUU6RRQO1g/AxFQ+VkB1No00wXKfINO+lBIVidR5jGTg2vP+gIOPf1jQpzECW+NbD4+tuUQYEJvuSVpzwHp6RuWhaVNHy/PbHqpjHYgKxIEZFXFZB7RazammZal2fdYvrWRFW9vQrdtUcgMr+lOauHQltypLDGdI71NLvZZydb0mZDqzQLESYyYuvR55H6nBj8ektCDH6xUCmvHg8GTf4TDz7tUdD/loUYw52MZgVZFgAm9VVemjcalZ363Iind+NHi9JaX6OgBZEUBAVlSiQehqP0p3bRpQjEgSb2DbsQky8Xd0hpd5nYmdBPudp500hkyZD2b62b2DNWKWy0C+yIr3fQuN5Y9eXrcL+gzVPxA0uuKQj85xBhF0LV+XObW/zqz5vR3i6HnbW4Ubz6eEWhlBJjQW3l12mBsunjtGjV+88dnCpuf74tdyFKdeVIy5pVH7nRXhmat8sj+GEInXyi538nV2rlZ6o0ucTsTOjXSI0InYg8SgEi92g3XZPrNZqnTZ9IESo/I3BC/I/TEnoeUYZTsRiT7geCQSZE9YmvXijMvEyte+aNGcebjGYF2QIAJvR1WqUXHqEvXHarGr/lwOHPb8+NoErkghO8rqCg0RC5lABLJnk2Co8x2YRPhKOvdZbQzode/wO1M6PtY6JSpTnr+1Rozl+YurZ6/4W9yzVerImYtc/NcKLKoRP0o6INnZM/xdwysOeeLYtVLvlQ/snwkI9B+CDCht9+atcSIdfmaI5LxLR+NC5ueHWAMQmvoJIZWkfWCUv9o4UGQkhuJwwgrIGMV36yEq3G5t8Rs2ncQ7U7o6frTnpBazCbJuSY8xkp3y2O53prxzuEOLXKoJD1QYigKeo66Kzd69tdx0PkfE+JY2nD8YgQ6CgEm9I5a7vmZrJ6+6phk+sYPhaXbn+3FD8NHabZbWuo+p5pzEyN3giEkEGPqzonQXYMV03yFs9wbWZV2JnTrqUnb6bm9YorKKaHN0rjwfVDteBgmCLJZxPTAGACxTiAzfSgUlyHbt+HurpEzfoLlp14mus/khLdGNhQf29YIMKG39fIt/uD1zLXHY2bzP0SlzRfq8AH4umK6n1mFN5fh5BS6qo1VjLKXHWtaxmaPIbLnLPdGVrHtCT3NejMxcFtnbtvpWlUZit4EpEkkMki0j4oOILO9iEUWIUbvHV551tXo2vApsfyFNzaCIx/LCCwFBJjQl8IqLtIcdOGaE/T09R+szNx6gYh3IEDZtT0lU8pa4ORqpxcpwdn2pxKKSJuy3Y2+RwRBtelG7cN8cpFGvzQv086EXrv89PAn6G5U4183pE55leTRyQKh7EZJrUBJHbynf/SU/9e1/NQviYHnXLE0V5ZnxQgcOAJM6AeOWUceoQu/OTme3vLhuHjjubr8IAKE8D0fSFJJTtdEhYia4uY1ndIMoWvPJDTR74zL3RG81WlnUq93U7U7oZtSM/LUuB+6IZnENyftK3wPiQgQyj5Mx4PTfaMbr84tP+2HYvjV/1IvZnwcI7BUEWBCX6orO4/z0lNXbYwKv/9gXLzjHJHsgq+K8MkSF565ETuT3Eq5kiwXdUlzmu1pC9RqQpzK2ni7Oci2R2VCr3+x2pnQKQyTCsXRM13aqEWQqS4SKJGlZDeUo5VxbuBxV2aXn/pzsfqVH68fLT6SEVjaCDChL+31bXh2evp/z0qmt324Urhpo0x2ICNjylM3CnCaPOy2OZpte1pD6FY0xnG9IW2X4U6EbuQ8nWVek8Xc8GA78ATtTOi0XBRCN3KuCKAVSbh6iEi7VWYR+8Pws4df173qzCuw8tTLhDhnpgOXmKfMCMwZASb0OUPVeR/Upf85Nxq/6YM6vPc0Xd4FT5fhC3KpC2OZJzqGlLSFXJOVtLKcmL4q+UWlaeRXtcwvDLFTS9SyAzRj4uz8qg+BdiZ0k8hOjE4WufSQIINQ9kJnV8PrWrdNdR350/xBG78gcuffVR86fBQj0FkIMKF31nrPebZ65orzKpO//7CO7j7BT3ZDxtRohbzjRM7UBtVlJBtLm1zttgXq7IZKG1jZ+LkGSb1qkxFvOq2ZPylwmmVCn/OqPPKDC0Posw9YlMBoEtZsf539XrUPYrWarft+jFzrsz3LnUfH7Bf6Ibd6DonMIZKD0LmDH8oOHPttf9lp3xODz7+6AWj4UEag4xBgQu+4Jf/zE9bjV1wYF3//IR3evUHHO+HrEiS5yY2rnOrGrcVtbvBGMOaRSW1kiZvfVzupUfJc2vKSMuLp5erQ//yQ+BN/BIGGCL1m3VLCteGQGqI23hZaR/enG0dtuaGJeesEWmuYv9NSa41Iafg+QF1NjUqrtJVpZhuQTjuAgteHyFsJEayZyfUe/fWukVN+JkZe9n1ecEaAEThwBJjQDxyzJX2Enrz8udHUlveryu3rPbUHEkVTO26J2f0YpiZCT2PjnKXerE2xYIReNctrwidpToSZrCV9m8CmoZWCckY6tTOlwgZjhCtlM9hNfx7y1FAiJZnsArE3jGlxUNK9/Livd42eeJXo++t/axaOfF1GYCkgwIS+FFZxnuagp3/w/NLELR9Kyvce7uu9FNGESESNG50u5JqpmHIzd2PnfubztAIHfpqGCN2Q9r6u8llPjC0Kt54WG1JJXe5GJMg9w5k4OKVVkOGthSF1svLJ4rchGmqj5tnGKUpiJs5B+YPI9K5FpvuY7/lDG38Bffx/iBUbCgc+ez6CEWAEahFgQuf9YC2pPd95Wam49b0q3H6I1JMItHZtKr1qTbAm8RgickGiMS52rknGi5PamrWNGib0qnvdaaRXnS3pmjrCd3eKVPFvVgBmltBtiIXc7+neoQcGYnsfCfKoiAEkwSp4vUf8umvk2B+i7zFfFb0X7G4WdnxdRmCpIcCEvtRWtI756F0/fkVl5vfvj5M/rMqKvZC6DB2TRJeEJ2x2eioUY0/viN3oxLAWex2Qz9shjRG6TXA0r1TpL7XYa1Xb9omrzzZHMYeR3kDqbidPOr1n/meJPkqoP/kgYu9gZHqOvyM/eNK/Y/jo74u+826bNxD4RIwAI2C/xoxDZyOgH/rha1Da+vflyl0rfH8MvqxAJxEQZyDIujJkTspvKU7uTu9c7iaJii30pm2ixgid1nK/TPVaQjeLTz82EdK44+n3JN/rEhyN1K9JcouslL+GkxYCIpmHNCVoR4zn+k75DPo2XC6Gn3tt08DiCzMCSxwBJvQlvsB/anp64vtvinb+7l1CP7RcqGl4Hqm8UQZTYknaZCuHVU126oxmNNhNeRpZ6WmyXAeD2OSpN0TotQWD5sHMyfjWeGDsEx0ROgkC0T8oXZ3a4caW7CMi+QDwqUuaRiIShNRIxV+BJDgs6R0589Oy57ifYviiXwqxX8C+ydjx5RmBpYYAE/pSW9E5zkePf/Pt07tufFcO9w8GcsbenGMicspmotgnxcptApwNi1JzFR9Cec6tw4Q+R6gX9GPzR+iOuG36m11/K71vSxWN9r5T+CNrPOXmhB4EstCejwqlUXpdEPk1yA0d95VgYMP3MbL+CiHOSVWEFhQLPjkj0OkIMKF34A7QO//rPdHMzW9OKn8YCLwp2/5U5Y0lZlypJvmtDEqCM2VGpvachGFme5kbC91ptrPLvXmbqCFC18J0vqsGU9KOZ87VTs92htANqVuFQPOGpAc/68gx2e2yD6E3hChYC6/vhJ93jZ78FYysv1yIEyabhwxfmRHoPASY0DtszfWeb3+gMn7jG2W4vTfITkNpJ4+teqp67CYeKiqzljlZ5zpjbt6G/InMq/KuJO3KWe7N2kaNErpnHtict6U2qSYlcvrTeGxI7lchjm1ve9+T8IIeFOMu6OwK+F1H3JgdOuGfMbzxctF1zgPNwoOvywh0MgJM6B20+snO//pEZe9Nr5bh/T1ZlAFZhvIrptoYKm8y1q00K93gQ0PUWlvLnaiciJy6qZnPpIlwaVe1DsKxlaY6H4T+iBa2ROKmDZpvyDxJIkRCwaPnOimRUBe0pAsVLIPoOfbe/mUnfkqOHPffIv+M7a2EDY+FEeg0BJjQO2TFkz1f+6eZPTe8UkQPdPUEFeM9RVSGChQoDCoT2wWtmuyWyrLqwDZXIdoXoSX1aps1pxLWIRi24jQbI3TPhcI1JLnR01I107eeYuYCMWm5S0BlBGIRoBx1QcthdHUfXsr1r/+4HDnl66LvottbERseEyPQaQgwoXfAisc7Pv+lmYnNf5ERY/mcDKHj0FYfZQIkOoQSCpKscxczNZtCC9PTnO7mVrPdZjannzHlSqZFKvczb+YWaozQfajEN/KtnkhgktApMO50+OlBDxmBigYqyCESo5DBkejuOf6fuwY2fh6jx90pxDrqtMMvRoARaAEEmNBbYBEWcgjxg5/9t7Bw24sQ3p/N+iGk50EnCRIl7N9d5pOJjRtCd3rtyul5VkVlbJzV/t59zpA+67gv5Pr9uXM3RujU094ROi2rKVdUUEiQCI3E8xGLLCrog86sRtfghu92DZ/8CQwdf5MQG0t/bmz8e0aAEVhcBJjQFxfvRbua1lf6as/2rxZ2X//cHjmZFSgAScFmKgcZxFKjEilkkIVnEt0qNsO9Suh+NavZqMRZDTDXZYO0valmnV4sLLNoi/ooF2qM0K2Wu+2Ea28F9ICnaE29LGIxhEivQffQhuvE8tPfi+xRvxP9G8ebOV++NiPACPxxBJjQl+Du0HpTkOy5+Wt7d216Vp8/lfHUXgjbNQOQnrHAYo9u5B5k7NsmGoIIPU12I5K2kq90w0/boJoe6E4tzBI6udtZ+rWxLZR+BdNuJ/s2SzF9yKlc8FGb1Frp9GoYpGa9lMl7IKKmlMcS8P/b+xIoua7yzO/et9TWqzbL2jdLlm1MIPaAbQbi4JCEZMIwCTlJZrKcTCYnk0wmcM5kEiaEJAYHjMEkBAcIEGLABrPYBoSxIdhgvCNL3iTvNjZYu9StXqqr3nLvnP+/91VVS7ItdUu9/s9Hp63uqnrvffe1vvtv39fch3TgOUSqDpPn0LrobndX7wonITIbw+pemHAJjFqxs3vdGy9D9dxbVM8lByd3n/JuQUAQONUICKGfaoSn+POt3VptPrftmmz0wV+Ogj1hqGjOPOcudp4lZkKmTvamEwcxZRd5s5Z3ISTiI+8XcTp3wiOeeET2dRIrrNojf+xo5urXR1cxaIM1Xqi57TXvfoXpkwq/eZ5OKAid17oOjO5CNrQLKh9xnuTUA8Fz5QlyA+Q6QB70o4HTgPKGPf1LXncFFl74edV90b5J3KC8VRAQBKYQASH0KQT7VJ/K7rutyzaeujZrPPXmIP9xAByC0qnTBbEVjsA4mqMUu3IlUAtxSzvV6/JSn89ZD78STh+9k9B9OYMJuP2rOr5vgcYJSc3PbbC4NMISrrTWtEloAvYw0NgDkxyETutASlr9tL8jdTcApX4kthcNLM26Fp13VWXlhZeh620HRap1Op8MObcgcOIICKGfOGYz8h3W3rUg2bX12mR4xyWRPRjE1JXOTU5xiwtcvdXNkRf18qKTfUbe1Hy4qGPJm3PWwxmnUBNiIdzT5nRH/JQl0dbJsNKkAm3YDEpcLtFsppJDBWOAGUZW34Xm6H5E+RhiitoNcbrCaHk5RrECvX2v/UJtzX/8v6icu1861+fDgyf3OBcREEKfA6tqh7ctTg/ffU3SfOyNQf6cDvNhhJxSrdAAsROIIV12TWTuCECzcAiRhRzTisCRhN5B5kWDYkdw7taL3+NS9NpSSp0InQRfSAiICD1AYDWTvWkOIqhZIBnE2OAeZM0GgkAh0iWMqT6Yhed+v2/lf/xjdG14Wqk3ywjatD4McnJBYHIICKFPDr9pf7et37XcHnzocyNDO94Qhft0ORgA8gaQ0dhZzUfoNF6WM6m7Oq2GprE0P5Lmxbqn/V7m4wUc+QtYbLDaqfiO1WkV1116nXsceR1dFE97NG5uo9I4DEKTQ4UWGDsMjA4iTROMpgEa6EZ10ZmP9qw4/+1YcN4PZARtPj55cs9zEQEh9Fm8qnZs66p07+1XI33uDSbdrwI7hJBSrBSFs+Wlc0gjcmDHNJ/IZUU447rYrU5epH96FgMziy5dvUhtvFUTb/2GehLvvDcSAzIRW9o6VzwXubvSinXTC7l1Y4qDI/neQ/Ug7lmze/EZF/wVFq+/ViLyWfSgyKUKAseBgBD6cYA0E19iD3/7jHR0x782B7dfVNJDilTYVU610QwIqL5KqVgX7zGh25i73B2RO9c0N5JG3VGSeJ+eNSa3MyfU43jdDY8xMXtydtdF3+8Q9GnN/tN60qaNNmY0Ruhled03XHNcWEY9KR9q6qXP9S495ya9cOXfKnWx80aVQxAQBOYUAkLos3A5bfOuM7MD931qZGD7RbXoILQZhbIVaOXH0qiuSv3LlG6Ft0AlQrcUzblGK0cY5HfO//rPQhTmyiUXv4JE2H7mvxhBK2rlreWhtaPMC6VbSPjHkz2PHBZjhPQM0FqXkKNqGmH/07WlZ30YvWs/I77kc+WZkfsQBI6NgBD6LHsy7MjNr0z23/+JbOzp11TDYRgz4gRheEzJkULRAe2o2ku5sgWqEyhxr3HNcZySn2UYzKnL5e50OorOdnd3LrnifkJa6zwzTstFAuu8C4uAMAWCwzA2gTZVwFaR52U0TZdR1ZX7o951nwwX/9SVSp07MKcwk5sRBASBYyIghD6LHgw7ePer85Ef/LNpPPaaKB0AbOKCNa8W1hJ7KaK1jtRs0THtyN/Zo7qDCF38zKflMWiVPIi7XSmE0uTFLyWTOqnA5ClMlkMHIRCWAMrEpDnSdARhtYGMtAXyhTB6kYFeOorKihvjBZv/QtVev3ta7ktOKggIAtOCgBD6tMB+4ie19X+/YOzA1o+a+o5XVzDgBs4yCxuEPLLElqYccTvFN3fQ910avqjVsqIIO6cVhO7G2uSYegSsppKH63VQ1K1u4/Z6cYBuYE0CRaQeWcAY5HkOaxWUDhGwuY7CmKnYpl5eD3o23dPT8+q/VLXXbJ36u5EzCgKCwHQjIIQ+3StwHOe3Q995Xf3wXR9B8+lXRfkgIhpL4z4pEo3RTOju8On2DpXQce5orXQ8ReiuL4rESFz0LsdUI8CmNzRl4And1cepz8Fn22mDxlb0GYx1/Q6GNdhpE6eQZxVYtbhe7l37YNi/+e9U+Zdvmep7kPMJAoLAzEFACH3mrMUxr8SOfOON2dC9/9Ac2XlOSdURknBIRtrs9I89xenUFe2bpDhl6/LvLrVe6IP7rmcvIdqSDmX/ayHz6XoEmNB9RztNH7iGxU6zFlpj0g8AjA2QsrFOCVZXAVVqpPq05yt9519Z6u39tHSuT9cqynkFgZmDgBD6zFmLo67Ejnzv55KD3/uQNk+8Ikj3QVH3el7heqthZVAibp9it5GPtj2hs443pXPp58WUEinGeeOOwtfcj0rNYBjm9KUV/O009jsGDnwGJSNxmKCMPKggMTWkttYMy0v2dPeefjX6VnxIqTcPzWmA5OYEAUHguBEQQj9uqKbuhdZalQ98/c2msfOKbOjxzRU1CNimmzG31OgcIddl9q6ObeJ02Vsyrm0NcN8W7dPrRO4uxW4RIUfMHthO272z7j519ylnarut0apxH4R3XHPsroGohCQroWn68yBetq/ctfGrumfV+1X1whcEP0FAEBAEOhEQQp+Bz4Otf+utzcEffrBx+NF1vVEKJGNgj0utOQXLFissJRMgMkTIbQ9t1+BWCJY4oRJXL+8k9NBpfvMrCznYGQjEVFzSi5qjFCd/EXHW4yhXHOuXi8vjrR8oFvpxfy2yKW4W3agQuS0jtT1Wx6ftLXetvUt1bbhM1d64bSpgkXMIAoLA7ENACH0GrZm1Xwowkr+1eeihy/Pmj9aVg1G2unSpWKcIVqiJtZXEvMXmUffBBfOOufMOIiEHL2/b2TnvPIOgmJpL8eI6nd7ubfc5PxfOpQma3y82TTRNUAi5kIRuoYnf4RHP0XbhYR5QAbwlAuMa2wyPk9N7IxPzCBp0A4hzmJByJiGathspluyvVTfeX+4+88Oq603fnhpQ5CyCgCAwWxEQQp8hK0dpdgx8+Tebw9s/gOT55aEZhDV1aE2dzy5NXki2ujQ5jZ0RycjY2YSXsCWv2pHhoIkBT+KuRtFJ6EXGoz1N4ObH3ebJZTw6Dg7HrftDRxi4rnUFpCaHzSxikm5VIcv1JlajiQB51He40rv2wVLXGZ9A+W1fUKrlyjLhW5U3CgKCwNxHQAh9BqyxtVsjjB74jfr+B9+fjz65rBwOININ5HkdWhFhF4TuFMTahM4sIXPkk1rDzl8BT7zj0umdXeed1qWk8FZ4lbvu9FZUTtejqTvdICfpXa1Y7Y16HnROfQvsd8clFGMtMhsjtz2AXlIPyssfiyurvoglyz6h1Gul4W1SaytvFgTmFwJC6NO83tbeFmJw3+80Dv/o8nxsz6II+xGpUSiMOfMUctKisI6idK8I5+reTrpV5sgns4Ad436U7WhF7OPT50efwfDGqlDpc8I9gSd0yqXTzzIYbWGo58H/limjmNDDnL4RsI5AIygjVd1pFK58rFxbuwW1TR9VtVfvmsxdyXsFAUFgfiIghD6N627tjhiHtv1eMrTj75vD+xfGegylMAGMt0ClJjgbsIjI0YTu6rjtmu803sisPTV1mZORCUXNJLZTpNILQnfE3T6Kmf327L4dJ6HrVPl4TWh1yMZUKRiTuehch4gUNSNq2FyhnlWhutc9FVRX31zqXf0xVXr9zlkLpVy4ICAITDsCQujTtARE5unAM3/YPPT9y2KzuyfIEyiTQFPkXcyN8yxT5AndEQWNNlGDFlERE7rItk5iBQlF5wvvmt6OrpEfTeiFOYo3wlGp9yF3pQ9qQyTlPvYip080GRO5oZ+ZEJmtIgi6EZX7n9fx6bejZ9PVquuSf5/ETchbBQFBQBDw/44JEFOOgLU/ruDQD/9obPjhS219Z1c1GnWdUlnSHk/jqJxy7CTt6iiHLcy9E5fzMyedODkmgwArtR3ZzEYbpheLzEkbvzC9aVnQFr7z7UmClra+IVMVUncjUZhuZDhtb1he9YO4e8N1qu+Sr0zm2uW9goAgIAh0IiAR+hQ/D9Y+W8bBB/5389CDf2eaT5crpcOArTsiZ59yNwbFpKGJxDtJmyJ04nHffc2yoULqE17CltsZEbi3mfUZj2P3lXdG52yP42f8i61WcSUuZU8Ruw5iJHmMFL31qLbmB3HvWdeh+5VfUGptY8LXLW8UBAQBQeAYCAihT+FjYe2DNXPw/renh3f+dTC2vxRiBAjqjhR4btmTil+VltZ3xzU6ze+imcs1crW02afwXubEqVSH25nHlA1S6CjUX1i9jUR93KKwezk1wVHXugJ0qGDI9S6n1sXQ+ZZby0tpdAUNUzNh16o7Sl2bv46+1dcp9dqfzAns5CYEAUFgxiEghD5FS2Lt1mpj3+N/mQ3d9//i9IWAJFudLzmRsovICxkYzyhcm22Zd3Bk7m1Q2RLVEw+TkiTeJ7SMjG/hdubn/FkopsOwxpunOCp3ErnUwcCEDs0eOTSCFtAsObF4HrCsrop6gXjhNt236UZUTr9OlS95YkLXKG8SBAQBQeA4ERBCP06gJvMyax/rNgfv+Kuxww/+H1XfE5T0GAK2zSTZMBpHK7qji7MUkbdXJKNuaWqGY0In4nCv50Mi9IkvTaurvVDiI+U3v1FibDNAUymEGhVp/IzWxUXmvAEzAbQt87rQmFquaC17oOPlT4bVM7+GyrrrVc9Fd0/8AuWdgoAgIAgcPwJC6MeP1YReyWS++4FLG8N3vD3GboREEqbpSCKIgIy6o4kIXNc0d623JEkp8qaZ88K4w0fo3JRVSI76zuwJXZ28qY2Ay3qMsy+ltVKknU8z//T/lGMnC1PSwleweYwQFeSkERCE0KW+XWF1+Q2ort2iuv7LzYKuICAICAJTiYAQ+ilEm8gce+68LBna8ad27CcoUTd7TISeIc81lI5ZkIQON37m58qLESryNWdluLY0qXtxkRJuS46ewtuYBx/ttNucQEyR+fBmKdplSWir5TZeMYyhMbQYlnTYUUYQLTgcV9d8Fd2rtqB78RalzqOQXg5BQBAQBKYUASH0UwS3HdjeZ5qPXT566I4/7AoOQOUNgP7oJhAE3DBlcvJLo8q561QvDFM6e6bHl8eL8ag2wbcI6BTdx/z42OLXwE0RcBNcYcCirXM/s4GLxE0NFlVAlSm9bsvdp29RlZXXon/TFqXOHpkfeMldCgKCwExEQAj9FKyKtdv70n1b/yEbevR30fgxKqWmS9kmCazRsFEME1CEl7H9adva1HW5uxFzP75GaWAme0fiVjmNcKrnknhJq1HuFNzHvPjIYg59XF8hETpZzlovNUPrUoaxNVjVhyhcCFVa8F1Ey76I7jNvEqnWefGkyE0KAjMeASH0k7xE1m5bnO5+6B/Tke2/qbNdKKkmlG0ANgMCqo9XYK1Gpiy0NQi44YrSuy7V61LvxQhb4WtOTVcFoVNa3jVoCaF3upsV+IwvSbgGtqOnAKhW7rTx24YsLTEYT+OUMclpA6a6YXQPoBZChUu2x7Xln0F52bdVz88+fpIfH/k4QUAQEAQmjIAQ+oShO/qN1t6+2O7e9rHG0BO/qvP9KEVNIC+8s33n+ri3FSleIo2OH7Rq5PS9I5fIpYCdTKn33T6J9zCbPqoFQ6uJ0MHlDGuomOFwJfdRirWNcdrqWjkjFRo/01T0sDk059ppc9UEDI0TKiCsIMu7kOtFsNHK5+KudZ/W1Q03qdpP3z+bcJJrFQQEgfmBgBD6SVpnW79reTZ4/yfykR2/FJn9IGdran4j5TeukjNhOB1299VFkmKuMvEFcBh64ZeOaG1EFAAAIABJREFUJ7nAlCJsJvGgbV/KNqeKzFiIyC2UCpBlGSwScjNFELrmN2Ope70HKjr9YFBe90ndveFb6Hr9HUr5VMnEL1veKQgIAoLAKUFACP0kwGrrt61oDjz+6ebw42+K810oB6OuqSqjIjf5mbtIkdLmbKxCROLPK5Iwk1iAIjLnEkXJS+cSwecgi1ke/yMhfF3M7lvkNM9fgM/rEXC93IYZW+JktgSj+hBG63Idrrk6rm2+Br3L7hKp1kmsk7xVEBAEpgQBIfRJwmwbt21IDzz8ycbwMz8T4RDKwTCQ16kt2s2Zm2g8ofsuajdbXjS7Ca1PaBm8FjttmJQhW1KaI3eCMOwXz5KtTqoVpABHsm50uOYDTqvnvE4hEMZIVAW5WgAVL99S7j7n00H3mbcqdcbQhK5N3iQICAKCwBQjIIQ+CcBt4983Ng/c/69m5OmLTHIIlSiBDnMgHQMyyt+WnP0ppXeVdY1sXiSGx806/bcncR3z+a2d/QSgaNsr6bkHm2rhKWBIZpf6DgnzQgmO4nGK4zVS1Q3o06Era+4oVTddhdLq76vaWbvnM65y74KAIDD7EBBCn+Ca2ZHvvKJ+eMcnzfCO19TUAJSlmjmNpxGJ+IgwJ1KP2R+7PWrmosTCL/tYHdgTvKR5+TY3u+/6E2g6gMf9CnlcdjxrwLpkOvuSK0Q8ZWByjdzGUF1LoOLTHw/L669EZc1NqirmKfPyQZKbFgTmAAJC6BNYRDvw7Z9qjj7y6WTkyVeXzH7EUeqas1KSdKXML0WBIUDNVgGpizlHtGLUjMjHEXoxnjaBi5C3MAIuQnd2slzGoKjcqfT4AQGa589hNM3va2QkDoMuKN0PBEv3l3o3fxilZTeq7gseFUgFAUFAEJjNCAihn+Dq2fq3Lhjb98jHs/oz58YYQKzHoFibnT6oEIPx02bUZc1KY0UndjFq5kq4ztVLSP0El6D18qLR0EXmCtoQln5MkDZYlCkh4xsdIFMhUsTIVTdUtGS0Ul39cV1b/znULt6hFKvIyCEICAKCwKxGQAj9BJbPDl3/uvrAAx/XzV1nh3kDgR2DovE07m4bb7vponJKv5O9aadUq+/H8rPmMrZ2fAvgRszaj6vzIzdAbJGmKQu7RYgBS42IROo5oDNOlBgbo4l+5OEyE9TO+HKltv6f0L32fulcPz7s5VWCgCAwOxAQQj/OdbKD3/y5bOShf8rGHt0UmEFELPBNhE1zy5TypTQ7t7y5mXOVtAi9Xd/t9DQvNGOc1KscE0BAGeSW5sc1NEXjtEnKFJBT57oGogrGmjnCyuk2qq2/HdX1H0DPGbeL5voEsJa3CAKCwIxHQAj9OJbIHrzpTdnQ/R9N68+cEeAAgqDpFdcL7XUiEzeexgf7ZheSrm1FN+e17eVcebyKXueMWeQ4cQTcw0sEniK3GVSoaOwfRoVITA1JvgDV2uaHo8q6y6BX36L6XzV44meRdwgCgoAgMDsQEEJ/mXWyB65/C0Ye/VAy8tR6bQ8hDMjHnJTFqMnKp9q5qzpqqb4ZSvWqFJq7q32Kna02neQoR5JeFOXFtMZnx+MzdVfZmW6n9Huxb3LCMRHl25Eai1EyOg17EHet3hOX1n8g6jv7s0q95uDUXamcSRAQBASB6UFACP0lcLfDW36juf/e9+nkR2t0dhiBpmg7ZrI2ahTgv7vovB2hU5TuvbRJ4MQ7otHPFXdYF1E8zUZLbH68j31B6AWZu40SicVEPOuf6QhNXUMenTYYdK3+WG3xhn9S6vUyS368AMvrBAFBYNYjIIT+IktoD33jt0YPP/w+nTy5KjIHEBaOaL7pKtcpdJABFC1y1E0Sr67LnSVeOeVOMq9EPC6Cpzo7R+TUKEe+6Pxz+pkn+Vn/OJ38G+Dmt8IRrePj+fsoIUlrSG0NKu5plHtWXRMsOOv9KP3M04ocWeQQBAQBQWAeISCEfozFtgNf+f364UcvzRrPLY/sCGJVR0Bt1DQKZS0Mi5dEUJra4ajLnb7vCZ0MV3RberSVYidCZ4EZIvPUEzq9tQRXW5fjWAgUhN5Ks5OxCnW7k2yr6sWIWZaVutfdXu5Z/R50Lb5TqfNoJyWHICAICALzDgEh9COW3A7d+Acj+7a9x6TPL61EDdi0iUCR2QcJlqRsxUkOXcjLsOzk5TXDC8vOwtOTRtZ8hO7S8kX0bmF1wqROx2wn9PZIXmEF61vVuOmvM0imMb7xXuUF9NSL0H6pU35rPZhO8J6l8Q1iGFJ60xUoXUqbauGD3csueC+qy24SIp93/3bJDQsCgsARCAihe0Cstcrsv/ZPRgcffHdk9y6O1ChsVueRKHcU9qcUfXti4uY2r1bGafMjPNSK+XOvYtaiN55R7/Azn6Upd561pwZAxoOMUZz0KpNz0cVfyLL6+3Vz92Qp68b8rE29Cx0F3c6fnN9MI4EkEkNZkbAE6BhjWRUNu9CG5WVPdC/Y/Pfo67pWqYtFFEb+WRMEBAFBoIOB5jUYlsS9D17/J2Mjj7xbpc8uKtlDUDaBzUicpOQa2bx8K9l5KLLg7FB6azW6zTcUvdtZQejUxa+L8oF3lXPd/DSv73mfNkB+Xp++o4NCXc/C5oYx1/TaQAFhBNvMkZgSMt1ndHnlnlLvpk/qRed+UGbJ59vDJvcrCAgCL4fAvI/QmcwPXP+Ow4MP/bXKX+gtq0OI7CgUR4gh+5mTuQpHk+yfTYTekSJmgpq/B/m7t0sK7ZE8xoTNUfy8fQuinEsOZGLDm6I8hGZRHsKaXkSz+QY5MpZqTVWf0fGKw3Ft0xei6upLVdcle+cv2nLngoAgIAi8OALzmtCttaHZ96U/a9Qfe3fW/HFPhEGUMAqdN5wuO9mfmsgRunUKcERg/MdHoPN5jtyVHpwxijuKTIbr9G+XGIr/c5r2tCkqCN1mGppHAanRjZoNgVyHSHXVJqp/rNy74Rtxed3fqJ63PC6/yIKAICAICAJC6EchYO1tIfYP/fnI4J1/HWB3JcQIQpDRSuK1wIlkaNSMGrGClqKbEHobSjJEcValxOVE0s6IxpG5Zs2XIuLWlHbnYJ2U8kIomh+nDYD3p6GGQ6pwJKYMGy+rl3s2bw8qm96jen/uFvkFFgQEAUFAEHh5BOZlhG7tjhh7H/3zoYFt74rxfDkOBtkxTVnqr6LBcT8bnrkovfAzd9ElReeUcqeIcr7LtnoZW2ZqUs7zZM5jfIUaniP1ootdkQe5oUiclPMUrA6QmNyNAkY9Y2Ft5eNR94bLVe9//eLLP77yCkFAEBAEBIECgXlH6NY+WcK+be9sDm//q7TxbFiN6lC24WrmTOYUjZMCmSZR8HF+5m1CJ4Jyaeb57JZWEHgr3c7hdmEV61Ty3OEi8vEiOuRCF6GBMnK9oBnGK18od6+5Covwj0r9ugvn5RAEBAFBQBA4bgTmFaFb++MKDnz/L4f3b/sr5M8H3dUUJhmFsjkUReWavDbJ7IOCR9IIJye0dtQ5Lt3e6nLvkHM9btjnxguJ0HPWtXdqeNpvcngKgOvkPlJnD9OS60tgAR63GUpUNcn00gPl3g1fDJee+x6lxDxlbjwZcheCgCAwHQjMG0K3dmvV7H7oXWPD970zwj5EJOySk546HTQ/7RrfXFHXNXVRxO7mrH3U6ef83Jx1Ufwl0p+f0q0EV+5vXftRPp5FZwALaElZjzrXAxaESfMq8rxionjJ3riy9ltYdMF7VGXzj6bj4ZdzCgKCgCAwlxCYF4Ru7Y4u7Nv6rnzkob+w2TMI1DATuM3IN9tF2CSI4r668TTSW3fz0wWhey9zJivPYlwnnr9+5twT5wfMW1shymywrJthItdRhNwqpKoEo3th1aJ9pXjFvWHf6vepnv9091z6ZZJ7EQQEAUFgOhGY84Ru7dZe7N35N+nQD9+hshcQUmROzW8kJ8rBOXVma67xMqEX0bn3M/ev8jVzep0XQilWbZ43xpG2G2c2ctoEUZmC+hAKAxqK4MtI8hpSLDoY19Y+WOnddJXq/sXrp/Ohl3MLAoKAIDAXEZjThG7tjgVm973vtmM7/sw2n0VIlqdknE2KZMQ5oQZJmBRypDyCRQdF5Sp1deBCkpy7sr2feetJKCRc56e0jHt4vJgMu845Mjc64GbCXFcxlpSGq73rdkR9Z34K1fTfpOFtLv4zIvckCAgCMwGBOUvodujehWg++d7Rgbv/KMYehHnDa4xTYxZ1r1vnZ85a4hSWO3tTd1C02Uno3vMcnX7mRSp+fpK52+gQe7vmQQQuQs9sgFx3UWq9keulT9S6Nn4Zi0//iFKvHZoJD7xcgyAgCAgCcxWBOUnodnTr6fnwzr9tjuz4w8A8iwhDHJWzqAl1XAeukc3YFJpT60ToLgJvzU93ELoTT2n7mZMFKhE+dXG37FHn6hPykvflKueEJVnW5CjBhL15VFr+WFxbfwuqaz6iKhc9Ny+hkZsWBAQBQWCKEZhzhG7r319phne+pzn65O/aZA9KOoEyYy4Sp/G0QLOrlyGCNjlbo3L+vSD0Ypaaid45orUI3eu2k/VpHozRlmDW259O5nljbZ0ASFAGsAA2XPZ0VFn/3aC0/mOq/6IHJvPZ8l5BQBAQBASBE0NgThG6Hbt7DUa3X9o4vPO3ke1mMrc5dVxbKE3e5VTmTZHR3xEhoGY4S01ylFKndHvR8EbpY0/0jKf3M2erVKqb57BB0ymgmRJU4TB2Ytif5Fd3LqUvAxT2rbwpaY/WeZG7I85fvL8QhxlfSnCa9XQU2u0amYrQ1DWocPGuuLLyB3H3+n9TXb9080m+Mfk4QUAQEAQEgeNAYM4Qum38YF0ysP19tvHorwf5buh8GCbPEOgyk3WbkDwt+WbsVhTOqePxfubjwGFzFmZGF7R7H/DpTrlzHbvYdLQWnHzKSR3HZxj4qou5eeUaAv19UF+/MRaGB8o1giCE8mN7xuTQkUaeZSSvwyN+GmQn6wRimlh80Hafd0dYW/uVcs+SLyt1Bu1y5BAEBAFBQBCYBgTmBKHb5t2b7WFKs+/8VZU+h8gOQLNKGXEa2Z9SM5uLvosxNOqHY2Ju65NOA/yTPaWf/va66YUDnOv+o0wCy823hG8sjZWRWE7HqpMHeaACKFLJI4wMUXfOFXHKRtAUAP3M6BiZjZFkVQS6p1nrWnInapu+hN5XXKvUmcOTvRN5vyAgCAgCgsDkEJj1hG6Hbz3bNp68fGz46V+yyW7EZgARyG+bRF+IoAJvrkIN2QasaEYU56zAZjmhB7DUC8A7lRSK/pAqWxGxk+EJe7oXmxfSTydCd+N4TiEvcM6lyFyPgceFvxlQ46Dh1HqGbli92Aal1XfHlVVbdG3FF1TlAlF4m9zvn7xbEBAEBIGThsCsJnQ7cvu5yfC2y/PG079gmocQmlHERGpktEICMJqicoouXe3bqMwl1indbskpbLYTOm1NqDufCL3p9dO9KQo1+TGhO1czZzxDhO56AIpD6xDWZDBkG6uoSZAsTQm3GIY2A0EXEvRAqaXboq4139R9m76iSq996KQ9gfJBgoAgIAgIAicFgVlL6Hb0tvPS4e3vy+o7L1HZPgR5ikjTXDSAjL6S9amLTo0mEstgdO4idNIb5yYxT3QnBcrp+pA2WRfe43wlfH9u3G5cnZ8b5QpHNNrRpLBacec/73ACw/owOSrIzQLoeP2zUXnDjahs/JLq/el7pusu5byCgCAgCAgCL43ArCR0e/ju1zRH7vlgOvb462KzC6EdZcVRrgHn3vqUFOGI4FXuCT3lr6xMSoTOnemznNB5Dp468l2anRrfivp4YRhTbFxam5giJc/vI9ByIKTyRMjqrSlp2Qdd0OUlB6Jw9dd0+cwb0f+mbynVEdbLb5UgIAgIAoLAjENg1hG6Hb7l9cnQA5eno8+/NrAHEJlhBNRx7vLqTrmMOrq9rjiPmFGqmbu+ifvcz5WJOe0+m5vinDStbyynWroia1LXM0D9Ai5it75vgMif7p9wKpr1SeGtBGqWYysaVYUJlo5FldXXR7VNN6B35bel4W3G/c7KBQkCgoAgcEwEZhWh2+G73pAO3f7hZOyJVwX5KEoqhUnHEFAk7ju0+S5JipS6tE3qxN+obqxd7Zzqyi5apXT0HCB0mqPno+TU7I7oGeB5ehgWwaHOfl5wdoalTU8Eq3vRNGWYoIa4suzbYffGa9C39uviTS7/YggCgoAgMLsQmDWEbg9/5+eTw1svTxtPvLKkhqENkTnNmUe+ibujLswjW+7vrgnMpdkL33P3/+6YzUrsjpxJAIfuJ2CCdhsaCwuSps35/41xfuRcJzf0s9zteXQP6nYh4vLau6Laps+juva7qvxTT8yuR1iuVhAQBAQBQYAQmBWEbgdufUs6dNf78+SpM0MzjFAlzjGNVOB03J6r5nEs181diKo445XQjWdxZF4sPHmdz25C5wWkrnQqMRTjZryktJmhyDwHghx5nvNkuQ1iqKAKq8qwoK99j1cWnf0vUCtvUd0/u0N+JQQBQUAQEARmLwIzntDt4A2/mhx+4APJ6KPrShhBRMpvOfmZp0BIMjE0iOYPL6jS6vZupdYj9jvnCL0gO9oUUH2dFdRm50G175wJnQJxavijsoLv9G9p0o8BsYINNZq2jEa2GCpYtbdWO+eTYc+GLar6yntn593LVQsCgoAgIAh0IjCjCd0euOl3xkbuvNQmz6yO8kFExF02gk0ous6hSiFIntR1dlMjGH11qfaim509zA3Vl2ku2xO6SmB1w3WHd6TfZ9ujQYSeKuoDUAisQWCpAc5DwGNoJA6jkBqNVFeA+PR6qXrmvwXdG7+I8uJ7lTo7mW33LNcrCAgCgoAgcGwEZiyh24PX/X59cPulNvvR8siOIqaIk9jKkOEK1Y0jqJA6upOWKjmnnvkgNThH1pxqN0TmJWf16a1PrR6b9fanHIxruicNzSUFmiunzIPLPhhVRmb7oIIVCEtnXhdUNn4aC9bdqdSyuvxCCAKCgCAgCMwtBGYkodt9X/tf9aG736nyHy+jGfOQSNhoJ02qMyiSLyWNdmOgAx+hs1tacTuuju4U4WhMi7zMKUon8qOO9yb/YT9zQ/X12Zt25wY4pWGNRm5pG2OdUEwYw+g+BNHaW0u1TR9F37l3KHXG/rn1+MrdCAKCgCAgCBQIzDhCtwOff3t66LF32sbuJZEeBemZ0PiZsQnPjFOnNndoUxxuMwQsb+okXl09nDq6qcM7YYMR1/nmFNMsvYbdP8nPvOGE0XKaR5+dhO6yEJlTwyPhV1WCDXqA6DRE5dX323j5PwT959yq1Jm75JEXBAQBQUAQmNsIzChCz/dd+8764LZ3RHbP4pJtAjmVeGkcywAkDEPBNsmSUqROuuNBAKTE0N6EhM1WiNApiifBFU/o/EbnuMaEzupxzqAkyCcXobvxOHcc38bgxSBvD9B1fqYbteNPb5/H2ci1/k4bmVyXkQc9UPGK5+PqhsvRddbNqnz+M3P78ZW7EwQEAUFAEJhxEbrdd927RgYefIfJn1xQjkYQk3ZZRrXyknNO8zPjxVx5QWi6JeHauagsieZJz0ffnbPnrea54yXhYz8w7lrGE3pB6sekbRayoc2Fk2jlMTp2iMnZppSH6KhPwOnYwlLXOjvGKSiEUCyeQ+UHEszJgDBCw5aRogs6OO1wqWvtP4Z9G69TpUt2yiMuCAgCgoAgML8QmBERut31+fc2h574Y6t39wfBAcAcRpDn0CoEcnILc17mFKoyiXIk3o6Kp8vS/MUJ3Tm5tYfe21rrFGm70oDfpJiM+vCdkh3dU7FJ8BsQIvQso7JDAHJG077eYEEd7mVk0eK8XFv9qaB/wycRLX1IqfMK6bj59STL3QoCgoAgMM8RmHZCt3s+/77G4R3/s9HY1VsqN1COE5ikTkErwiB2ZissU1oovxVjai2On74l7IzQfVPe+LQ7pf+d9Go7Re4NVHyUTo1+mvoCWKOWXubU3DjFTtE5b2QIAiLwAKmJYHQNUXSaDUunbwm7N16B7tO3KfXK0ekDQs4sCAgCgoAgMN0ITCuh2703Xjk8eOcfRHpvN9CANWMISJaUs84hNDmmFRltJkby8/bpaA5nKQieZvFWzhh01rmPbLBj4fSODUmxMXFLz37klFrPnZJdm/tphpz+TsYyMUxURqIqyNRCq0tL76tV11yG/s23KXX2yHQ/RHJ+QUAQEAQEgelHYNoI3e655h8PH9j637X6Sa1cGWMHzyxJkWVApGIE5BxmCmU3IkQ3W81HoV3Of/GEOW1YFhsLKgN0Nrb57vqO2XiWpOUOfMqKu6Y86hGgdLrzgKPRu9Dps9O9smxrhixgFzQE5XWPx9Wz3ov+jd9SavPBabtlObEgIAgIAoLAjENgygndWqvzPdde1Rx6+PeQPV+OSoMcmWtLjV8RlIpgcqpBhzyi5vy+PREyebuOdecsRiG612+fFmjddbrDpdeLJjlXJx9P6u5eiNCL+wGsoQid2t0CQHsHuNwitQY2iKBL1Lm+5FBY2fAhlDf+q+q6eM+03KqcVBAQBAQBQWBGIzClhG6tDbD3X64aHnzg97QdLFWjFAp1ZM0Gz1FHYcUTeo6ctMkDav0iws78TDml2KnWTMpvTpudld+mzTNNOVlZF2ozUdNInPvqagWFy1th29pSs+NgvtNEJQS0QmIMErq3YCHC0vLhuLzpU7q05ir0XviM4pZ4OQQBQUAQEAQEgaMRmDJCt/bZsnnhvn8eG7n9tyP1Qqh1BpM2EJH9qfcpJ0JjTXbvFGZJFY7/n7666JxNVojQ6SuPs7Xr6lO/wETo1IVPDWy+xk/z8nxN4wm98F/n7ELhjkY3zop1lK6PkQZlJKaEPFzULHWvu6FcPfP9qF38iKKhezkEAUFAEBAEBIGXQGBKCN3aXdX0xzddlY3s+O3A7g2icBhG1bmbOzBVVzcuRGHYw9xFuQVJdka6zjWN6swkOOOi3M7a9dSutuJ0OV8fC9oQidN1+04+1pJ3sqzsgkZpdRLD4csmxzhu5UdiA6S2BhMuMWFl451R1+Z3h33dd8oI2tSuppxNEBAEBIHZjMApJ3Q78GyfqW+7Kq3f8xsqf16HZHtqG7DBGAKqGaeksR52kHORsi4IneClyNzJuzpt9vZlTx+ZH7HsLSEbT+yFkE2uoeg+aQTNWuTGsiZ9SNmFsIKRJIaN+lCqLns47t3w9+g57StKXew75mbzoyXXLggIAoKAIDCVCJxSQrd2x4J013c/ktef/K082a/KOkGgDfKsiYCi8JCEYzjf7O7ZC8e4BrOiC5zS6r4Jzke8HAFzp7gbGZu2ozWH7pv1xsm/+pS71jA5ETldcwgVRtz8lxuFZtZtdXXzj+Lu9R+IFi29WqkLx6btXuTEgoAgIAgIArMagVNG6HbkntPs4MP/lDZ++DabvwCdW9ZeJxEVk2WOhqlmTuYifDj1NFd77pRtLdzSqHZe+JlTFE9a7ZRud1Kq03J4jXnej5AADs+jj3d8y8lAJoyBIEYzC5CkMazqNuXqkkOl0pqrsfRV71fqvAPTcv1yUkFAEBAEBIE5g8ApIXRbf2A5Dt/z4frg9reF2IMocIEn15tZMIYibvpGys5nHHFz53qbmF0TnCd67mwvutqL0S9H6C56n05CJytXGl+jDQeVBFyDnFV0bwlyTUYwIQwqSM0CA71yuFxZ87W4uv5vVd8bnp0zT5LciCAgCAgCgsC0InDSCd2O3b0mO/TIlcnIg28N7W5oM4IwcuRsMqofBwi0I2+bp7CRlx63ZGPqG8Z4iK3DUawYVaPvssk5icw4P/MjNwJTjWa7WuCunQ1UuGRgYJRGajUatmSN6q+Xutf9oNr/ir9R1V+4b6qvU84nCAgCgoAgMLcROKmEbhvfXW8Hd36wMfTEf7bpQcRhEypPQCNqPHlFnd2cWidv8sgZrfiJLJ7ntk4xjWxPVUtNrahPUyRO9qdewIXGvdjLxEXG03O4LncaD1coBGPoSgJY6lpHL9J8UT0ur31M953xfrXwTV+enuuUswoCgoAgIAjMdQROGqHbxg83JQfuvzIbffjNoT6AEBnydAxREMPkKTl2tzVVckpJx1ABzZw7knfjaEUN+ghCp6v089vOGpw2AuSVTt8vIvsOzZVxlqaU3afa+wnKz3R8hjvPsdP6TkreW55SVK4jWFNFjsWNPF/8TG3p+R9RC37pE3P9QZL7EwQEAUFAEJheBE4Kodvhm8/OB564Im08/4sau6EwCI0EAZXMaWyLpVqdaExrbtwTpqPhzmYy95rC0ITtwpmNjyBUb6PKs93ejY2NWpRxcrHjDmqcc/ovxVGkyosu+fHNbB2fQU4xxvuY82aiXRYgUxXqA9BhhNxW0MhLaOS9SVheuae3/5zPYMFZ71PqDJdKkEMQEAQEAUFAEDiFCEya0O3oTa/C0GNX5MN73piZ/QjUIJQaYYU3Fn5j+9NCqpXI2cudFmNprM0+8aY22/JKJxIuCL0DMSbyjtl1Go1jYna+6u7odEvz3y02HGRvynPkZGtKKXbLw3KkM083SCNpKam7oT8Lyiv3lnrO+IaubrpU1c7bfQrXTT5aEBAEBAFBQBAYh8CkCN2OfvM8e2jn5aax92eT9DCghhHqOjSarMFOI2rIqcbtRGHoKAidZF0pEnfR+8QJ/djrWdyWV2rzpO2icj8Sx4TtGu+oo76dBdBE160xOs4Q2ByWNihsd0re7HRfdIchEtVtVXz63kp1w/fQtfE9qvv1O+UZEwQEAUFAEBAEphqBCRO6rX/9tdnQIx/MhvdcpPJhwIxBBQlCag6zTnudo1hSeGNCd6RdmKnQSBcHyieD0LnbvdgUtMm8+B7Pqvtj3Jw7N7O5jUURqbta/dHWp+59XsYVJUBVYHTfgbC26oeqtvoDqv+t35vqxZPzCQKCgCAgCAgCBQITInQ7dOtF+cjsTP1eAAANr0lEQVS9H0jqT12ozSiUbTCBB4UojLEs0eoIvSDTon4+3mbUSblOPEJv3YAvirdq45318tbddozCeRI32pF5QJdFc+S8AenYANDmJAphwxBJHqORVqGCBQO12spHg8raj6tFv/I5eZwEAUFAEBAEBIHpRuCECd0Of+tn8qFHrsjHnjpPGRI4oxS7U3sryJnJnAVWnH55+/BGKi3J1PZ7JgqEa2Yrov8i0rZeTdan0vnDvRRrx4mKWjp9SxuvE286ld6Y6pEhRqJqsOGC0bC04vFS9+rPom/NP4t5ykRXTd4nCAgCgoAgcLIROCFCt4Nf+7mkvv3KvP7cOWE6gkg1nGsaKaOxoxiNh5U65E+LSLfDEW1cd3vhFz7R2yKFNi8ZyzsKVx934jOdqfQjtdZ9VqDoiOfPKCJzkpWlcD1xo3VhPxK7MDV65WO6tu7rcWn9B1X/qwYnesXyPkFAEBAEBAFB4FQgcNyEbkdv+cXGoe0fzBo7ziphEGFG41w5FCu95bCcOqcol2rQ1OhG3WQds+ctjXZHppbS8RzVd0bwJ3qL7ei8eKerdfvUuj8n+63z0TFCV6TVWyNubmMA7RTechUgVTXo6PRHo9r624Lesz6iyq97/ESvUF4vCAgCgoAgIAhMBQLHReh2YMuvNIfuv9Kkz68PzSACU2fCZrmWlisaETmRdTGnTWydt7rKHdES1dLr2nVqp9k+GVLvdFOlZjaXFSg+l+v4xaaB9ePp3L7pjbzJU7chQWiAOEZmS6ibGhAtey6orPxebdFZV6n4oh9OxWLIOQQBQUAQEAQEgYki8LKEbgdufGs+8sSH8sbja5XZj9DQmBcpvRVd7D5KbtWyC2EY7jIDqL5e1MwpMm8Ruhtjc13mEyT0TvtSzgy4jQKn4TmdTmconNtobpyujUbOOog9oBl56t3TSHUVWdi/V5WX31XtP+tzqvqmGyYKrLxPEBAEBAFBQBCYSgRektCzwa/+Wjr48Id08sIqle1FBDJFIeKkpjMibNfF7tLsnYfXaOeo3BG6C89PLqGzFjyNv9H4mdd0Z4MXruXT+Qyn0ElDntzPSHPdFkpvmjIJMfKghmZWg1H9A1Fl1V3lro3Xo2/jtUqtbUzlQsi5BAFBQBAQBASBySDwooRuG1t+fmT/9k/pxrMr4uwgwjxxzeRc+yaZFdIvD6BN4BvTiss4sjGtiJLpKxF6ZwNaOzU+kZs4ktCVcVE6R+asEOdcz7jGz97llA/gCXmANNeDHgwnXVm1Z91dtd6NX0Zl8dVKvW54Itci7xEEBAFBQBAQBKYTgWMSuh2+7Zz60B3X5I0nzy3nw4iIzFkAhviyyXSec3o7AP3XPtpjY0VUfnQyffzMebth7cRhcG5tjrSJzFvjci4d4G1MUxitoHSILIiRmRCZjaHDijXRafcEtbNuqVbWX6PKFz514lcg7xAEBAFBQBAQBGYGAkcRurVbo/zg9mtHBu/5tbLajzhPoDKqO5M6GhH6GJMoEzo0/zeuU73Tpayjm719u50d6JOfQ2/7kdMIW3GWYmyNLpEq/gESW0KuumB0D8Ly4ofLtcVbdNe661T8Cw/OjKWQqxAEBAFBQBAQBCaOwNGEPnT9W+qH7r3BNB9XtWAMbEtOqWz6Q83hAaWv6Y/TOCe99pYjGjeg+Qh83Gx3ex6dO9+5M74Qo6GmtIkqxSmfwnfmKq6z3XfWe6lWhNS5XkWq+qHDZT/S8aqvR9WVN6j+i0WqdeLPjbxTEBAEBAFBYIYhMI7QrX22nOz60q1jI9suKKsBboLTFJnbyJmscEN7DhsYZCrl1HtofWTcci/z89wtQvfjbHzjlB6nJjnaJbw8oR+rHsDl8dYPlEu1tz6byJwa4MgYLURuy8hVH2ywaDCqrv961LX6y+iOb1bqYndyOQQBQUAQEAQEgTmCwHhCH7nzpwZ/8pn7K6XntE2biHUAlcWug5yInQ6d8p+Uxc8NAh5j6zhaym2dzW8dEThH5+2UuKt9k9+4sz4tDicjyycEDInUuDE4G2jYwCKjznarESX0Omp4S2GCFBltNlBCpvuQYkmzWt34jbh6xleDng03KXXG0BxZN7kNQUAQEAQEAUFgHALjufjglr8e3f+FS+P4J7C5QahiIA+hKTrnSJ34tclReh4YkLFJmLt0dztqdp/vutn93HdnSr1Tya3Qf+ctgSuAj78gCuqJrDVAIjCc5s+QW1JzM9yQF3BnO3WtWyQWSFQIGy9GVFt1S1Be86Woe90tSl34gqy7ICAICAKCgCAwlxFom5XZHXHy43tvzEfv+MVY74ZF6pTgWM41gsp9lzvPfecwgWHS1iY6ooY+PtI+Zn28pbnuZtOdJKvXZS8a2yi1z813OSx1qSsFa63L2FNvHu0giOQ1kNoAuekBgiUIy6u2hdU1V6Nr+RZVPv+Zubx4cm+CgCAgCAgCgkArs138j7V3VYYeu/vR2D62Olb7oVTTGZ2ACFtzrbpVAydhGe0IXRlnxjLOEKUl+doJ9LEb3wpJWErrt6xUaR+hMhhNGwc3826MgbYaoQ0QkiUrbwRC1IMQedCPOF7xZKmy9jOonfEdVXvNVlliQUAQEAQEAUFgPiHQEaFvrR56+Jt7uvSe7hD7oXXDuaghcsTthVqUr2U7sqdZdErFk9Rq0V1OIXQO97p2TbyIxJ3euz8tK7clHm+vImeD1o/JydSYDFo7b3WlAihDjXA0MhciQRea0fLDUdfqqys9q69R1TfeN58WT+5VEBAEBAFBQBA4ZoQ+uPPb+2p2d1ekDgFqzCusEaE7DmaNNUp7t8J6GhsrutjbqmxOR/1FCJ3NWzrH2FInDuNV5GiTQESufeqdIvMgCGB1gDwNkZoStO5CXFmUB+Uln0XXmZ9H18J7lDqvLssqCAgCgoAgIAjMVwTGRegjT97ykzh5uj/WAwAoQncpd46U/SsDInQqk3vC5Xl0JvAjDVGOhLQYZ/OE7l/PY2Y695aqRfDujVWUIV0YWKqRU+c6epDrpYjKa74SV9d+GgtW3qfU2Yfm6+LJfQsCgoAgIAgIAseI0J8tN57+xlbVvP/sUrCfvc45ra5D9gen4TTuQyMxGe57I2KmWnrSJnROzb+USEyRbi864F2t3Auv+2vyOwU/1650hMyWkekFiCqr7g27Nl6J3nW3KfXq/bKMgoAgIAgIAoKAIOAQ6IzQo8Zzj3w2tHf8hm08iYhS6dRZzilwjdy7lBGhB/Q2InRLc+EkBUtRe9ERT93wR0jC0F8prW4tj5yxGxrXxGmTYFzDG0JoFTnv8pya4RRUXEVie6ArKx6PujZegfKq76nyRU/L4gkCgoAgIAgIAoLAeASOmEP/zv8YGfzSv0TmaZRIhz0jRzXNqms09e3q6CkC+rYhydYOQveNakXDWvs01CRHIT012FHU7+vx1OCmFHIaM6fmOuPOp1UJiGqwqoKxvHtPdek5V6CyfAtKb3xSkf+pHIKAICAICAKCgCBwFALjCb3+4IqBPf/6RGSfqlSIOpOENV2s0rDW1dI1Uq8AS1KwFGFTyp0CcG9dWgi9cPzvpFgL/XZ2R2tJt7rRswAVmMyCEgAqKiPJKkjMwqTaddbH9ZJX/Avi8x9Tij9IDkFAEBAEBAFBQBB4EQSO0HJ/sjS894ZPmbGH/1s5baJkE8BQt7vTRuf+dh5Jowjd2aZSQ5sba6MUvJNxdUchMOOb3ojYNY2paeQ0t07jaXmIwJahwxpypZGggnL3ys8ECzd/FNErdiq1tiErJwgIAoKAICAICAIvj8DRbmvNLecM7r3nXj2yu1oL6ggMyZ9nPJ5mOSJ3Xe7FWFlrpI0JvaMpjkfRMuQU0fMbnDOaVTFH+zRHbmwJga6imdUQl1d9N1q86VJ0LdwqI2gvv3DyCkFAEBAEBAFBoBOBY/ihW9U4ePVfpoce+/tStgexGgAsjbC5CN0F4I7U3VgbHU661X31H++FZjjNTv1yCJGbEMaUYVUZgarCBN1AtPC+8sJN70X3pruU2nxQlkcQEAQEAUFAEBAEThyBYzmUwtrbF2Pvzn9LBx95c2T2AKruus95fI2K3TTE5sfaWqJvblytTeg0jkbiMtRMRzX4ErK8AthuBGEfgtLC51Fa9jdYev43hMhPfOHkHYKAICAICAKCwEtG6MUPbeO765Pd93/BNp46P1KDUGjC8My4OxSyNnm3vuekXgt9dkqxZyRMgwqgemHQizBcfDAuLbkCfSs+q2q/sFuWQxAQBAQBQUAQEAQmj8AxI/QWqdsH147s+v7HTPLszyN9ARrDKAU0tkaz4hSNh86FjQ5tgIAIP2OVd5pbz1UViakhs32w4dJmtXvdpyrdmz6E8n/4kYygTX7x5BMEAUFAEBAEBIF2oP0yWFj7UH82uO1PRw49+q68uTsqqRGUWOo1hzIWQVwCD5M7hoc1BplVyFQX8oCkWhebcm3VjaWFG9+j4osfEOgFAUFAEBAEBAFB4OQj8JIReufp7PDtZ2H0hXfmI8//Wjq2txzqEYRRgqx5EDAJYGNudoPqAnQfVLgkM8FpN8cLNl6GBRfdp1Sn9drJvxH5REFAEBAEBAFBYD4jcNyE3krDj3xzKUaefzPGXrgE6Z5XAEMrYZsVoNpE2LcL0Wk7UF5+K2orr5ca+Xx+tOTeBQFBQBAQBKYSgf8PGFJWlGcanKIAAAAASUVORK5CYII=;rotation=-30;" vertex="1" parent="1">
          <mxGeometry x="433.13" y="250" width="41.74" height="41.74" as="geometry" />
        </mxCell>
        <mxCell id="lu7XamibzpSkQB7wHSbF-16" value="" style="html=1;verticalLabelPosition=bottom;align=center;labelBackgroundColor=#ffffff;verticalAlign=top;strokeWidth=2;strokeColor=#0080F0;shadow=0;dashed=0;shape=mxgraph.ios7.icons.cloud;" vertex="1" parent="1">
          <mxGeometry x="680" y="60" width="220" height="120" as="geometry" />
        </mxCell>
        <mxCell id="lu7XamibzpSkQB7wHSbF-17" value="" style="image;html=1;image=img/lib/clip_art/computers/Netbook_128x128.png" vertex="1" parent="1">
          <mxGeometry x="750" y="100" width="80" height="80" as="geometry" />
        </mxCell>
        <mxCell id="lu7XamibzpSkQB7wHSbF-21" value="SERVICE PROVIDER" style="text;html=1;strokeColor=none;fillColor=none;align=center;verticalAlign=middle;whiteSpace=wrap;rounded=0;fontSize=16;fontStyle=1" vertex="1" parent="1">
          <mxGeometry x="363" y="210" width="170" height="30" as="geometry" />
        </mxCell>
        <mxCell id="lu7XamibzpSkQB7wHSbF-23" value="" style="endArrow=none;html=1;rounded=0;strokeWidth=4;" edge="1" parent="1">
          <mxGeometry width="50" height="50" relative="1" as="geometry">
            <mxPoint x="220" y="139.58" as="sourcePoint" />
            <mxPoint x="340" y="139.58" as="targetPoint" />
          </mxGeometry>
        </mxCell>
        <mxCell id="lu7XamibzpSkQB7wHSbF-24" value="" style="endArrow=none;html=1;rounded=0;strokeWidth=4;" edge="1" parent="1">
          <mxGeometry width="50" height="50" relative="1" as="geometry">
            <mxPoint x="558" y="139.58" as="sourcePoint" />
            <mxPoint x="678" y="139.58" as="targetPoint" />
          </mxGeometry>
        </mxCell>
        <mxCell id="lu7XamibzpSkQB7wHSbF-25" value="COSTUMER A" style="text;html=1;strokeColor=none;fillColor=none;align=center;verticalAlign=middle;whiteSpace=wrap;rounded=0;fontSize=16;fontStyle=1" vertex="1" parent="1">
          <mxGeometry x="25" y="200" width="170" height="30" as="geometry" />
        </mxCell>
        <mxCell id="lu7XamibzpSkQB7wHSbF-26" value="SEM VRF" style="text;html=1;strokeColor=none;fillColor=none;align=center;verticalAlign=middle;whiteSpace=wrap;rounded=0;fontSize=16;fontStyle=1" vertex="1" parent="1">
          <mxGeometry x="730" y="430" width="170" height="30" as="geometry" />
        </mxCell>
        <mxCell id="lu7XamibzpSkQB7wHSbF-27" value="INTERNET" style="text;html=1;strokeColor=none;fillColor=none;align=center;verticalAlign=middle;whiteSpace=wrap;rounded=0;fontSize=16;fontStyle=1" vertex="1" parent="1">
          <mxGeometry x="369" y="360" width="170" height="30" as="geometry" />
        </mxCell>
        <mxCell id="lu7XamibzpSkQB7wHSbF-28" value="" style="html=1;shadow=0;dashed=0;align=center;verticalAlign=middle;shape=mxgraph.arrows2.jumpInArrow;dy=15;dx=38;arrowHead=55;rotation=35;fillColor=#dae8fc;strokeColor=#6c8ebf;strokeWidth=4;" vertex="1" parent="1">
          <mxGeometry x="930" y="80" width="170" height="130" as="geometry" />
        </mxCell>
        <mxCell id="lu7XamibzpSkQB7wHSbF-30" value="" style="image;html=1;image=img/lib/clip_art/computers/Netbook_128x128.png" vertex="1" parent="1">
          <mxGeometry x="1180" y="95" width="80" height="80" as="geometry" />
        </mxCell>
        <mxCell id="lu7XamibzpSkQB7wHSbF-32" value="" style="image;aspect=fixed;html=1;points=[];align=center;fontSize=12;image=img/lib/azure2/networking/Virtual_Router.svg;" vertex="1" parent="1">
          <mxGeometry x="1270" y="162" width="68" height="68" as="geometry" />
        </mxCell>
        <mxCell id="lu7XamibzpSkQB7wHSbF-33" value="" style="endArrow=none;html=1;rounded=0;strokeWidth=4;" edge="1" parent="1">
          <mxGeometry width="50" height="50" relative="1" as="geometry">
            <mxPoint x="1270" y="182" as="sourcePoint" />
            <mxPoint x="1200" y="162" as="targetPoint" />
            <Array as="points">
              <mxPoint x="1200" y="182" />
            </Array>
          </mxGeometry>
        </mxCell>
        <mxCell id="lu7XamibzpSkQB7wHSbF-34" value="" style="image;html=1;image=img/lib/clip_art/computers/Netbook_128x128.png" vertex="1" parent="1">
          <mxGeometry x="1580" y="88" width="80" height="80" as="geometry" />
        </mxCell>
        <mxCell id="lu7XamibzpSkQB7wHSbF-36" value="" style="image;aspect=fixed;html=1;points=[];align=center;fontSize=12;image=img/lib/azure2/networking/Virtual_Router.svg;" vertex="1" parent="1">
          <mxGeometry x="1490" y="162" width="68" height="68" as="geometry" />
        </mxCell>
        <mxCell id="lu7XamibzpSkQB7wHSbF-37" value="" style="endArrow=none;html=1;rounded=0;strokeWidth=4;" edge="1" parent="1">
          <mxGeometry width="50" height="50" relative="1" as="geometry">
            <mxPoint x="1558" y="185" as="sourcePoint" />
            <mxPoint x="1642" y="150" as="targetPoint" />
            <Array as="points">
              <mxPoint x="1642" y="185" />
            </Array>
          </mxGeometry>
        </mxCell>
        <mxCell id="lu7XamibzpSkQB7wHSbF-38" value="" style="html=1;verticalLabelPosition=bottom;align=center;labelBackgroundColor=#ffffff;verticalAlign=top;strokeWidth=2;strokeColor=#0080F0;shadow=0;dashed=0;shape=mxgraph.ios7.icons.cloud;" vertex="1" parent="1">
          <mxGeometry x="1300" y="260" width="220" height="120" as="geometry" />
        </mxCell>
        <mxCell id="lu7XamibzpSkQB7wHSbF-39" value="" style="shape=image;verticalLabelPosition=bottom;labelBackgroundColor=default;verticalAlign=top;aspect=fixed;imageAspect=0;image=data:image/png,iVBORw0KGgoAAAANSUhEUgAAAfQAAAH0CAYAAADL1t+KAAAAAXNSR0IArs4c6QAAIABJREFUeF7svQeYZUd1Lbyq6px7b6eJmtFETdIoIgkFUEJCo9EoC4SQBgRCgACbJCQkEQQYTDA88LPxD9+PsY3Ds3kPGxv+Z/5nGxuwMEEooTSKozA5T+e+4YSqet+uOqf7jhghTXdP33v77qOvNdPdJ1Stqrnr7Kq91xLggxFgBBgBRoARYAQOOwLW/r4EVnZg18NvwL6HP4jKxqMR7Z+FxEqoAIA0KHYOY/bS5zDnxD/Hked/B7ipLIQwL6dx4uWcxOcwAowAI8AIMAKMwPgQsNYK1L5/VLTjwY9X9z/1dlPe3hHovSjJfZC6DCEUlAxhhURNC6RhN2xhISK5POmYe8pfdi961WdF9xW7X+rpTOgvhRD/nhFgBBgBRoARGAcC1n5XYdAsT3b/8uOVwUdv0tFOKc0wBFIoJOhAAtjE31ko95UaCW0UUkhoIaHlTATdx4/MOvI178OSN/2TECtqL9YUJvRxDBJfwggwAowAI8AIvBgC1j5TxOBjS+Jt931Slx9/Z1J5GsrshgrKkEpDCAEpAiC1sNZC2xS0pi5EgFCGEFY6opciRioEIjMbSeE4dBxx+TeL81/7CTHrvP6DPZsJneckI8AIMAKMACMwCQhYe1cJ0fYl0Y67bx/e8+B7UduGoh1Gl7SQUgNGw6YxLJF3AGgNWAWYALD0QwvQTrrSgEj99yjQ1jpQTkuolI5Baf6ab/cccfXNYvaagRc2mQl9EgaRb8EIMAKMACPQvghYe3cH+ravqO6+785y/0M3KPM8OlQviqoGG8eglXVJIbgkJs9wor9bQCticE/oRru/OkJ3ITsd9HcFpCFQUR3QpZPRM+/1XwmOuu7TQqyO6lFnQm/fOcg9ZwQYAUaAEZgAAtb+ogcjDx9V2fbIbfHg8zeF8Q4UzCCEHoHQERITQ4YCMrCOvIXNyJqYlwhdAi4Qp1/b7Ef0pw0BUQQssXnVR+lE6BFQSWZixqzTUVhw8dvE0o9/mwl9AgPIlzICjAAjwAi0NwLWPjATlc0rB7f9+6dt9emrUdmFMOlHyZShdOyXyiUluQE2EDBIoa320Tf93OXCaYiObKk9y4lz11GOXNrh1+SVhcYIjARkABgDmLQIKedAhydWS2d8+JWidMXGfDQ4Qm/vecm9ZwQYAUaAEXiZCFj789kYfHyV3vPAR0b6Nqw3yXYU7DCU1QhsioAiaktr5dl6ORG6oO+kK0lz39SvurvNdA1B19Cv3GXE3J3QEjCqCq0S9zuK7qUOIE0IpSVqYiHM3DX/1vnKdVcLsT6uv+/L7A6fxggwAowAI8AItBcC1j44D30Pr67teuj34sENl4Z6C4pyEDYZgHQsTOvn/hgl5+x74mz6vSN1iIzTHZNDmgDKkXnkCd2dLGFtEVoapCqBoc13QcvwQJACygQQhgrfZqHafTx6XvGmU0X3Bx5mQm+vOcm9ZQQYAUaAETgEBKz92Tzse/T4Wv/9d0ZDT1wa1PYgSIcQJCmQxlCFLDXdBd8GmgTd6ta9XVSdkXT+WCOMJ3USh9MdLvKGLPvl+exaQ3/P+X30TcHf2kfqIWL0oKK6MWPpxf9TrfiLG0lNjpfcD2Fw+VRGgBFgBBiB6Y+ALf9iEaqbjx/afe8dovbUpbryNGSyCx0yQUhL5yYEHOtSpptxrJ0Tek7KecTsCJs4O/tzDD0JoYvuW6siENHXk7q7ru5ax9YZ6VsrYWwRNQOoWWf3d5/6lSOFOCNhQp/+c5N7yAgwAowAI/AyELDl/1iE2jMnV/fd/4lo8InzRG0HCmIYRashTeKSzkkIRroMdQFSdPUHkbGvNcvDZPrVAeSeZ7m7LfbQXyYsrDQwULBCu7/n++WK/krnOpEZOpf24QEtU1/qRj9KgJo6BTNO+9J80XP5Pib0lzHIfAojwAgwAozA9EXA1n6+EgPPnFDrfeBDlcEN61TyPIqqDwVbdTztRF4oR11SORnlrMcu41yqAMIKEmk9YO/cJ8J5Qq8ndeJrImqnJOMYOXXb79olzRF3+2Q6V97mCJ1WA2TG7L6I3UqLNEjd8nuQACPmOHS/8pNvEfPe9h0m9Ok7R7lnjAAjwAgwAr8FAVv99xUYfuSMeO9Tt1aHNp4j420ITS+KogJBkTPxLQXIMoC2BoZYnBLUFKAUoNNsT5ui7/rnUF05kbrbCycZuDy7najb+HPzJfjRTPj8R5T0FkJa6V8SXKV6rveep8i7RrlIP0qXIzz+vV9Vy2+5jQmdpzsjwAgwAoxAWyFgh391PGrPnja886fvEtEza9LqDoS2HyUx6ErQfHjtg3L6O8XDVlhXGu4OUnWjaDvLTHexc/0euU9ih3X0TTJwWRa8IEKnt4Ds/IOQOkhUxgZuz50q2L1UnFsiqDvylwSJOF0Gs+Jd3+o49mPvYUJvq2nMnWUEGAFGoH0RsMPfPx4Dj56b9G14d1rZfKau7UUAsi+NoGwMIRLSchk7skibfnCwFPIXJrrVE+rYbcZK2vyNs2X1sb9m6et5zfrY412+XV4SV0/+1hXAuVvZ7qMxOOtdX5t9/J23MKG379zmnjMCjAAj0BYI2OEfnoihpy/Q/Y+8NRl+/GyRbEFgBgAbZ3XkUw+Dz2KvI/v6LPfRmnS/GiBsvjTgy+OIyV21mwBG5FJ0H/uZ94oj3/1nTOhTP478REaAEWAEGIEpQMDu+8FpqD5xQTz48JvikY2vNulOKFNxam6UtV7Il8CnoC0He4SL+q30++V59O4IO9srz0rXvMpcnhznf0/XKlXAnupyHHn+11aL0qXPMqE3aCD5sYwAI8AIMAKHBwE78O+no/+pi+O+R65Jo41npNXnIOw+hIFGIZDQFPFqA0nlaKO2ZoenLS92V58w5yN08j8f2zMnkndr7e4YU5rz37v2UsKdldDyCAzYE8rzX/vfZ3Md+tSOHz+NEWAEGAFG4DAiYHu/dxaGH7k8HXzosqj8zBki3otAVJwYjKWUdW1grXEZ7JSp7pLIG3SM6ru7rHd6ufB0TQbpRPA+S5503LNGZsvzLkueSt1sAYPRMsxYeuU/B8e/7loh1qQcoTdoMPmxjAAjwAgwApODgB3817Mw8PTVUe8D65LyE6dJvQmhIJ11n6juiJJqvw1luVEtWuZV6l1NG3hQC7OI24XjROgkOkOETj+ncjXjCd5aKOqNSB2hx3Ymhu3pmHvGO9eInrf91EX6DewJP5oRYAQYAUaAERg3Arb8vVdh3yNvGtz7yFpE217ZKXsRYgg2rcAkCUQQQKfW1ZAraRFSbhmJtzgT8ry0bNyPn9CFL6xFd4v/QjkTFx+V++0AtxTvpOEEhKA/NazSiLAE4RFv/K/ghK+uEcIXzTGhT2hI+GJGgBFgBBiBqUbA9v/L+Rh86rry3nvOtslzp9t0P0IxhMAQmXsSVIUiTEqROJmJ+8hcWO23p3ODtExVdarb78j3Be4rWgZIRx1WvRJcmEnF+21+BXJUt6KEVJZQwyrMPun954q5b7s7bz8TeiNGkp/JCDACjAAjcMgI2IG/Wav3PfzmpO+Zs01t64lK74ZCxd8nK+dy/uKZEMsBFeCja+tZxnj9NYfckolf4Ag9E7ChlXatJIzKndgAmQBO8Z1Ymrb/Sce9UEDNzIMqnYCuBWs+KZZ/4ov1LWFCn/i48B0YAUaAEWAEDiMCtvfv1lWGHr/BDj35alQ2Hafi3ShiEMJ4H3EyPTMIx7LGSV1NpKMu5bmKm+N0G8AIX+jtM9wbkxnnI3TfDsp417TNT1vkAghoFcF7vYyKztCqe00diUitRs/ci74RHn3xHUKcU2VCP4wTj2/NCDACjAAjMDkI2L3fuhTDT94YD2w4I6luXo1kHwSGIKVGQOF3HnVnTmY+oSy3KiU1tUyEpSlDV9JqL8BCI5WJ43Yic1KqkxSO01sK5cSVfE7fiO5A0nUKZixY900168LfEzPW7H8hyk3ZzcmZCnwXRoARYAQYgVZEwPZ+/9La7vvfaQY3nI500yqV7kIghiCV10F3ETlFtVnnXNK6syUnkqRQl9jRZ5D78i9i/HTUkzwnvoZmuNNKAa0qOH1Xv9KQWatDaMre830lMq+JHsSl1eiYd9GfhCsv/oIQF/UebFyZ0FtxtnObGQFGgBGYhgjYvm9fhl33/W7c/9gpVu9cLkU/rB2GIJ11qX3Gt7EQWjhX0Tj0y9VhlujmrUmdWXlmNSqhBZH6GKE7rfZ8lf0F9qZTCSllszvfNSHcnj+RsaLSOnpLIWc3qpUvBRisdUJ2noqepRf/IZZc/kUhTh14sXYyoU/lCPKzGAFGgBFgBH4DATvwjxdXt91zc7L/oZNCs31ZSfVC2CGXGTa6y+2IWEAYQbnegJJIpPYSqLl/eJ45TlE6JZoJ6YgxZ3CX/V6/bT6aVT71g0LtNpZK0YT3P6f0e/cyYv3LiiiiJmdAdZ6AnvkXfw5HXfEVIU4p/7aWMqFP/TjyExkBRoARYASIuvZ98yrsvvdDQ/3PHaPQe1Qh6AfSfpi06mLs3M1MGAWhpNtjtkj8ajodrp6c6rbHirBpCTt3RstsyEexJjI/wBTFRe+NGwqK0t1aglsxyJYNFBArgZpciCQ4CXOXXfwpHHn2H78wAY6X3Bs3bvxkRoARYAQYgQwBu/cH64f3PvBe2XfXcQW9eaGxZQhVg0DFibmRixglvQmrXPq31T6StULDInURrPMfc4QejO41ezKvI+ncd5zOpftmm+Zun90lmU80wz1TenvRkf3N349m3NPLCXWUXlxItJUM1un0AKiFR6Aij8WspW/4mFx0+teEWFN7OZOnge8mL6d5fA4jwAgwAozAdEHA9n79upEt99ycDD1zXKfqn4ekFwGqLmHN+4TSn/4Y8xo/uJ84nePJMSfnsSi33rv8hZ7lk4dlloDnpFv9i0GeZJc/X7hKcpJupTK6OjEZ46VdqwooFgFFxWekKqOKiEw3dPfx6Fy27lYsfPM3hVgdvdw2M6G/XKT4PEaAEWAEGIFxIWD3/e2bB7ff/WEz/Piq7mD33EDvRrUyjI7CuG7XhBcRuY+9UOTL+BSBkwZ7/oJC6W+O9angnPb2OwxqNb/aoEQPavEMoPMY07Fs7S1Ycu43yXDlUDrLhH4oaPG5jAAjwAgwAi8bAbvrG2+Pdj74oVrfhpUdqndWqEaQpP0QMkVYCqCjqC4Sf9m3bYoTnf1pJh0r02LmaU7lZ8aTdpZw56J1Q/v/Xo9dOoKnBDiSoyUpV4NEGVTFLIjSaemMpZd8AAsv/GuyQz3UjjKhHypifD4jwAgwAozAb0XA7v+rG3Y/9/PbSvGmo8NoS09o9qIQRn513KQuu5sWqVW+odyCeBJRpxRaU4a6DqAocY+W1ilb3TmleVInjRjn+Ub5AK4+nkxXUghKBIgU0DkHI0agVlqWHHHMNe/B3I/+nRDj29xnQm/BicRNZgQYAUagGRGwu/772/t3/PJ2XXlmRafq7bZpL7qKGjAaCUmuGyAMnO0IbEpuaJToNtHEtMYg4Qjdl7v7sjnaJtcdPmyXZe/Ymqu7CgHjCJ1O15CCZGcJj04YsRgjheNqXUsv+N1g2e1/O5HeMKFPBD2+lhFgBBgBRgB2z1/dMLTt3o/Hw4+s7JS7OorBXghdhVRAFPsothD6oJXk1yVFrIUCkEYtTei5Z6kLxomsc0JX1C+v9OZeV4jc6WRSgCMyF8T+IeL4CKDj5L6OpVe+Vyy7+R8nOpWY0CeKIF/PCDACjECbImB3fPZdtd2P3j7cv3VFUYyUOsMRCD0Iq4dc6RkdbuuYVpzp71R6Zi10AiQJWj4pznXRsXoAUo7PjVb8q8tY1j7VzROhGxPACgWpNLSYB1M4ta9zwZoPiKM+8veTMYWY0CcDRb4HI8AIMAJthEC680/fNrDz7jvD8qNHF80uWj9HoBJYUwOxtaIaclpaJz9yUoNxZdbWfUvRKpG8oqQyXV+e1loAjvqZO2Eb0mSnknmvyQ4Teq0b60VwCAJKV08RwohuWDUDsVi+dfbq6z8o5r33/5+snjOhTxaSfB9GgBFgBKY5Anb/H93Yv+nuT+jBTau61VBQ1PshRBmaJFgl6Y97AHKzFEU/oC9nJeYLx61MnVWoi97rxF5aDTonTpPQ5rlydWca6ahjmiBJVyNgawayAGhKaA+BtNiB4WgOih1nbpqx4qpbxLx3ThqZOzxbDURuLyPACDACjMDUIWDt3R16/71v3fP83Z/Sw08tnRUMyS5Rga0NQpH7mTQuD8w5ftYxCu0pe0KnNffscITu1dxy4p+6nkzuk0Zd3ah7Ujtud32iHQb6O4XkYQdcoXkRSMIu9KfdCGad/tScJW/6gDjixv+c3BYxoU82nnw/RoARYASmBQLW3tWNnf+5fmTvPZ+MBjeu7FTDCJEirZVdZF3sCJHqWp0CWqZLPqreNibB6uhbGFernUfm9GerZriPvp9Q9rrwjm9UXk64BLmbG73h0FdHEVZaDJu5FjPOe2LGUVfeIo644SeHY5JwhH44UOV7MgKMACPQoghYe88M7Hz4ur3P//j3i3bjEpVuRWgHUKSaa+LjrNTaKirFsi4ql0Z6YZVRzVViN6rgyrTV67CgyHZMzLU1S9aoO66rWUdyyVdP5pkfuxEw2sKEPYjVHKtmnPpQcdkbPiDm3nDP4ZoaTOiHC1m+LyPACDACLYSAtT+bh63/9ebhbb/6hK1sWlAqDAG6gkKRousUcXUEwlqEuVwrLSk7JVMqxSK98jox89EQ1i/Dj9ZjZ3XZuZ4MycscPq31wwu+i8opez/LA/Be7eHoDylPQHV1YvdgyfbMveS+rlXXvF/Met2Dh7NVTOiHE12+NyPACDACTYyAtVZg5O55pvfBa4d33fv7orphXne4D9L2wUY1CBUgTsgFLECBhNeptjqueYamiJ2UVZyXaZ3JeM4q2dK721e3MrM0zUxM6AXgAAOWJgbpRZrmCD3rK+2Zu7QA7V5RoFWIWHYiCueawszTftW98LrfFXOvffxw95IJ/XAjzPdnBBgBRqAJEbAjPz4S+//jjen+Rz9VHtq2UIkhFNQwbDoEYQ0Kzp/UuZKTWitSa1z5lQos6D9aelfZ7ykDzEXidSSXR+Fu35yW44n0nSxqBkb2Z75c3YQQvUSTqF8k90ovLCQU419WaNs8LnQhDpabtPTqn8097ur3iNLrn52K/jGhTwXK/AxGgBFgBJoAAWu/q1CZMT/q3fyG4d33/n5P7f55Kt0Ci8iJnQipoYmbsvJxIm1JQbizASUO9xlftDdO57gs9iy5rZ7M8676srT6RLjMuIROcGVsY5ajTQDP2Ka413fLHNR8y3w0TisNY/v+Ku3wijEydoROXY1kiLh0jImKJ//XvGNvvEl0XLZ5qvrGhD5VSPNzGAFGgBFoEALWWonq9xeh94EbRnY/9HFTfn5m0Q5A2TKEILvtMU9vR1u/ETbXe5JTotvBBWHqfcgPdh8XzdaxTqOj8zFvmOzFhCTtXBO1xySQQGrcagSp5ZACe4IUJgBINydIi0CceiH3UCCxBQzZpVrMWfvjOSe/8SYhLt45lUPOhD6VaPOzGAFGgBGYQgSsvStAbXhRvPPht0SDj92J8tMzZLQVRfQjyMrDG02qUwjHQR9VT+o2I3RyRKNtBy/rmh0kbycktEicJLsrP3fCcBIGBrHoRhKu0nLmmT/sOun6dwixZv9U940JfaoR5+cxAowAI3CYEbD28QKijUvT7b98sx58+k499HyX1L0oqhqEjGFsCmOSlrYvnRQIc735uuo5S0l+Ts6VbF5dYO7FcWjN3aajHuhuBUJ5FbiaKqKGo3Wh54p/6zll/Q1CnDE4Ke07xJswoR8iYHw6I8AIMALNioC1m0qIHl1W3XXfTcO7H/5wF3aEYbQLKu2DQuLZicxRhHL8pCgKzfaLm7VPDWtXTvb0pw6gU8pfNz6p36X4W9hQoIJOVMNlpjjnvB/0HHvDW4Q4p9qoNjOhNwp5fi4jwAgwApOEgCPy/l8dk+y798ZK/+MfQLy5FNj9KIgI0tYcidO+ONVMG9oupz3w+m3xSWpHq92GltspIieqdqp1WTmd243IFN8sitAkoAONQAgIspEjECExRBaoxWNMMOOy78868aYbhFhNCQkNO5jQGwY9P5gRYAQYgYkhYO0Dndj//PHV3Q9fXxt44pYw2RyU5F4E6IU1kVsydlVVKstWz0vFSO2NlpMn9vgWv1rC6bFb4cxijNSutI4gcri4xQsJawrQKoWQpHCnHJkLrZGILgx3LNdy7vn/a9axX3u7EGO78Y0Chgm9UcjzcxkBRoARGCcC1j7Shb5HTzH7/vMNtvLszdFIXzHQZRQoGkcVMBWAlthLgdv3TTSgja8Tz6Nz54jWwm5n44Ru7DIbeGU3WlFXtDeejCbgq3wngpYxtNektyqEtgWHpZQBkuIyo4689K+6jv7Keybclkm6ARP6JAHJt2EEGAFG4HAjYO2PZmJg+6nJ3qffWNn30Ps6xVNKxDthtEZBEXkTO6VewCUIYOKURN7clq+rE4dASo5noOiUjERaV3p14lhTWE66tlSnlngVvNEkOS+oA0mKOv4UGwaIbAdq6EHQsVTLnlP/vOuEb75/4u2YvDswoU8elnwnRoARYAQOCwKOyAefezX6Hlk/tPvRdwTxvsDVkZt+R0YUQdKycS5F6kRfcjnSeo11QXvFEintAxOtE6G3aVKcq6UXBWitEZCaDrE5vewYIKWyNKpSo211ReDSDrpENehANViZzlhw1ddLK75422EZ7AnclAl9AuDxpYwAI8AIHE4ErH1oFvY/ed7I4AOvq/U+cmNRby/I6nZ0qQSQCemxOh5yZD6qZuYVzg4gdFpC9unZLvDMvctb2RxlMnB3ejGjWjeZS5qw0NK4pEHKfUtJNyYIEGMGauHSdNayi76ilvzRJyfj+ZN9Dyb0yUaU78cIMAKMwAQRsEP3zoXZeEG8956rasNPvNVWtwYi3YdOSs7SFUfWtJeLgs/dck5fRE5mLNFr1NvTtYVCzTG98XxpmRLj2vlwaWzZ6rqr4KMjN5Vx4FikgUJNdCEpHBfNXvCmL6llt3+2WTFjQm/WkeF2MQKMQNshYO0DR2DwmbW1XfdcPbD319d2qD2B1LsRmDIUDAr1pWZSIbJeXZ0InkhduVCdTnJeZu7Lm6Z4Qpe0IUwry/Xc1aak7nPSaV1duxWOzA0WAWm/6dBVCCTCIi3MRVo6utazcO1n1OLPfqWZJyUTejOPDreNEWAE2gIBa385H72PXBbvvvfSePDxa2SysxCIIVdDLigxKzMKSRP3NwRCQYYBUpIpc6VWlOaWHmAm4tXOSH+cXgXoMsrW9lE6kbwzYGnjLHdXsmaEwyShajQq7aNFD1Fym+ipkaiKTsTF1cMzjlr/mcKSm7/a7JORCb3ZR4jbxwgwAtMWAUfke598w/CeB9bWBp54Q1FvDjpUL0JR9oYg2Sav8zQJQ5iELEwVdJzCWosgKGTYEFGn9b4nY6vHRFOZH7kTT3Fuaf4ySVbnbRqhO+c0WsGgVQ5pnYwrwWNNCKM7EYlZMN1HD8xYuu6jYtHH/6IVJiETeiuMEreREWAEphUCduRfFiS1TW9Md/9inS0/e1Va65cKVafspmzFicKQOQiRDB1p7HXDKUkrKAa+NI3MQigpzgftTunMuZ3VWZKOeZJPK/gmpTOUGJgEAsIIFFPya/clf9YEiDoWQXeeuLtr8WUfEws/9LeT8sApuAkT+hSAzI9gBBgBRoAQsCN3LUDtyev27nvyomrvo5cfGWwJZLQblkqngsCRuHbr6gZhQPrhKZQUMNpChgom1a6u3BCf53vhmSWp3ysfK13LEXfL6tk3o1pm2XtAXubWqqOT27XmSYGjCW2O2eocV0Y76JGg37hSP2VhNVDUROgK1kjE6giIuadtL8w9+zax5M5/bCVsmNBbabS4rYwAI9CSCFj77/Ox88G3x+Unzu/f+eAlHUE5LGAYKh2BtG5j/CCU89JdzQm6nphfypP8pe/aGmfUv7wEubKb20sgQRi/YgFlvHY9bS3QigbJvBoLIwUUSbmS1zmZn4YGNVVAVSyC7Hrls7MXvO4OseCmf24NJMZayYTeaiPG7WUEGIGWQYAictO/4XdqgxvOKu/fsK67sD9AtBMdhQhItRMx4WN8COSEntfc+0J8UssjxRjrtyBId5343W1FEMsHsIa2JgQULXHUEqAQoKaAkWAegjlnPzpr4SW3i1m/8+PxtaqxVzGhNxZ/fjojwAhMQwRs+XsL4/5H3pf0PXauLW+5IEgGpYn60NmhYOMhCESIYqCQKY9OQwimpEs5gWkETtaWDsr4d7aw7mtMOcbp2NOPsi0IV2YeSlR1iCRcgo65Zz5YOPKSW8Sct/9iShp/GB7ChH4YQOVbMgKMQHsiYMs/XBgPPHlLPPjQWdW+DeeW7N4gTPtRIvnQuOb01W0cQVByOgWMlMXOx7gQcNsNWS5AKkNoisAF5a1rBBSZ57/PSvJp6Z3gDrLcA0qKi8IeRGIhOmee+fPiknUfETNvvHdcjWmSi5jQm2QguBmMACPQugjYyveWpH2P3l7pf+iMWv/TZ3eKERWaERSlgE2qrv7M6BQq9IEjbec6Qs+MP1q3541ruSNs42vtSZuexGG01E6fPvTb56OE7zL/XfF9wanwCMSIRAEDciVmLlhzV2nuug+L2dc80rjeTM6TmdAnB0e+CyPACLQhArbyk8Xpngc/Wh1+9Oza0BNnlLBdBGkvOpSFiUiZjRKxMuNxInFloUkMJvcjr1d+a0P8JtLlMUInIpcuw5802EmfnpTzxhLl6Cm0kS6R2sCX9imJKFgENf+if+tceOHHRPf6DRNpS7Ncy4TeLCPB7WAEGIGWQcD2fnsJys9+Mtn16Jm6svVkiEFldT8KQQSrKwiUBJIU3rv7EQHqAAAgAElEQVSUDu2StJLckzyg1fcAIHvTthV2mdzhpsV2L3Xr5W29OQ0V71MU76kuFili2YWwazVEz6v+qbD8uk+K0kUbJ7cljbsbE3rjsOcnMwKMQIshQEvr6Pv1J4Z3PvaapH/jiXM6qhK1PiAgxbEYQvk6ckXf6xSCLLu08cvsgYQhdRgpkGQ+5O1sXzoZQ5+X6BF5j9WgG8fhdDhte/qSElaFqJFdanEpuue/9rtYdMmdonTl85PRjma5BxN6s4wEt4MRYASaFgFb+/tjzK57P1He/9CrUd1+jLJDqogIKi37TXGElG7luMPZfMjIRYlO8CTf67XZxrkzSvFlVQcXP2laGJqvYZl6niTlW9reoL/YzEqW4vWM2BMLxHIW0HEMOuae8zdy9oWfEXNet7X5OjSxFjGhTww/vpoRYASmMQK29n9WVvb++lMjO+45H+WNK7rVoOwsVAEb+SV1OtySOdU/K2eRYshMRSSe0LPfj5K6y4TLASO1E2+Uwsf4EKCsdXppkoSr83uvGxPa9bDedCUVM5CGR6N77rq/UovW/p7ounjn+J7Y3FfxVGru8eHWMQKMQAMQsEP/67jBnT//vWhww7mB3rUk1EOqIBIoXYNJIoTGQgRA6hTJKOCWfs92dOmXyNr/LtdXJyJ3mdfuKytAV0kWqTegky3/SOl014UQELTiQWSeKfUQsTlp1xAo2wJsx8mYMf+Sb8g5V31OdJ+1p+W7/iIdYEKfriPL/WIEGIFDRsD2f/+U4d33fqo28PBZRbt1EeKtUskyQkH1y8LXjackXKKAQCERqfMaz8l8dC83j8LrST2LJh3pE9PQIX2yHB/jQMCS9n0pM6OJkJKELq2KeOVXpFRnLoswnceiY96lfxIuvfrzQpzTN44ntcwlTOgtM1TcUEaAEThcCNjy/zg13fbrT0b7HnuNSnbMCzAorR5GWCKZ0Bhpqim3DaQPU3DuKKG3PhM+wh6NwrMGHrh37h3Qch9yEjTxe+2+tIqz3Mc5qkToZHVKSx8ygnVuNQUXmVuZIpJdiNVyzFpy6Vfl4us+K8QZg+N8UstcxoTeMkPFDWUEGIHJRsBG3z1pcMsvPlve/ej5XXbP7JliQCLa5+3MCkAcAYWSY3EYrb3LmasuD2A1eZNn/uKUnFX3aeoI3QmbZNriZBri9sstUpVCZ7aogc6W4Se7Y21xP1r+UDBGQ1D9Ob1nmRIiE0AHndBFR+ZfxqJzPy/EJeV2gIQJvR1GmfvICDACByBgy395xvC2ez5r+h45p2D3z7BJRUJXoEQVBVISIwm3XCfUWNBqrkvAIv9sRdnU1pl8CK0yBfFsczz7RPUr7hnhUMqWJeETL0vqk+Z8cySvto97ZtILVFYV6Lc8KPlNA1U7B0HPqxHOOfdLwcq1tMxOUn1tcTCht8UwcycZAUaAELD9f3fK0Laf/8HwwJOv7RR7OruSnTK0IzBUp5yTMdWIkzCJu8BpwgBUPx5QGA4kOnbROOnCQAeQVjhDkCzbzQFtXcY1/UQ60xBKmnM646QaJ9Kcz8cS3tt0eAStYNCiuSvly0A4iNAO5R0cWA0gXW6hCowrNnBjpSRq6EEaHocZC1/3eSxb/wdCrI7aCVom9HYabe4rI9CmCNjBb7063nb35yr7Hz0vTPeUOkRNSlQBUfPKYkQrL1gyp5+5H2UE4wmFiDrbM3dJbvXarQcLtz3xHKjwymG5w5awc9n+xMgJ3LfZ/HR5BfTu49fR3Vdude7GyoYOeyE0UmL0zhAVOQdluwrzjrri94Mll3xRiDMONJpvg7nPhN4Gg8xdZATaFQHb/z9Ore25/wuDex9aW0h3FHqCYRGg7J3PiD2yLe52xaex/ZZuy8J7l6ej6m7utclr78AY6cVhhK/Xdwqu9GUKlPmGJK4hnHEE+qsSFXkUFh+//jOY/6ovCrGmLW1vmNAbO6P56YwAI3AYELD7//xV5W0//6KNn70gqe1QIhkWxZCWvFOkcdktlxdLXh+GjwYikDGQqQu/aU1DZNqtVF3u5HSlhckSDWl53fmaU7VAoYiKnoNUnRTPWXjRZ7DyI18RPlOxLQ8m9LYcdu40IzD9ELD2uwp79Znlnfd/KRl+6DUhtkoku1AKIkjaI7dECsIlp1mq/zZwNptcNta4uUC87bYyjISwyi+j1/mcuzr9gLY4SCOfiFwiEBICqVOBS7sWYzBZUl6wdP2nsey2rwpSmGnjgwm9jQefu84ITAcErH0gxPCDrxrecf8XKn0Pr1F6FzrsCAomQqATCHI+MzEZmznzs6AEaCGQRNYJxjChN2YWUM5CfaIbUbE0IYShRLksWc5p4o+tnhuQMhytwVtUMRPl4onD85dd+hmx6M6vNqYXzfVUJvTmGg9uDSPACLxMBKy9q4S+vldWdv7yq737f31WMdiBjsI+IBpEqIEScULFZz/7rDRKrvIKYvS9op+TWgwfDUHAETo9mfbGMxU9l/lmSSzG285KRIDNqgKkAjnMxyhCq9lIwhV9s5df8Xti4ce+0ZAONOFDmdCbcFC4SYwAI/DiCFj7713o3Xhmbct9X45GNp4RiD5YMwJry5CyhoJKISgrOgVC2nBNMgYPCr5wOU2BNIGlvVqyOW3fLdeGTjNP6ETcqS87yw6nx2NJGlcioDI/TXWDFL4rxFKgpuZDznrVruLscz9dWHrHtxraiSZ7OBN6kw0IN4cRYAQOjoC1v+jBwJOnD2/+xVfS/qdf1SF7AbMbSlScelvmUwqb1ZG7jGidOXERQWS84M4bdVJJ2e2sYROO0t98GaDMXqpGo3ZndBN4zfyUNNotEHSjImch6Tx+68ylV31ULLj5HxrW9CZ9MBN6kw4MN4sRYAQ8AtbeNQv7Hz013v2rL1b6njhLoQ+hjCBMFcpEUJakWw5UahvFzkmvKlfi5NbZaT9WkHl2RuRtnULV6BlGZWcGYakAEcbQiVd6I7180vBxL2BkZ0cJjQEwYuZY03X25pmrrvyomPuef2p065vx+UzozTgq3CZGgBGAtXfPwZ5HXhnte+gP44GHTgvMTpTkkFta17T3TUEbZTy7rOg6pbF67JxCm0+l9glY1mVMe6F1Tohr7DSTEKqIJImRGg1VAAIaKjLBIUkYGtcgRCo6MGw7UJhz2sau5etvETPf+cPGtrt5n86E3rxjwy1jBNoSAWt/Ng/7Hz6rvOW/vhhi6ytqw8/BxP3oKFjndGZ1StVM/tOfePk3PsUOJPc8kzpPf3PfZ5H5aDJWWyLd6E7Ty1gBibEw0kCGFpJU4xJAUWK7LMGEAn16NuTs856cs+Kym8Wsd/yk0a1u5uczoTfz6HDbGIE2QsCO3HMkqk+dObLt7i+I6uMnieh5KOxBWDAul42czsgkxXmOkxOHE/iuJ+8xPXbH9OJAOdexZXjicyITCS/MypnujZlmEjoWkIUiBHnLW9pGiV2anDBFGNuNspoFMfOUR7tXXvO7YuYN9zSmna3zVCb01hkrbikjMC0RsOX/WITqU2eN7Lj3C3r48eNltAOdxRg6HnYa3mHBJ07pGM40RZLMm1GwUQThk6HdQZG3y5B2P8iz1z2x54qhzt3MKY75C62ktV0m9MZMLBKICVxinLap8zVXogCpqDxNoJzOR2HWRQ92HvO6d4juKzY0po2t9VQm9NYaL24tIzBtELB9PzoKyeYLBnb+8tPR0FOrOsVudKhe6OqwW01XxLkaSA25lVmn4y1d6rpnb2N85J4vuTu/M1cKRQ5n3t2MyNpdQaROlU+5TzkROp3r1u6Z0BszqSSEDKETymI3zpZW6w7UTCdsx1yo7lPu7Vp1wztFz5VPNqZ9rfdUJvTWGzNuMSPQ0gjY2vdWJr0bLqj1PfnxpPfh1SUMInCWogl0OoyQPMfJNzwFqHScSN0I4eRbicS19uQeBEQARMhE8LmfmY/mXyzpzTl81R1cg97YqUTRuaAyQyfQDiRpCTW5CsX5F91dWLD2ejHndVsb28LWejoTemuNF7eWEWhZBGzt+8eg77ELhvs3fCIaen5ZEO3ArGAASGugIE2FCnGsUSwGMKQKk62mO22RLIlNUlY7bZ8Tz5ss+q731XRXEU34qHtM2fsFhJ/tsXPV2sSmU46vrntPcqsgo8D6X/htkMxVJRsbt5pCqyaZkF+kFdJgOYqzz/9psPCaG8QRV+2YWOva72om9PYbc+4xIzBlCFhrBUb+vxNN/z3n1/ofvd2WN68sxP0I0xggWU9JfuT1S95ZhP1bWkhEQKSR/+lPfSlf8vyGL33/KQOnxR9Ub6KSUrl/1h8aG0X14/m40AtXUHTjTE53KgBkqJAkmqrSECVArDpgCivQOWftDwuLLrtR9Fy+r8XhaUjzmdAbAjs/lBGY3ghYe1eAcuUV5d33XSziZz5gKk8fhdo2hHE/iibxn/5ZptoLVsGnNzDTqHejhE42prlrGknn5zseTgMgBBINHQiogleL0SZxkTmtuhC5x3IWKnY5uua+5v90HH/5W4W4fGgawTSlXWFCn1K4+WGMwPRGwEXkQ/9whum/d1114PH36OqW5SLpd/rp0kZO4jOQCYRM/XJr9jW9UZmevcvd0pySblY9MPqSNrrdQZmNZH+qySHVVyKQxj6Ne0FgIJUwxRMwe8513xNz3vgOMf/EkemJ1tT0igl9anDmpzAC0xoBZ2Hav+XVaf+GtdHgIzfZ6MllUu9CARUIish16Iw4DNWdqRQpYrfPSn7kjgz4aDkEiNCdMiuNI6U85KsuRNxZxQEp7cqigDUWMenqU5E5/VIDNpiFYbUIXUdc+J3SMe94uxBnUA0hHxNAgAl9AuDxpYxAuyPgiHzk0XPi/Y9cVh164gZT3bw41PucF3mBEttIotV4ARiK0PyXQkrZzcaCjDIVicPw0XIIuNRDSlIk0T6n+lNXQigktJAuuZGUdylNwmkIhCUYXUIlNUiC5Zi59Jq/lsuve68QJ1JSBR8TRIAJfYIA8uWMQDsi4PbIe/e/Nu297zJde2Z9rfbsUphdKKLPWV4KKi2m6IzqyyiUI9mQPHKTEhqhqy331M6E3pJzyJIoTOjGT4jIdyHLjHOvajTsKnHvdKTuR7oCaVLESDITqudo9Cw470/Fii+/vyX73qSNZkJv0oHhZjECzYiAi8iHNqzD/ocuquzfcK1K9y1FOgCjhwExQppfrtnOMYsSnfO1VyfomX/gezGXXGO9GfvJbXppBMjeFGmHC79tWPYE7nIi6M2N9s5JHiCFsNqVGlLpWjkOYTpOwIzF678qlt9520s/hc84FASY0A8FLT6XEWhTBKy1Ev3/eFm0597L4pHHrxHp5oVB2ouCrgG66lCRijZUSQVGu1V2d2TBt4CCoLVXd2QbrrnoW5ti2urd9oROinsGNohcpruP0AMop+4HJ/yjlAJChWragbR0FHqWXvzfxNI/vLPV+9+M7WdCb8ZR4TYxAk2CgF9af/Z10f771sWVJ69Csmsx4j4oZ6JhoUySJbUdqMDmzazrPMrr9ldH3dEyYZEm6So34xARGBWPoWEOKBsCqCUJlJIohiT7ZqkmDSh0oCYF4uJqzFh47afF8js/f4iP4tNfJgJM6C8TKD6NEWg3BGzvP70x2XvPFWn1ictM9PQCafdA2RFYnSU5QY4ltNkAgtbQKWobDc1HnVAyOdY6q9NseZaV2lp3VjnyoNX1bPtcFEtOG5+MVqjInBLhVDALlaiEtHOpmbHs4k+KpX/w31q3x83fcib05h8jbiEjMKUI2D1/81YMPHBx/95fryvInQuR9EKYCsj0jHKarbWwLhGqjqBH68m9LanfIM+y4NynTL72nu2f5wE9M/qUju1kPywnEFfIQNnskpbZAXK1U4UODMcShdmn14pzr/mYWHbr1yb7+Xy/AxFgQucZwQgwAkTSAnv+/qak77G1Q3vvW9td2D4/sLsg7YC3HM9txynZibg5UxOxVI5W9ylCNcluH9VF6gd+vAifITcWwTtnND5aGQFDxF2UsMYgTgFKo6DDmgC2sADlYGlt9qqrbhXzPvFnrdzPVmk7E3qrjBS3kxE4TAiku7/+rmhw4+XDex577aygb66Id6MQJtCVfifNaYUdM0dxxhsKwha8q4Yhk3K/Bu9UwOpIOidr4v4sXvemHe5rzKyDs90P08Ae9tsSkQeAAhISCqLtckURegGRnQVTPGV/98q3flzMf8dfHvam8AMcAkzoPBEYgTZFwO762w8M7bv74rj23DlFu/8IW9uJDjEEW6uiEGRc7QgdMORwRp7iFKlT9E0/oE9yUME5MXY6RugvyF7PV+Zd9J5LgpLCjMt6pxcBrkNvzSlIGzAFJKTNLrWvM087EOk5KM4+eU9x0bpbxYLb/r41+9aarWZCb81x41YzAuNGwPb+ye21fRvWDu977KxZhf7ZurIXQAwlNALSYaW6YdolT60Lwt17PxUS5wdlxZEQe/2RlSvZ0RjBk/xvhA0HXMbOZ+MexGa5UEnY1PuZW9GNml4A23Py5s5FV9whFr3re83SzHZpBxN6u4w097OtEXB15Hu+eefg7l9dGJc3nhGavTNKoh8FPQCZWhddE2fr1C+bu2g896t2S+T0ie0z30S+hp4v8eXL6CQeQ+e5d4CsbC2LvkfL0l/wiZNH7W09OA3svEtgzER+RnMhrHRmtGOe5tTAgwsB0UINJcQJOwOJXYCg57SN4VGXfFjMf+e/NrBbbftoJvS2HXrueLsgYAe+szbd+6sPDO2976ISdvUoPeDcrpBGECqGoA/rlwQjT0v/bcvjL6xF56X0l4S1gSc4MndbHwZaZVr7zv40E4Zx9eXKOeXBpqPbLvRe50oUpUVEvxZFpFiNsPP0x7qWXP5hceSbftzAbrX1o5nQ23r4ufPTGQFb+9Elad/jvyuj5461wxtWRv2PlzrkAERKpla0D05hGO9hT+c58Nv65iJwSmqrI3R6s/MFDCGEoeX0GIJS12krhgTZ6aASNS2QCIGkUEBNLELnjPPu71h8yW1izlt+0a54NkO/mdCbYRS4DYzAJCJgK/92TW3gsfdURzadVDCDiwu2zwTRHlkb3IKiGIZOYyhFlpaCjVEmEfdWvpVbbs/YwJcekoaAX08XVFROL35E5KQuIAWMsIjRgYpage45Z95TmL/mVnHEjfe2MgbToe1M6NNhFLkPjAB9Bg/ddXXS/+gHR0aeO1HJvgUdxRgqrUDaKlDdh3hgG5QYgdEJROZLTdEY72O37/QhC1Qia7dnXgeDs9ixgddhN7ETE3I/srRKH8AGJcRyCYIZ591VXHzBbWL2Wx9uXxSbp+dM6M0zFtwSRmBcCNiB711b63325qS287iC6psfhhGsiWGSGKEIATJQqe1FNLAJgRqCgYEkfRjyqKavl95AH1e7+KLmRoBonAxsqaKBbGzrD+30BKQjcvq9c86TQKKByHZAlY5D2HP6T4JlV35I9Fz9RHP3tH1ax4TePmPNPZ1GCHj3s59cXxt49H3S7DxO6cG5wg5CyCGQGbmlZCcbQOoiYBNH6PHA8yioIViRuFwokugkm1Mm9Gk0MQ6hK57QixBIoUhPoD5CzwSCjPY2uFSWRtnsZV2CLazCjHlr/hULzr9FzFz/7CE8kk89zAgwoR9mgPn2jMBkImDtdxX65fp4ZPOH0trW44t2eKbQQ4COHZHLIHEs7XzONJUfFdzHNqr9SPs2IxBDACquJi111paT2Tq+V2shIGFs0b3QEannpYb1yn1Or5/eDQ1Qs50wxRPROfe8/y3mr71VzL5iS2v1d/q3lgl9+o8x93AaIGCtVej/0fXR8DO3ptVNq4XdNSMUZUgduSjbb4rTEUMLDUM/pMLyRMAZW9YGEO/fglAOQ9gaEFDNOJUjae+jwkcbIpAlvrkddMpup+S3TD/AZb/5jXXKj4tMD5JgFTrmXfT9YOkVt4jONdvbELCm7zL/U276IeIGtjMC1m4qYeCht5QHn/6QiXccHWKgK7Bl50cunI8prYWS6AuVH9EHcAojDVJpYYRx9qahoSX3XkR921AUI0Aaw4fm3iyFCb19Z5i2AiJTAXSRusunIHWhLEuuCAwnnUjDV2DmgrX/IBe+/hbRfdae9kWsuXvOhN7c48Ota1MErH2gEwP71kfDG2/V8c5jkWwvKTmEgkggoP2GJgJQ4E4pTZLqiYmis7ry1C2lE6FbKMpyp6S4fipboyx366U6ORmuTWeX77Yz0snK1ZxQTGpdubl/MfTnVNEN3XksivMu/odw3lXvFzPP6Wtr0Jq880zoTT5A3Lz2QsDaR7ow8Pi16chzH04r24+zSX9B2ZoIhfFeJvQv1kXmPrJOZOA+mENnmmL8r112ctGpefmEtxEg3oVk4BkoVYWmzHZabc0iMk6Ka685lveW5o2mF7/MdIfInIzz3MKN4/ceVIITMGPpum9j5fXvE+LEkfZEqnV6zYTeOmPFLZ3GCBCRJwOb1kdDz9xmo23HhnZPULAjQiLKVsZpSZ32vV0c7sqJdAAkgV82DzIhL7cP6iL30LmiebvSMpAQoT8Hqcqe0HNpdi5bm8az6rd3LSd0mg/E62R96hZ/Evpjptsz71xy1d9g1QXvEWLNgXVtbYtac3ecCb25x4dbN80RsPauWWZw75tHBrfcmtR2H12w/aqIEQQ2gqRyM6ez6dbSs1BKwEoFYxW0TGGCmiP0UBd8trJLbBrTZnd63a5srRdJ/w5INQRtYshAuJcCuoYj9Gk+yV6ke0To9PqnLRAI6URk4jRBNe1BqedUlGad/9c49uT3CLHe6czw0fwIMKE3/xhxC6chAnbg57Nhdq+v9j95q0n3H2vMiAhVze2Ru6g8SWF1CkFr47ntGS2lu+8VaHE9tUTMCaQ1kLrkDTMoxBJktOEK1zxZO0IfRNK3A0qOQJsaZBB60RC61n2s89GOCJC4kC9NKyCxRZQpF6O4ys5ZdOm3xMov/E47YtLKfWZCb+XR47a3HALW3j0Hg0+vr1Q236ErO1d1JcOQJvZETBpuhjSzNWQYQIQhdBI77Wy30O6y2GiNnLKZtDs3cEXC5JpF66VE9tm3FH05SU/tk+KiLCkOFZ8UJwou6reSVgGY0FtuIk1Cg93qTUqqMfSiaFCRs6A7T9Rd81/758Hyz71/Eh7Bt5hiBJjQpxhwflx7ImDtA0dgaNP11aGNH4tr2xYL24eCqKBEUlxJ5n4mA4CcrYyFsSTQat1qu9PTFnaU7OkU8iR3++OU1ZQTerYq7z6nhXSr9KQAplAGot2I+ragiKqrSnLar3QiqcplnuXtOTKt3uu8htxXONAx6mvu3gJzb3MKxcf66gscJATNH9mBiikiCpelMxau+9PgmC99qNVRadf2M6G368hzv6cEATtyz5GoPnVDdXjjbSbds4jIVblEtwTSGFDRmc8qHvMSr68mO1iNuNeBGzu8r3X2T1lYR+RGkCMWOV5SzvvBytaUc1uj5XmO0KdkKhyGh0i4sc9ZXGpo6asfSIvdvbBpSnaj5EgNpNlWuKtwFIhoxacYYijqgiqcWpuz+OKvi+V3fvQwNJRvOUUIMKFPEdD8mPZBwForUL7/SES7r0+Hn7xDpzsWmXS3i5QDSYloBtaQKUaWtD4BaCgqc4G5W3LPHLGkgcleELybWg2I9iHq34yioCx3DSUFSFSE988nAH4TXEqVDPlhRQpNOzD5p7qVUCgCaQIhUqdBRJNFk0AgWa6UZmJIK5ji0ZXZcy/5erjqcx9vgi5xEyaAABP6BMDjSxmBegScYUr1Z4tN9fk3VstbPqqjfQuRDiIAybOmcLXkLkktj8EpOp6YugsTenvPQZpPLiKvI3L6UA8yBVeQOY+U0EHVRe20KEMpGNKUUEuPQFQ6ZmjuUWv+WCz9vc+2N5LTo/dM6NNjHLkXDUTA6axXf7bIDG+6vlx99qNpsnOuwhAKKoWgaNjVemc14aTw5pa5NYTwpWMTOZjQJ4Le9LjWlZ9lK+/0gU7zzU8xWnIvurwMHZYR07cub7IEaeYjMsv7Zy2/6o/E8o/8wfRAgnvBhM5zgBEYJwKOyId+ugK1rdfXRrbdGke75kjRhyCsuH1y2ut2kqzOqzSzNaOlT0mqb96u0posOW28beAl93Ei1/qXubSJzOaUeuO2V7I/vd1eAASdQFRDSi+XnQEqIkElnomu7nP3dc+76PNi2Ye/3vpIcA9yBJjQeS4wAoeIgLWPFzAytAq1ndfW9m+4Vdq+OSSvKoMqAlkFRASbRkhT2qsuQhJpZ45WVB4kpIZF4rLWpSj55KVxHhyhjxO4aXDZqBa7y6HIstmJyd22Dn2RuiAlTAJWWcSqAyPoBjqP2TV34ZWfE0vu+OY0gIG7UIcAEzpPB0bgZSLgnM/Kz65GZdv6uLz1Fpvs7xFJP0KKtoWGNTGMIWGYFJJKzciiNCFdTZJspVCKytCs14mBhiY/ciofm8DBhD4B8KbBpXlxg6Jo3M2xLETPSth0bKA6Q2fgU9bzgc5zt3UvvehOsehd/3MadJ+78AIEmNB5SjACL4GAI/LKthPSkS1vTkY2v8/GO7sDDCFUVQjyFKda8tFSsuyfFO2N519BFqEbX1tOe+f0RYd12uvjP5jQx4/d9LjyBaVrTlzI+5o75z0JpwCX2CMgO1+5uXPh+lvFUW//5+nRd+7FCxFgQuc5wQi8CALWbutAdcMpcXnLG6KRLe8Vyb4ZgakgJJ11pBBuA5PqvrNsdZfFXk/QtJSepx9L54LmjlEhF85y58k3fgR8Dbp32fErP/nHeaYtQGQeSJTT+Qi6X/tM91FX3Crm3/iv438iX9nsCDChN/sIcfumHAFnYTq855VptO3aeOS590Dv64LuRSAiKJtmJih+idOtcpI+i/MirRdp8ZKspK9uaR8z3ycfPWdi2e05KByhT/n0aKIHZkpvNPfIP9e5pRkksbfHlSmVbooAACAASURBVKUu9Mdd6Jh/9lMd86/9HTH/bT9vosZzUw4DAkzohwFUvmVrImDtUz0YeeI0U916dVrd9m6R9HbraAABUihpvVGKJQlWb19KBb1uPzyvLx/tdmZc7gi9LuFNkOYqEX/qv+iwpKnOSXGtOWMa22pS6rem4JIslUgym10ftCdComwXoDDnwkc6F699r5j7znsa21p++lQgwIQ+FSjzM5oaAWufm4ny9jN19bmra5Vnb7DR1p7QDqJgY9LTohRhQFB5md8qN05elYrLqVs+KifipkjcO55lspt5rx3h10fwWaGwI3KK9JnQm3qCNGnjyJoHsohU1xAI7QRjaPalogRdPApp8eT7ulavf7foXr+hSbvAzZpkBJjQJxlQvl3rIGDtpll6eMNrknjLFVF5z/WI988sULKbqCAwidfIdHXktJZJxEtb4hZGaa/e4eqBdLa0ToQu6iLyfF+dIvFc6SMneor0xyQ7J4IYL7lPBL3WvtZF6EEJcVJDURqoQoA0ERgxS9Ax78pfFI9+/dtF6aLnW7uX3PpDQYAJ/VDQ4nOnBQJ2+MF5iPa8Rsfbr4jjZ9drs7fHJlWneV4QFPdkyW2k6kaiMI58vTWp20APyOI0haH9dEqNowibongXshOx++utzLLfR5fX8yQ5ul8mNOMi/PHvpzOhT4spOa5OUMmapoUi5UsfI1OCCRejY+45/xksuO5dYvZlm8d1Y76oZRFgQm/ZoeOGHyoCzsJ0ZOsaU9lyVVTd/oa0trc7NH0oKgtBH4rG+KDcGJcxrAKSZvV/99G4J95cstWmGlJm9qV5hrGzJM042pUP+XV6txLvltbdW0Fdkly2r36oncnOZ0IfJ3DT4DL34U3vjCFQFZ2oyuXonnv5DwtLr3in6F6zexp0kbtwiAgwoR8iYHx66yFg7eMLMLT1oqT8/KVxdeuV0HtnBnIERRUBcTmrI6c9cgUr8micHCwsUp24jGHyHzc6cdG4lBSX+3IhR9JOzOMF/5QcsY+VsB1og5oR+iRkvDOht958rG+xmzXuPdH717+ola1bJRq1UcsSKwGarpWkiKSwAl3z1/4gWHTVe0XXpbtaGxVu/XgRYEIfL3J8XdMjYCsPL0b1qYtNvP2SpLr9CqsHuskbXNG+t0lhdISA8t1c7XhdnXj2wWlddJ0f3qZ09MgS2Q72D8iLdVG52ostpddfNf7ldscFrOXe9PPwxRp4IH97wrZOdXDsCnpPpFUjmCKU9DLB1lYBVUMaAOUwRBqsQvesS/+htODim0XP5ftaFhBu+IQRYEKfMIR8g2ZDwFYeWYLq1st0ZdPlOtm2TpjeLqsHANQQWK/SJigad0voE9vDbnTfmdAbPQLjf362G+NvIAIXoRu3TUPpbpnxivY15RCdsKmC0RZWGecbUFNFDARLMHvh2m93HHXtB4VYNzj+1vCV0wEBJvTpMIrcB4eArdy31NSevbxS2XS5SPeuUXaox8TDro6cFsmlk2j1fuRefpXqyScmvdpo6JnQGz0C43++S6bMfE+tSp1fuaVqCrdeRHN2NAXDe54T4UPByABWFRCpJZix6Kq/kD3rPiLmMJmPfySmz5VM6NNnLNu2J7ayYSlGtlxdizZdotMt5xmzd0aAQQgTuw/FwCpIyhwylOSWwtKSuyA/ctoDn5zysUaBz4TeKOQn/lxfHeGTKLVMPWlnlRKKkjGJvp0Yu1eBowrKmgwQmW4UuleiNOvV31Ar3/QxIdaMTLw1fIfpgAAT+nQYxTbtg609sAqDz7zBRrsviuP952jT16PEEAJZAUgUxmhYnYu9yCxbncg8BkhZy0XrxZYmdSb01p/8uWNaLiPs56VXGZRpCkmKMVJCC4lhFGA7VmHmgsu+Kpde+mkm89Yf/8nsARP6ZKLJ95oSBGzt/pVpZfu1yci2y3R546tLYqRTKQ1ja0BaA6g+nJLd6H+5vLpTaqMvDSspy0i7PXQBSjRq3SidCX1Kptxhe0hO5vkDXK4lLRy55fYAUltXVZFooGK6oGYei+7FF3wRiy/9vBBraoetYXzjlkSACb0lh609G22r964wQ8+8rTqy6SJhe08N5WB3iAGYpAKd0PJkABkUfC2P1jBpDFmicrRM0Y0SjrJacpJp9YSeC7y0JqZM6K05bvWtfiGp0+9Iv4hS45QKESVAJApQ3Seha94bP4vlZ39ZiHOqrd9z7sFkI8CEPtmI8v0mHQFbu2c1+p6/KY52nA+z61RhBzqEHQL0EKyuIAwkoDoAHZIrheNvQQ5ngQBSsp4iOa28PCxTa3P15sTvlCg3sdKxSe/wIdyQCf0QwGrCU/PKRlpOp1Q4N01zpUEhYUSAEd0N2bMaPUsu/wQWrvsTJvMmHMgmaRITepMMBDfjNxGww784MR14/O2wO9aYeOfJ1vYXnBe5oDryzPHMranTEWQSrPVFvLR2meuoZwYoVK7mMokpMqcl+JgJnSdfQxBwSXGiAKQpUpHCKgVpS5CUEGdjQEmMaIlg5kkoHXntR7D0qq8JcSJNWD4YgYMiwITOE6PpELDDvzoe5e3vSSqbLxR2+/HC7CtY3efqyJ38i/MsVS7hDSrI9htzx7J6NS1P9rlwjBePyaVXs31zJvSmG/92aZAjdMrNDEMqxXC7QTrNInUpkcpO6MLipGPJRR/Bksv/jPfM22VmjL+fTOjjx46vnGQEbPSjk5K+je+PqptfI9L9xxRkVJAJJbklkIZqx20mh07a6FlkPmpbmjemjtCz6P1gkzz3KW/dxXbfX15yn+RJONW3c9tD9FAnWQgLg1QUoYM5SIPVle5FV96BpRd+S4gzsrKMqW4gP6+VEGBCb6XRmqZtpaX1ZPiZW6Joy3lS7zhaoT+QZhhIIwSyA8LZlxa9dBZpqiNxTmZeGCabwgeKpY8qclAtr4/SDwRvjNDH70XeDMPBhN4MozC+NlAynKT8zQQIKJUjCJBYi0jMgZp9Sl9h9nl3qKVXfJvJfHz4tuNVTOjtOOpN0mc78stXYviBD6XRznOr1d4VwpTDgopRUCmsSWC0hnJEnlmTusxf+o/0MH3EPjqBDzBDsT6CF6lfbqfzHKELCFLncG5nPrv9xfXWmwSkl2gGE3prjNPBWkmEngiAcjpJ/EibEDU7E7bnhN3di664Awtv/44QdQ4/rdtVbvkUIcCEPkVA82PGELAjPzsZQ9tvq5afPy+tbTyqWBgJAilgqTY8iWGMRiCV93nWY6G1E96wtCxJNeZevpXU3/xR72xGyW7O0WL0oXmETrW9ntCz69wyZ+seTOitO3Y0dZ2TgBKwuhOJnQs18xXbOxa+9sNY8NHvM5m37tg2quVM6I1Cvg2fa8s/OU0PbPxItbzpHJjehQVVCQtE4jqC1rSELqCUctG3NVRHrp1ATE7MjsBH2TeTzRz9nkjcE/jo6rtT6TiwztwTe2bI4s6nRLnWPZjQW3fs3Icv5cXpAmpqOdSM057rXLjuNrHgXT9o3V5xyxuJABN6I9Fvk2fbyl1nRQPP3ZZUtp4LvXd+IAYCJUYgdAykEoFQrkTHkbEjWF8b7jzIrY+0ncgbReXOhzxjbTpNhhmKY4Se38ftuecReRbF+z11Wob3Ri30vFY+mNAbO3ruA7TOz9y9UpJbWvaWWJ+i6V4lsx/430tY2YGqPQKYecbGrsXrbhHz3/vDxvaIn97KCDCht/LoNXnbbfmnr4r3PPJRa3afD7NnrrWDSgqqI/cNF8Y6zZcDD/plXcx8kC3EsQS3A8n44JH2waZ4K8fkB6LFhN64fwRuZuXuu87+VEA7pk7z4ki/8xN4gcLU0vunhEkNJKWBFHuwP12AngXnPFZacNHNYvbbftq43vCTpwMCTOjTYRSbrA928Odn2oFnPhGNbH5NEPTOhO1Xwg46QxRnWwryIvfSq2Rr2spKbY2Gngm9cSMwSuju7TSAFiJLsvSE7jZ7yORvBBAhfQnUYgEVdiAMFQaqPehafOmvw7lnvk8c8Tv3N64n/OTpggAT+nQZySboh63+8Lxa/xMfi8qbXyNNb3dBREroBIoE26wgYUtnNEGZ5SS5apEwoU9w3JjQJwjgBC93DryZVzn5A0jj5VsFUr/jk69GUaQuQhjRiZooQZfmQnYf8+uuFde9W3S/9eEJNoMvZwT8qifjwAhMFAE79LNza4PP3FmtPr9G2O2lguqXSlSgyN05DSBMIbMpVT4zXVDpWez2x5VX1eBjnAgwoY8TuEm4jPbD83QOV1NuqZ489LmZLkfDOCvzsEiufwpal6DlTFTkXARzT/pV91EX3iRmvPOpSWgK34IRYELnOTB+BCyF3NWfnJX2PX6nru1aF8cDBSGGZCmIoVQESw5oaYowLLkPM1f3bWlJkp7pNx4p+a3V3c7Gj+DkXMmEPjk4jucumrx/iKsFENKeuJFQhtz9KLeDInTthZAoVyTsRIIZGMY8dM4/+1elFVfcKEqvf3Y8z+VrGIEXQ4DDI54bh4SAtd9VqM46K+7f+qna8Ka1NtoSdBQqokDOZkih0wTWpM7ojJSvyMbUf8D5RLQ8y5cy2N3Rwl7khwTcYTqZCf0wAfsybktWAnFWFVlIAWWlVzV0QgmZPKE1MCpAxZRQkwtQmn/Oz7qXX/4W0bl+x8t4BJ/CCBwSAkzohwRX+55s7eMFjDx7rh585s7a8LYLkQ7KUFVEoRADugJDa4tuj7zg9SwpCqfUXmdPmpWKHUDouWRrZpLSvtBOqOdM6BOCb0IX08spRehE4AXaWqK7ubR2mujkpCaRmhSiYxaG1Txg5un/OWvp9W8R3a/fM6EH88WMwIsgwITOU+O3ImDtphJGnjs76nvyY0ll88XK7hcFMQyJCLBknJJCUB051YNTKq/bWCRPck/iglSwyN/ZWZV6pTcXmGfZQrzkPrEJyIQ+MfwmenW+4qSIwB2hj9VhagQwQQ/60xm2Y9G5d/Ucc90bhXjDwESfydczAi+GABM6z42DIuCIvPzMudGuRz4h7f4LofdDmGEIUYWUtD8YuzpyWNJapw+zsankuTpX1jCjK5Ceyf0Hn8gIvdW11Bs9fZjQGzcCbtdISCA1LkVE0GITBejkOaCAWAbo00vs/FVX/ihYevnrhLg8alxr+cntgAATejuM8iH00dqnerDvmfNsdevHbLzjfJnuB+wQYKuujtxJtpEqhjAu2nYZ7KM+4/5BBxB6nZ66J3JP/l5Tnc7NPgEPoY186hgCTOiNmw2O0L2ooas3d14DLmUkgA5CDJkjzIwVl/+4sHTtVUKsjxvXUn5yuyDAhN4uI/0S/bT28W5UHjtfDz/3kaSy9QIbDUDpKgq57gt9UlGJGe0ZOgtTylInoRgvoerlsIikaXE9V3DLJVZpyd3vsfsIXWWuZ/me4/RRbpvq6cSEPtWIjz3PEXoepWvj/22EBQzWQsTFlXrmogv/pXj0//P6xrWQn9xuCDCht9uIv6C/tv+hWbC7zksrz388iracY/V2BGIICjECisC1r6F1a4qk2UpqWCCNdfp/ChHEPmp3ZWljTmbuPcDZlhKp50lxROie9L2NKRP6RKcfE/pEEZzY9YLW2YnMKRFUljCsQ1TlUj1z0SU/KB3z5Wsmdne+mhE4NASY0A8Nr2lzth18fA7MptdgaMMdNtlzXhSXYXUNUiVQKoFFBGFTSFdxRkvrnoj9fjlxuHcmH3OhyJOBsmS4zPjEL7HTkUfn/h7entybrrD06/inFRP6+LGb+JWkehggiTWKxSIqpof2zNN5Ky//36WVn79u4vfnOzACh4YAE/qh4dXyZ9vhX85Hbe9aXd1zi0l2nWlrzyIU5Syjx+urU+Tt9rYFWZr6JXUi5jFypkDdT50sad2TsiAN67ESNU/iY1H7qK0pxfhZNnD9PVse3AZ0gAm9AaBnjzT0YmoljOxEOQqRllamc5Zd8p1g+RdubFyr+MntjAATepuMvrUbjsTQc2uTkWdvjqtbz4LeC4kqClZAUaauWza3MDrxpilSgKrRTOZT7mEaK8nxhC4BUtdwUXv+u1wwJp9adeU8pOHuiJxeGPz5wpIsbGtbmDZyCjGhNxL9TGqhMA99dlXUufC13+k++svvbGyL+OntjAAT+jQffWsfOAr9u84bGXr+dhNtP1WJ/SioIZD7mdUppOl0+98UWTuZ9TFv0uzTyu+b+7Vxnwo3dmTKWPVJcC9GzkTgTOiTPtuY0CcCab4NVCcI84Lb5Tmh7nXWfeNfPiUMNEIkajaGzaLq3GWX/02w4ovvn0hr+FpGYKIIMKFPFMEmvd4O3L8SessFUe8Ttyv0niAwAGtHAFODoFobJ/aiRsvIXtY+9gu9yUfJ208jJx4ztq5+IDJE5vlP6u/D0fmEZhAT+gTgswGM7fAELWnbyYxKE0v//uky1+MaeZcDQUGhGtFpFqXAILLzsEedUZm7fN3/2730to9OoCV8KSMwKQgwoU8KjM1xE2eYMnTv0ahtvchWtn3QJrtOECQII0YA1ABSdzMCVlJE7urPYCkLnY+WRYAJfQJDR/kdThiJlFpJZ8G491G3mZQRuqvW7FBu6ylKSRCxBIES0kSiFq4e7l79tm8UF37w4xNoBV/KCEwaAkzokwZl425kKTMnfuAEU37+tXH1ufclta0nKt2PAFUo2gMnLRj34eWXC620EDLbz3YSrXy0KgJM6BMbOW91CqS0+p6Ruf/34hNBXXl5GAJpAk1bTkEBFTsPtnTqQNeCc/84XH7n5yfWAr6aEZg8BJjQJw/LKb+TtXcFqBRPQm33BeXKlvel8a7VMDsRiiEUROT8yE1CH05FCEtSVmpUxc2AVN8oT5ePVkaACX38ozf64UeEnnmbE5kTkbt/F1TZIRWSOEYYkulQJwaiEKbnFXvnrLjmS2LBB/9k/E/nKxmByUeACX3yMZ2SO9rhX5yIZOtVtZEN77bpvlVpUoWwMUJlEJCCmzU+6U2QzCpFId7nMS8z8wrreVX5lDSZH3IYEGBCnxio/5e97wCT6yrPfs+5907Z3qRVs+UmFxlb2LjKxtgYsLHp8JsWIJgSAqZDgMQQasDUhBJKSAgJBH46ocRggn8bMDbITZYsV+RutS3a3Wm3nPM/3znnzo5kA6uZ3Z2ZnW/8rCXNzr33nPecue/92vvZDmkug4Q02A2VU325jaF7pjRNA36AUjKCcmbDw0OHPOXdYvXr/7WxK/PRjMD8I8CEPv+YLugZjUTrxI6nx4W73hJW7joJ6g4Egpqm+JAk/kJdn8i1bphbQVZV2ujG5XyKRtjFs1rss4XkCzpuPvnCIMCEPj+41hZ3JIII3fqulKKOgb1GNEZ0HXtv32EX/Z1Y9oqvz89V+SyMwPwiwIQ+v3gu6Nn09NXLULzvr6PiPW+Nwh19SHYj749ByMgm9yQkQ0lELSBI4s0jk4N6Qiho6pBmTHTftjslqVZjsXMMfUEXbYFPzoTeCMBUfOa5eDl9h2bFEBMqTJP0fCwQeiugcqfe1b/qKW8TK17zw0auyMcyAguJABP6QqI7j+fWetMIdt/ytvLUrW+IKw/lfVFEzo+BuGBV2ihGTv3IqUmKqZe1FjqpvRlCr5aKOSEYR+hzKlebx3nwqeYXASb0RvAkTxZ9Z8i9Hs2KIwmrlxSJPKJgCOg5fmvv2me/VfS/+meNXI2PZQQWGgEm9IVGeB7Or/WdWYxd98bpiev/LoMdfYGcBuIKJPUjN8IwROJOctUJuFgS3+/ilOSz/1vzMD4+RfMQYEKvH3vbLS2t/LDeKvMvEkAUAkWxEv7IuTfkV57zFjF48VX1X4mPZAQWBwEm9MXBuaGr6L1Xnh9NX/P5uHjbIYGYgKeKEFQga7qg9Vn3OVnijtSpy5n9e3rDml1mI/6yn976bLvThobJBzcBASb0+kGvfiuUiVRBegHiOEIl9uF1r0LQ97jf+Qc9+w2i/6XX1X8VPpIRWDwEmNAXD+u6rqT1b5aHO67/bDi9+f/4GEdGVSCM2puTZHVZuYa7zd/TfuRpVzR3WUPwiW2eQo1XTFtTOihT07+8riHyQU1EgAm9AfCdritFp8hQV56PipaIvdXoHn7SVcHKc98u+l/w+wauwIcyAouKABP6osJ94BfTM994SXHsun9UpQeHcrIML6FWpk75AklNbNz6CjXF0E0djo2V225msz3JrewrJchZC16Dm6Mc+Kq0zhFM6I2tRULPxUTmWqKiu5F0rUF+5LSfZZY9/c2i9znbGjs7H80ILC4CTOiLi/cBXU3rO/squ7/zCVXY8kovLBD1QsXS1JbDi6HIWheihtTT/uKW3G37Uspmr5WPmU2Us4OpaVBxQKPjD7cCAkzo9a+CaX9KwjGa/FY+kD8M2aEn/9hf/sS3iP6n31n/mflIRqA5CDChNwf3OV1VFzedWtj1tc/6evtJfiwgI+puJh1XlxGrCFKSRU4varYymxhHlrmpwtF+1RWfXtQmy1lhmdr62zkNij/UUggwode/HIkgCSYflTgPL38Qelec8V0MP/XtYuAZ2+s/Kx/JCDQPASb05mH/Z6+s91754qnd3/xcznu43ysH8GLPdH+CiJCIaUfiJOtqa8qtIlzajzx1s9vLWBInkreiMqnVLhCzuMyfXYnW/QATev1rQ4QeiwAivw7B4Hn/Vw6d8zYxfMED9Z+Rj2QEmosAE3pz8f+TV9djP31bYfx7H8t5DwFFHx5ltWfIRR4i0iV4PinDUQtUJ+9qzuZi5mSB15SypZnsFGM3hO5K3ZjQW3gDzGFonU7o9vnVPqjSS6UCSg47arKyz0u47BEtEYkeqNxadK18wlcx8rR3ie7zH54D5PwRRqBlEWBCb9mlAaKHvvEBGV15Kcp3g8TgrHAMEbUPLfJIqG5WxLa/efVlU3ddAq9xw+9Tj06ueIrBuxdLv7bwBpjD0DqZ0A2ZUwjKeJwyRgxGeSUoaevJbdc0AamlaX9qlI8zQER6TCqAyh8Db9nT/yV3+DPeJcSpY3OAmz/CCLQ0AkzoLbw80YPf+qiMfvl2VO6EjInIbVkaqVspr8tKvKKyH6G38IR4aPOOQMcTuhGHoTyS7KMTummjRl3TEsP7FQ2ESTfyvesRLDv781j77EuF2Dg+7wvDJ2QEmoAAE3oTQJ/rJaMdP/igrvzv36HyBwSRI3Qdu/4rAoqS3RWVps31jPy5pYZAJxM6raXxRJEb3SR/kgkemfdsP3Pr1aImRCoTo4IAJTUIL38cBoYv+CRGzvwH0ceW+VL7TnTyfJjQW3j1k50//5ty8aeXiXA7sjEgqeGKipEgBoLQEnqScbXmLTwRHtqCIdDphG6aC6bxJSLxlMzNL0hB0aenXoReBTNE+rkjMbzmKR/Cyhd8VIjTphZsYfjEjEATEGBCbwLoc72knvjVS6cm/vszIr67L5sAGeFBK+pkHkL7RWhqj6ozENQ2lV8diUAnEzo90JpOwa53uY2ZO8ucAurUeEVn6KkXYaaEAv2954iHBw+78Bli4KObOnLD8KSXNAJM6C28vLq06czpPf/9WR3etSGIQmTJg0gqcZQEJ0tQoCaPdNOqFY5p4Qnx0OYdgY4ndLqDubuYIfS0cjN2hE4thT1AZSsoewFK3nCU6T3+7t7hJ71PrHjLN+d9QfiEjEATEWBCbyL4f+7SWt/cXd59xefi0raXicoEMjqGn6Qd08g8iaFNXQ4H0f8clkv1951M6NU1dS53stjTR9tqBrzKwKS3ezGI48sgZbhe5LuO3J0ZPPGH8ogL3yHE+ZwUt1S/IB02Lyb0Fl/wcPKrfxVO3fxRXX64L4MCvCSGZ/yMWdvzXIYw3dX41ZEIdDqhz4oeUlLcbB26IXbzhgchfagkMu1RvZwHramrWg4Vb02c9J14ff+h571ODLz4+o7cQDzpJYUAE3qLL6fWvxrUEzd+pTi59ZkifBg5UbJWSJSzST8+ud/p5qWhlDLa7kbfXWskSQLPsypy/FqaCHQyoVefYykBjrLZIY2wjBbRvm54o7FED8EmZuUC74HRcigFA9D5I+7rXvbET+GQ0z8rxDnUuYhfjEBbIsCE3gbLFo9/7wUzE5s+Huj7V+fEGGRUBqIA8Ch+rqClXUYidHpRNjyRekrwbTBFHmKdCDCh08MsPdE6Qhf0fSBCT9sD2yQ5j74aaedB4+FKleWA0B+GDo4qZAZOucobfvzFYvSZO+tcDj6MEWgqAkzoTYV/bhfXemsm3nP9B0qTN75NJttl3puBpIChEZsh1Thrhe9P6PQeWer8WroIdDKh06qmNzAj/UqKcEToKZnXLnu1pM1F2Ulsxn0/lJQoa4GyWKbzAydv71p17mvF6Ot/tnR3Dc9sqSLAhN4mK6v1pq5wx+8/U5zafHEGO5FDBKFjq4LlpFyJvFMCr3W9t8kUeZh1INDphP5okNGzbvpKH2f3kT92vyTL3TduePtTBlCJRyDzx073jp77rzjs6HcIcVFYx7LwIYxAUxBgQm8K7PVdVOtf96rxOz8xPXbrxTra6XVlInjRDKRpwkLJvDZ2zq/OQaDTCb1K3pThXrv1XdMW0/OcCkJcoyLzeXfXI1vdpJ+EROwCCHJGuKmYZKBzqyPZfezm/CEXPlcMvvLeztlRPNN2RoAJvc1Wj9zv0fiW11X23vVuHT4wmNN7INWMmUUaO2dSb7NFbWC4TOiz4FVr0OktEyOnLmwkkayrhG4sdRKicYd5tvoTIiS9dwn4JMkIFBX9DCHoO32if825bxUr3/KVBpaJD2UEFgUBJvRFgXn+L6L3/u8pydTmT8vK5lNFvNtktJOFTqTOhD7/eLfqGTue0F3l+SyZu2x2Ym5jsruYuvucMAlxqXSDso3a3AOASoj4KYOOCkgUYp1FrIdQUQdHPUNn/SS74dkvEmJjqVX3Ao+LEWBCb+M9oPWm/uT+Kz6iowdepsK9eQ8leIKqbhIoMjvoVdsq1d24bO1uV2fr7gAAIABJREFUuvTkkrQu+6pATfXfqaVTC9L+W4Zd/M3cQkzo0lK1S3Kb3demVs0Q+j42vCK2piPS9102PBG75xtph1jFECKBpPe0j1LYi5I6WOf6T7q/55BzXyBGX/TbZq45X5sR+GMIMKG3+d7QWotk6scvLO7ZfJkX3rc6jzEhRNHEAk3Gb4bK12y2O3Vm80jf2ohg093KuSWNADY9ANDNjXqrpzdCF2WsSssKU+s7q8dFrks6jkm9Wduo0wl9H7KuWQQytGcfVGd/YSz09LWPELxCIm2NeqoNL833gQpJBEpxgKnyALyeDZWRNWd/HGvX/b0QF9GXhV+MQMsgwITeMkvR2EB06apDK3s2fyGZ3nZOIMaCwCsBuowwriDI5iBkYMvc6IesFBLaIHL2hCvzIRJPnFVTM5b0BugEOaxh77pimL+ZAt/GBs9H140AE3rd0NkuhfRdIPYXsemnbneyhEcKc0hMMyRibT9PxnoWU6VBzFRGMbz88dfl1j31WaLnwh31j4CPZATmFwEm9PnFs6lnI2s9Hv/me8qTt7xRVu4ezGLShgiphSQlCCXaWO2eEaQhSz2CJmUt6dzzhrxTlyQd4yx1kUAg3JfstT0nN4Zp6pKbhzGT50XE5OhISwUlrCVqO5CVgcpuVCbuQVYUkKgEnhRItCBtteZOoIlXt/F0Upkja548WmkrViL0wKrL+ZQFXzJ+KJkDQpFBMc5Becshs4dPDq99ymsweswPhLig0sSp8KUZAft9ZxyWHgJ64kdnlydu/GdRuufILIoeErLWKdlHW8PcycMKqaE03Yfopu5ubkT0+7jVKQU4JXTrYbSSm3T3I1EbJvVm7iAm9EbQl9ZKp8Q5SS732jSSAB51aqN4lScBWUGiFRJ6bsoKVJREodyNwDsS/SMbv+uvv+jlQpw53cho+FhGoFEEmNAbRbBFj9d7tw6hsPkLlfFN5/vqoV5PFo21QRZ4GJWh/BhB1geixN3UDNO7GDl9juKH2pE3WYHWWp9thuEeAkBNMbh9a7O2ARN6Y8gToROGRuo9rVF3+XSSflfRkBSuMiknpBOvENE3wTmoyoUssl1HQOWOub37sKe8AAOv2ixEbVZpY+PjoxmBA0GACf1A0GrDz+pd37k4nt7y/riwfZUvZ4RP4XNRQSzLEIIS5XwIc3fyqsRspTPNbcsRuXSfIY43gpkAOSHN7qFaXyb0Zm0NJvTGkDe7Wbg80dTl7rxQpP8uEACRAhKKXZD4TGJ2v7HmySPveZiaFlD+Cqjs0aWh1U97Hw458wtCnLS3sZHx0YzAgSPAhH7gmLXdEXr618eWxm/4girdfnJG7sgGXgFaJ0iiGD7F1ykerrPQxgyhWlwS1yBXPJE2pQt7EIratWb2I3RKouOUuGZuCCb0xtCvEroj9qrwDFnpxOG0xU39WgbGNE8Sm7dAkSlPoVxSyPV2IYk9E1sPM8uRGzn5qu61F7xYdF30YGOj46MZgQNDgAn9wPBq209rfaUfj9398fLkTS/y4l3LMjqG0BVIU65GdzMibIqJO3e7rBhiN652R/j0pzDlbml5G7kgzcFti0u7D5wJvbEVTG+AVoJmViY2LebwBZBUiNglhNcFSN+QOlCxbnhfIqqU4fsSCDIokHSsWo5s35kP9q9+0uux/IwrhDjWSjnyixFYYASY0BcY4FY7vZ754ZPLu7d9Sszcf3RW7vXgTwHxNJQOIL2s7Ssdk7CGBgIJJLGja9oqLnOa7mROtMOq0jGhN2udmdAbQ75K6DoLVc0HoSS5CoR72DWWuqLKEHqgdT3VXUgqTSBNnLs+EQqJCBCjF5EaxcCKJ3zRW3P2e0XPRVze1thS8dFzQIAJfQ4gLbWP6JnfrcDE1k+He+94EtQ9g5lsychkJnFkLHLpZWxgMSaXu7XIjSQmvdJGMMY8oWYwnVv21Ar7ggm9sVUw29r85KERmHI/TeJKomz6qldvkIbM038lsw2RzPaXSAm9mjhqAlZ5yOwRUNn112cPuvA1GHnJDZww19h68dF/GgEm9A7eIXrP5a+LJm56i47vPyzGLnjeNDyvAkkuReVDihxApTtkmRuLZLZmnRLhTMJQba/KDsayWVNnQm8M+Sqhg3JIfFeLTiGlinl4reaA0n5PJWMphu7unCQuRw8EaQ071a5TdrwwD7oBypEPmR9FmBud6DnorA+i9wn/KXov2N3YqPloRuDREWBC7/CdoSf/90Q9dfsnpkvbTpNyV873JoCkaLLfA5kHorQunax1K0RjEueM7UJWC9ehN3MLMaE3hv5sCgiVX9rboTIWuiPztO2Ba8dqiNqVt6XpJtZzZYndqChTzokR+rHp8mUKYXX3oYQVyA89+YfZwy54h8g99fbGRs5HMwKPRIAJnXcFtN7ao8Zv/kBxZutzk3j7QYGcRpBEpkbdR9aRNhnqlOFrNd+t99FZLbX62IznoiLAhL4AcDvC3qdlUZXQXWMXF3pKvfAmzu7K3cxHVd5+P0hh0ZcoFyvwuoZQ8UcRBofeOXTwBe/B6LofCXFeYQFmwKfsUASY0Dt04R9t2rrw/WeV9m67NCre+zgvmUAGZfhaQKiaHhSut3SaBrdPswvGctERYEJvDPLaiJGxrtPT1ZRjms+YOLt1p1uD3LZlpdh5aqBX1RjIBU9VI6QJLxOE5RCZLurkJlFMKIq1HIl/VDI4uvEzGD7502LgGdsbmwUfzQjM7kPGghGoIqBL1x0a7dnygaR811MzcveQiMYgqESneufzjHWedrISJsudX81CgAm9fuRntdvJM27bsFb7pZvSTOter93hNjfUdXGhBDrjoqcDXfmnG05K/EopeFmJKFYmv5SqSbTykQ0GMB33IRg97Ve54ZPeg5HRX3H3tvrXko9kQuc98EcQ0HpTgD33XFKZ3voqHd53jCcn4ekQQimX6evarpo4o80KqibBV5t9zKrHMeUv3FZjQq8f20cQuklmq6lMrwbJXdycLlWt0kzbCFO3QuqRYDUZ0u8BWfvpK1WVo1xT+rpkSHFOaSQyh0KwBip/5M6+wdP+UQ4//sui75w99c+Ij+x0BNjl3uk74E/MX5d+dfbUzt++Q+r7nijVzkwGRXixhiA/Y+wbKczYiyAC6k6lgJiy48k9L6wAh7nD0Q3P6WS7a6VWvXFbsmxsQzuQCb0h+KqOJ0vAsw+htp86vffIssyUtI3scfUOSh3ubFLc/q/9C0Gqrn3jvu9CiD5EudXIjJz49WDVuZeJnotuaWxWfHSnIsCE3qkrP8d5a33dcLx369+Up7a9QFR2HJzRRQQ6MQlzple0J4wr0eT00vtkwqQ1Pa5G17otLbGnDszZm+IcB8Ife1QEmNDbd2OY74D5jnio+AOIswfB79lwQ3bkxE9jxdnfEWIDJ8y17/I2ZeRM6E2Bvb0uSn3WMfHTF0TFu18fl+86HfEO+KKIQEqrb02WhoygQIIbZLmTeRMBygnTVPtO285Wxmtp2q4KSI7BN7QZmNAbgq/pB5vIu0m6yyPWXYhkF2TX2krP6MbPY9mpnxBdz32g6YPkAbQNAkzobbNUzR+onvnVBjVz6xtLhTueneidA3lRQhAReSvTN5rqd8m9SFxNIjRGdY5+V61VJ4GaVITDZQu7JhjNn117joAJvT3XjUZtXPGUKJfQM7A0bVrjJEEouiG6D4XoOe7H+WXnf1Ise/GV7TtLHvliIsCEvphoL4FrUc06prZdPF249a+Swj3r+5MJCLLGqVubEEioVh0RhBDwaHcl1ASGSJ0mTyTusuRlZLtWUftWrmOve2cwodcNXUscSA4tknwg17v5vhCpa40okFDZ5YgyR97ZN/KE/5SrL/w0t2RtiSVr6UEwobf08rTu4KKZy5+UlG57sxq/5YKMmrKd2ky2T2QJXVlxWLLSBbF5NVnIZgVDhC4rmJLnuJ96vSvNhF4vcs0/rio7m+bdmUQU+rZoxJ5tclhGHxLvKOR7z/uv3MpzPyyGztnS/JHzCFoVASb0Vl2ZNhiX1psOV7uvfznKf3h5FO5apZMZeDqBZyzyxLgRtWnu4l5UqysqriWrK33jLPeGVpoJvSH4mnqw8UxF1LlQAj495NL3Q1FFGyi1hHjeDwLMhBmoYA3yIyddk1n2lK+IZS/7clMHzhdvWQSY0Ft2adpjYFp/y8OMfm5pYttbVOXhU31VMApzArGptSUzPC1NM/3VReRc8K6Odz/hjvaYdeuMkgm9ddbiQEdiRWxSD1UCRRmmVPpGz8CuEYwmju+SiEUGe8N+qNxjJ4dWPOHr3vAT3i96z9h1oNfkzy9tBJjQl/b6LtrsdOGqE6K9t78uKW57sVS7coGagdChKW2jmnRBGfEUP08kNFnv1M3KCG4Ro7PLvd6FYkKvF7kWOS6VjjX6TETutl2xKR9xXwtKnlM+EHs5lHQvErEaA/2nXO4vP/sjYtmLrmqRmfAwWgABJvQWWISlMgStNw9i7IYXJcW736LKDxyGaAJBVkPHZSQJWesePJk3HkatK1A6hDQCNEzo9e4BJvR6kWv+cYao3danNqzU4RAJdTckZTqy1ulh2NK7aeAmgZD0m+Iu5INDEOSPu130nvktrLvkvdxnvfnr2QojYEJvhVVYYmPQ01eeradueWdx5tbzMno3PBStgpbWtm803bI8z2TCy2RWNnaJwbAo02FCXxSYF+Qi9F2IHaF7CvCJsenHSCv6toWrDJF4OhVdtNpNyoOnJJQYQJg5JM4Onvwjb90FbxO5p/1hQQbKJ20bBJjQ22ap2mug1OQFM7e+vDh28xszYryPSF2giITc8KYWPQchPHhJAm7wUv/aMqHXj12zjzQWerUNMVnoVBdiCXuW0COrE08VbabfOmk50FMA5agA5SQPr/swlINjNvUe9sTPipHXfrXZ8+LrNw8BJvTmYb/kr6z11gzGtj9Nle54b1i69TidPAzfU5BSIkkCqDhBxiMLndu31LsZmNDrRa4VjpNQVjTZSSI7y9z8m9zuCTxBHV0EQG0SFAk1EbP7Vl6OqkmyGZTDClT3IApi5e7uZWf/d9eh571BiKcXW2GGPIbFRYAJfXHx7sir6emr1yfTN7yrXLr7L6gdq4cSpKCyNrpBMZk3simY0BtBr9nHUnc363NP27DqlOCpGoSaF2nAJ0I3CXPaJJRSqIrUmM03h75HeYFCqKH8jKlZl7nH/rrvoKf/jRi+6LfNniFff3ERYEJfXLw79mpabxvG2B0vDKe2vE+V7x7KyochgggIPWiQxcGvehBgQq8HtdY5pnoDrnZ3S93wzm53z7vGjjf/k0jIMjdkLkDKy3Go0ZvPQSuJMPQRyyGga9093SvP+KpY+973ts5seSQLjQAT+kIjzOevIqC1lhj/yWm6eOtH4uKdj1fJTgTSZPmkdyt7n6qx2m2DttltmnZss33Y6bNOE/6P4PzH7f+avtdtvEZM6G28eK4vy+wXxG11iq27N6nak/qo01eC/m7y5VLypxw67UNqHyLSRtBJCuqAKBH7fZjBilLPyif+LLv8Ka8SfU/nPuvtvVXmNHom9DnBxB+aTwR08ZrV5an7LilObXl7j3eXp6JdELoLgZ83HdqSuGxuTB4pbFDvdWOakKIWjSKBIr14GZohySQDUUP41g9Jqlv0J8UhZ58HZnuvixr9eFMUNJ/TW9RzMaEvKtxNv9gjeqtTqRt9N0yyHDVIiqClMtKxMQKEWIls/oQt3cvP/4g46K+/3vQJ8AAWFAEm9AWFl0/+xxDQelOA6d1P27vzl5/py06uDitFlEt7kc8IZHwJxNTwJQESInJXq240aBS0SCBSy155lpxTTk7/dBZ8SuizlE1xS2Pbu6G1L5lb5wVp5dO93MiLmTkRRsq2vDNzlboMVHajMnEPsqKARCXwpEBC7WurtiDv1XZDwGrBp+EqaoxE5W2xlXVIrXyZQyVaBpE5frx39PE/EIe/8xXtNk8e79wRYEKfO1b8yQVAQJc3HV586HeXVcJbntuVGYOIpuAlETyZMy1ZLSsRVQVVzjYNXyyLQTn3vPmnucHVDNJZ5/u+ReckEqQ/pY3ft7GwDRP6AmzKNjnlPvudXPNVGWV6wCWBGokoVvDy3aggQDEZjHMjJ/6m/6Anv0b0vfy2NpkmD/MAEGBCPwCw+KMLgwC1ZFW7rv2L6cnNn+qSE7lATSEJS/A8aYpv6T9lrHTq3maJWxiJrQTKI4vdWalpslC14QsR9r4qdKQxb8i8+tnMIz6zMLNcmLMyoS8Mru1yVkPq7i6eZsqbB1SdNTXrwqPEuRJiL0EkA5SxAsiuf2hk+ZO/7K1929+3yzx5nHNDgAl9bjjxpxYBAb3316eVd17zrzLZvj4TjCMKx+B5nrXCDWl7kAioUsdJZCZQAcUMY2t17+M99y1RG23sWfezeSCgot5qpjCRfvu+mNDbd+3mY+QmsuTEaWgvpDF2L/VWCQkVKmOwy6xEWecxHXUhkz28kh84+fLsyuf8pRg8Z3I+xsLnaD4CTOjNXwMeQQ0CWt84gIc2/e3U5I1vyfqTHnQBkBVAR9TaBT7IFU/JcuRSpNpbUp6zbSdrCd1a5qlwh7QKW/SOUeNKLfQ0aa59KZ0JvbO/Pume1yZnwhK6C6Hb8BM967owO3VuS0hRNpNHpHOYKo+ofP85t/auOfcdYuXzf9rZSC6N2TOhL411XFKz0Fp7mLziGXt3Xfv5wL93VOpdkEnF0rOmJLiME9oQxjqfLWEjGKzudZr4biwW8w9L6obQjfYsufNJhYuOJ5O/PV9M6O25bvM16llCn61fJzW56o2dHFQVl1viE7NLKBWbUJXMDKBSWY2yOLiQW3PiV7rWfej18zUuPk9zEGBCbw7ufNU5IKD1bw+Z2X7llyUeeKJM9giZlGytLVzZGRGzyY5zr1R1i5pauB8y25XxSxKh22xwyoo3WeEmGE8WPlvoc1gO/kgLIpA+r9oH19nvgbXS1WxBu+2IZEvcqLWb04fX6ENJ9aOSW51kR068unvl2a8W/Rfd1YJT5SHNAQEm9DmAxB9pHgJab89h7LqLp8dv+KSId2RzfgU+YuikAh0nkEFgdK5NrNwkylE9rqnVAvwECZkn5JJ35VmGzM2PTbJrZzI3/gguW2ve5myFK7s7eEroFJSyJYxGUw7C7P3q9gdU1n1HYuOhiqDgZ3IIkwymw27td6/fMXDouR8QK//2860wPR7DgSHAhH5gePGnm4SALv7P6aVdN/97ZfoPR+bkNHIBxc1DqFIRklyJVOaWuNodstpNL2kSobGErl3duq1ZJwvfN8S+fxZ8k6ZX92WZ0OuGbmkcmBJ61UtF5Z0uTwSJEWiiV7XETVHuCbne7fdDBzGiyEk3+VTa1o+KOEx1jz71a5mjn/p6IU6bWhpAdcYsmNA7Y52XxCz11KaRZOaGT1SmbnuRjHf5WX8aQs5YCzz2oBMJIboAGVh9zCQEfCe2YRLnZgWzrWSs++E69CWxPzpyEukdXPmznducWhwF0vepVacckhqpZJt7QloOgOcEGVUsUIh7oPOHwe977E1dq857k1j2oqs6Ets2nDQTehsuWicP2ejBT3zj+ZWxbZ9OwnuHs7lJodQMkJCWtQcpKGGORK6NQ9rG2AWRuo2rpy8bNidrfd869XbDli30dluxeR5vldDpIZZS2GMoGc1KHu+XHpKmixhiJw+Vim03VnpR6Iq89dksojiLiWIvMj0nVgZWn/0BrH3CR4U4KZrn0fPp5hkBJvR5BpRPtzgI6OkrjommtnyhXLr1dKixwBcKWU9DJiGSStm400183cQTqdVkTUc3Z5nYkbZvQpwZPcfQF2fDtepV3B1ckKa7SRK1HqlU+rXa5iD9nNvuMqGQk5ML1sr0R4hdDwQpyLEVQCGLMOmCzqxGbvjEH4rVZ7xFDFz8h1aFgsdVU93AYDAC7YaA1jd3q7Hf/W15+g9vLJd2dmdkAVmvDE8VIRWVpJGlTjFDal6RtfFyQ+ZkuaeJckzo7bbuPN5HIvBohRqmOjPd8zWmG+WLknVukucMqSdIPA3tubZuCvBNYQh9fxQikUPFH4XoXv9Q97InvxUHnfVdttZbcxeyhd6a68KjOgAE9OTPnlyYuO2zUekPh2W8PX4+mIHQRSAKAVOzTj+U3Us3LxKTId8iWTEJJ8Vxc5YD2Gmt+FErKFO9kVf7GTiL3TRsmQ010QxEVfaYvgUeJBG3iE1nA6ut7AGRQhJqUMNDkROIEGA67oPIH4fB1Y+/DH0bPyr6zx9vRUQ6eUxM6J28+kto7rpww6pw780fK89sfaavd3T7YhJUt+4bK51ubml2r23qQrcyW7KWfgVqLPX9boCzcXb72X0U6Zpcw84u9yW0iQ94Ki4HxIRdHGk/CqHXBpaMqJLRXzAOdijpQVETJK0R0PZ2Iopmp2c8wNOIK1aBTmSzKKsRhFiD3sHHXZNZefrbMfQXvxWiyV+CA8Zt6R7AhL5017bjZkYtWdXEPX81teeWd4vo3mU9maLwqHVoEsGk8jpRTG3qz61lorU2N0NrxThrJq3ddQjamnXXpnWfRDqy9tMHg+bAzYTeHNxb56rWQjcPmumg0oTPVCTxUQdrj0m1340bPj2H+3s1/u6OT4y8bA4J8kh0NzV6KQ2tf9absfxxXxPivELrYNK5I2FC79y1X7Iz14VfnJxM3Pqx0tRdpwQYy/tyGp4IXdmab60QeKbZizapvebWNpsgt0/SnGvsYpLr0lI399Fq5nzz4vBM6Et2G7fsxIRTZ6xgAHH+WGSGTv1ysOzcj4iBC+5u2UF3yMCY0DtkoTttmnpy8yBKt11aKtz8UqHvHxFqD3xRgUeud1PWZuOFlChnLRESmyGi9mctnSpoadzdZpXTy/zpVOeaiS0TejPR78xrp4SeIItC0oU4uwp+/7p7+1Y88Q0YeeLlQhwbdiYyzZ81E3rz14BHsIAI6PHvvigq3/GusHjnUSLeE2RMGlDiSnaI0Mn9boWwTWjRNXIxNb2pzzGNOVISnWvVaomdmr3Q55pXy86EvoCbh0/9JxGgDHrpZVBUPorIwe89Xg2OPvs96D/rX0Tvhl0M3+IjwIS++JjzFRcZAV2+al2yd9v74tIdFyC8r18mBQSk+y4yhtCtDGYFwvSatERtNK8pO96UvNksYC0jaEGiHSE0BR21gFROyGaR55Rejgm9ScDzZQ0CgjJQhI9YC1REN0T3GgT9G36aHTj7MrH8lVczTIuLABP64uLNV2sSAlpv6sLeWy+Jpm57XTT9wMG+ChGY9qmJJXJD1LNNXIwQjXHPE6mnX5Oadqsucc4mzLGF3qRl5cs2EQEToqIUFJNaIqA8gZJQKKp+ZHofX+offcolWPXU7wixjvXgF2mdmNAXCWi+TGsgoMd/eYGevv2tYXjP6Z56OO+pMQiUqUbHZLJbL7uuutbNqA1pB7ZDW9qW0jwE6KbrzLGF3hr7qhNHYXNOXN8E+nugjeJcMaJn3D54XUega80TPovchi+I4b/c2okYLfacmdAXG3G+XtMR0FPXDcfFWy+Ni3e82KvctcwXM+bGZFpPGk86tZasOPEZ61oXKmfc70Zi07C6bWyRlrs1a1JM6M1Cnq9rGhzFpBNLpJ4gUhFkBvDo+VcBYZJFBcuRHz71tmDFhX8jlr38R4zawiLAhL6w+PLZWxQB0+Sl+JNXlh68+nWB2HW80DFUUgFUBE+SUIdzxVPXNlemY9U1bPtVLT1Qtq/Wphl702bJhN406Dv+woLyUOiHvgEeNTyMzVeE0ktIOpY8WkplIPMrsScaDkfWXfharHrPv7EQzcJtHSb0hcOWz9wGCOjiz8/Q47e8sTB9/4WenO4iPXgkRcgkgqAuFYbEjaaWC6WT+IxEQp2qtIYnXblbk+bKhN4k4Pmy9muRUIc3Be0pxKbJodVqIEL33NcmoQrP7CDQ+xj4I8+4RBz85s8xfAuDABP6wuDKZ20jBLTePIixba8rz2y7WFfuPVQmY8iajHe6YVGxutPTNA0stOH4xKnMBYoU5Jo3WSb05mHf6Veu9lo3+u/WTxULH8p5tMhSD7REUq7Ay2VRUv0o5zbowaOe/Rwx8tofdDp+CzF/JvSFQJXP2ZYI6KnvP6sysfUSVB44N0hIC75gsndBndtc4woi89ijdpMCvpQwraeZ0NtyvXnQjSNgXOxpfwNKN4GPRHiIpTRNYEjzwSdmr1BHtyxmxDIEQ2fd17XuFRtF17kPNj4CPkMtAkzovB8YgRoEdGXT0Zi49bWVwpaX6OjBgZw3A6iKzXQX5Gb3kFD/aBHDN2RvBWma9WILvVnI83WJzE1ECoBPz7xGRJE0GzxEMoNExtC6ggylnYSAnxGoII+pcC2WHfSSz4ij/vYNjOL8IsCEPr948tmWAAJa35nF+A0vrZTueG1YvPuxUu2FhwgZaugCDyqJICmNl9zuTW4/yoS+BDZcm04hJXQafuAiVGYq5MUSgSkBFTJGXNHIkZwDWfCeh6nyEJR/SjJ46sWHiK7nPtCm02/JYTOht+Sy8KBaAQFduvLMmYktr00q97xARA+KjJhBTsVAooEksH2jZeLasDZnxEzozcGdr2oRMN3aNEkgZ60wk4z26eAmVB4IIyCngFgBmQAV3YXpeAgj6y76Bxz0kUs5633+dhMT+vxhyWdagghofcOycO+2i4tTWy6R4QNrulUBXhICkatH9yJAOrnYWu13Z7mbt4ySHGnG18bb58dPz4S+BDddG00pzWqXVLcGyi2hpBJrpdPXQoQBEOSBaMpmzeUCJNpDxcuglHnc3cOn/HIdE/r8LTgT+vxhyWdawgjEhZ89rTy19U26cNe5+WQvvCixsXW/bAtvKcbuanKtNjzJZZFULLVo9U27ViNcYzAilTkbdDTiHA28mNAbAI8PbQgBInMq4aR97Jm9bB9eqYOhovh/lHRiAAAgAElEQVR52iZBkyOLnmYd3bgqkUmsT4bP/rc+IU4qNjQQPriKABM6bwZGYI4I6Mpvj4knt7yiMnH7JV40kc1ly1DxBISMIEjz3SQF2c5t5Iq3GfKuRSsRurn5GUelEa5hQp8j8PyxlkSA3O2m5wFi839jgWv78KqoNt1II8eG6KkufZ+XkJgQx2DwcR/YKPqe89uWnGAbDooJvQ0XjYfcPAS03p7D2PXPrxS2vkurB47S8W74umLsb+NpdFaKHSFlxdu/0c2t9jVfmfFsoTdvL/CVZxFwj7E2y12Tve4eXkkiWUTpv9yXwWrAT+pj0XX0Oy7JrX4hC83M02ZiQp8nIPk0nYWAjn6wsTBx2yvV1AMv89VeKVCAJ0J4CCEoaY7c68q62a3ue9pLPSX9wAHWWCydCb2z9l0rzbb6UEoRJ1KJS9nEJcmZcBJZ6SKE8pwL3j3wesoSenD4my7tPeSlH2qlebXzWJjQ23n1eOxNRUDr64bjh7e/TJfvf08c39sPPAxPTJkSN5lkIaiDW2LLd6iHuo2bkwuSrBgidIpBEtnXT+pM6E3dAh198VQR2XigpI9EKmjqg6ABj/a/kYWl7LgyYt8SuqJolPIhtcCUOha5de96W9fBz/9ERwM5j5NnQp9HMPlUnYeA1lpg/KdPimeuf0cc3nmuxA5IXYanchAiD8SWuCEq0BRrp4Q4JvTO2yhLcMa24WDanEVaIRlrlMNLAteZkAg9NI1bqDGbTQL14GuBaX0MBja8/2li6Jk/WYLwNGVKTOhNgZ0vupQQ0HprJr73B1dH4W2nemIHPFGCiDOQOg8kOduhTVA5T2RbsxqTxhG9yaRjC30p7YdOmUtttzVQcxaPEuFsWqhHBR7Uapi2togRe/avStB7npGDndLrMXjWpwaFOGeyUzBb6HkyoS80wnz+JY2A1rf14sHr/n16+sanQd2fyWWmECAEEutuB3Km3aoVfSdCd+m+OutwYUJf0htkCU/OWNuK6s+NH9253O2EDaG7nkbm+ZVK1Sgr3qgrZgCRxTSOHRt+/JtGhbiIYlH8mgcEmNDnAUQ+RWcioPWNA4XtP/uar++7QKs9QqoZ+LpsM3pJOYvENowGPNWlV2ybSfqhRDn6PaR1wbOF3pkbqO1nTQ1YbB06/aSSCmmFGskzVOPstOWphFMSsXchxnJkR5/8n95RX/pLIdKn3LYHpOkTYEJv+hLwANoRAT113XBl8ppvqHDLkyR2CqEobk4CG2SGBLNCM6ZshyyY0JG57RfNhN6Oq85j3h8BKk+TRlfBvSjj3TVtoXdIjoG87Oa5lbZ+VmJ8Og+ZPQEDj7v4WNF78a2M6vwhwIQ+f1jymToEAb33miE98btvFaY3PzHI7BYS00bmklq3gNyJ8GyyEJkkRvXVZv9adztluNvEIPpTcAy9Q3bN0pumEZZxcsZe1b1OlRsUK7d2ukcPt+SOrySQFIXKZDBWHMXAyHN/md3wzPOEOKe2rcvSA2mRZ8SEvsiA8+XaGwFduGGVHvvdt4qTN27szkyKRE9DIIQ06b0mHcgW5JKiDP149D61W62dt9V2t3W89SfEmaOFtY6o5j09Fz08KKdKZ5wDugxUdqMycQ+yooBEJfCkQKKFsa74xQjUg0AtoVfd60bmmJ5nbTWHR//WComIof0sJqMeBP0nY+CQVz5GDD9vaz3X5WP+OAJM6Lw7GIE5IqBLvzq4vOu3345n7jylSxYgScudOq4ZZiVDg35ckpv5ZpGohm3KUvsS+7zBhD5H+PljLYhA+qBKhG6/B755eE0fFBNqwJbJm3aqoRhG0V+LkTVPeYN30Ds/04LTafshMaG3/RLyBBYDAV268pDK7lu+W56+6YSsHBc5cqFHCkJ2WYvclKNRwNAluZGOu3Gok5611YQV2jZjsVxvv3r7S8Ie6FzYQj9QxPjz84lAqhaXUCTJnJgS5VykKY2ny25MlLuhu47G8NrzviAPuuBtQmwozOc4+FwWASZ03gmMwJ9BQFeuOTrc/ZtvFvbeenx3ZkZkRAlxpQzfJ612Gwsnt7q9uVFZDhG8VYjTpuOaU4hzKnG23MepaJkGFvW/mNDrx46PbAwBu49p7wOJF1fDSvS+acaiFRAAke5HJTga2ZGz/zFY8ZwPir5Txxq7Mh/9xxBgQue9wQj8CQR05erjKw9d+1+V6S3r85kZQVrtmmLmZKGbVmr0FaJMX/unJv12skwodmg6RlLtTg2hm3g3iWtQ6q/NKGJC5y1YPwKzHfwe7RxErmniWu2fxpojwqXNR6fYLzs9PVfVlb7fyY1bnbxNTimOCN3kxVHuhvYgVA6aFBlEFipzUNR7+NMuweipXxfiPLbM61/sP3skE/qfhYg/0KkI6PDKkwrbr/zPHB4+yksmhOl/TlaJjKGoDzqFzxN/357m1f7mtbFzkya0jzss7YPeCJnTurCF3qm703qDqsXfLqv8EV38jPfISLQ5fyw9YDrMDKFTWaV9tiS3uY2J24cEI+FKRJ8oSNrrnhVjj9xzAHmobDtBDSJ++musPCSiB0ouQ+itQm5ow+W51WdcIgZecHcnr9RizZ0JfbGQ5uu0FQK6ePkphZ03/2cQ3b0uoyYEYsraTaxFTu5FPyQTxajBpeTcjAkyoTcD9da9Zhr2qY4wJfQ0EbPK+I7M0w+6ErRE2Cx1SwwKfkC1ZhFUlNgqTHqeNYUcAlpreIGHUimBFAKZ3BAqSTdmwgHkh46/pfugM96AkQ3XCbGx1LqILa2RMaEvrfXk2cwDAnrqBxtLU5u/Ek5vP7JLxAhUBChymydWIEYm1k1OiW8qLT+bhwvXcQom9DpAWyqHpEZ3Op9qprm1svd1sT+yPLE2Q912ALTucqtoqI2UaxQrBAHgGyvfVUY61tAREEVApi+PSPRgT7ELyK/fvfzQJ77DW3X6d4Q4c3qpQN0u82BCb5eV4nEuCgK69D/nlnZc+8WkfPfhebLCYw1p4oTkmowgPKf4ZuLgjQvDNDopJvRGEWzj4/8IoafZ5qm4yx+bYbV6klzrikJHZKa7T0squYzpEdZ2QNVWJ8lksHtE+vRZSuwcxHgx0EluZWXZEWd+CAed+Vkhns3NVpq0rZjQmwQ8X7b1ENCT33tyOHnDF1G651BPT8PTMZRpJCFt61OSgzO15mSs56yrnfqcN5TW1hgOTOiN4dfORzupg/2m4JTaTI9yZ5U/2l0+1Vmno13inOkhlIobpu1S/IAC41BaQXs+tAwQK3K3C8RqRCfy6GTg4DO+hFWP+6DoPv/hdsZzKYydCX0prCLPoWEEdOF7zyzuuuHTonDXwXmPQn4aCGMgyBgZy8SzrU9NLrvyIRPbXIUJvWHo+QR1ImC7maVZ7jb5zbYodTLDLi5uTu8kWs1fa7qgGcvbHJe66CU80ksgQk+z4OkgL0Asu1DSvYjQh0x+RRh0r/tF9tCnvl30Pov12Otcw/k+jAl9vhHl87UdAvHU955Z3nv9P3nl+9ZmkykIkreKszZG7kVIvIohdJOprrKQmgg9MORu+5s3mqteP2RsodePXbsfaevAqUVvGhKingGJI/RHzi7NhzMyxU47IXXL2xI0SmVPu6dF9q9OUZi4vayWI/LXVYL+E2/Orzzt78Toi3/R7hgutfEzoS+1FeX5zBkBrbXE3h/+n9LULR8Pi7evyWISOYqVU+NmssApVuiVoLwQCWKbZESEnpAVQ3c669JsVO1tzgN+lA8yoTeCXpsfq30IQ+iuAZBIrIb6rBCh/ZWz5A1pp4FzU39u4+T2M2kXQBswN/FzZ+FH6AbkyjDTd8zd/rIzPyRWvePrbY7ckh0+E/qSXVqe2J9CQOtveZj2/6Kw69oPB3r3SqFKEEkFEjGkqc01gtRQSFyXNDqb7f9MN0Vh6m+tK7N59jnXoXf2Lq+tQ4+NaNs+ryqRexCaQkRplnqaC2Ky4YAkofJySJvnafuWQyLxBlFMhiKZO2Ksd3TjF+Uh517GJWitveOY0Ft7fXh0C4CA1psCTN79ksLE5g/l4vtXeHrKSLFSXa2ipDcRGVe7oFpbU9tDJD7b7lQYWS03MCb0BVghPuWBIGC26KPcySnBTSWk2uZDkgarqdSgbDiyyimE5HI8qeOvBEJF70pIfwiJN5yU9cqJkTVnfBNDx75P9L1oz4GMiT/bHASY0JuDO1+1SQgYMh/7wyuLe296P6J7Rrp0wQnGZGwfZxlCeRVoKlETAjLOQOjA3BSrWe10U3TqG820zo3Bxe1Tm7STWuOy1ba87k4+2/WMuJvKygKj7mZk3CjTjVzy6QNAunmJ+D1SiusjixwVuXa8e/nGK7pXbny36H/6na0xUx7FXBBgQp8LSvyZJYGA1lszmLj9VYWxm96H6K7h7qAAhKEj58DpasRIqNbctEMFvCRrCJ0y26smjSH0VNq1uZTOhL4ktmZdk0jJPBWQScl8n3i4eerTUGSVu5g4qb25nirQpPcqe1HR3Qjl6GR++ISbswed+XHRd/GP6xoUH9RUBJjQmwo/X3yxENB6e049/NvXFqe3/L2PB/uyYi9EXHRZwk45w9MmqciU8ZgOKxKemo2b1441jVdWY+mLNZH9rsOE3iTgW+Cy+xC6kpDUFMVksKeDc7Fyj5LcbK6nKWuTAkrQA2oXdNyLUI0W/KFjb+lZs/HzYuQ1/9ECU+Mh1IkAE3qdwPFh7YOA1tfkseve1xWntr5bR/f05eQUqGuayf4xsUVh5Vypftc1pkj7OpuQo7FyXJzSWOZE/Hb+5vdNNNKZ0NtnHy7ESKvyrSYkRCLrNZ4kSaVnypSeEc/HkAhVHrHOQaAHkRgOc91H3ta98uRviVVv/dBCjI/PubgIMKEvLt58tUVGQOtNXWr3bW8s7d18qY+Hu7KYAqKSVdPwqREFSbkSYdONkO58afc06o62f425gDIlPapaHuTt321tsefHMfRFRry1Lpc+WBJvmxI22sfm4ZPIPEZCwjHSdlKLdDcSvRyev0Jn82tu0/l1v8iuf/67hNjALU1ba1nrHg0Tet3Q8YGtjoDWt/XGO37/pqR827tUeXveV+MIKNBIJrUR0Ujs/Y9ckYqygalzms12l8bsriF046601nlK6OZUabJck8BgC71JwM/TZVPvDvURN6oGrg1qenrjCKrxAqVl5FXL3H3Q9iV3/U9dJrspQTOWeQ6RGESM5RCZw+/qGTjmN97IY94thl94/zxNg0/TIggwobfIQvAw5hcBrbf2YOz37yjtvv6dgdjt+7oEuEQ3mxxEQjF0C01reWtEN9KbZE2Fea1X3d5UrahMM1unmns9W+jzu3EW8WyzEqwkuyqNFZ04YRgSKaTfmy5nrtEfbTmjZ+QsbpJLCDRlsdObtBljaCeAZBTepECIAZSTESj/iJ35wROuyq868WNi4HmbFnGafKlFRIAJfRHB5kstDgJaX9uH3Xe8szBx099k9Q7PJze7aX9KL+oUZZWwbHZwjTjH4gxvXq/ChD6vcC7qyR6N0O1DpjK6Rub3VGmWqr3R3yihjeRdSbqddGGSLFSFMtgTyDxJFQuEkUKo89D+csRi9WRucMPV+dGTvy1GLv7aok6QL7boCDChLzrkfMGFREDrGwfiXTdcWp7e9lZEO5ATIaQuO/W31I1u3ZPkQm+uzlvjSDChN45ha5zBVlO4hI6qB4i6nJEeAkxWunXLk3ohxcdpF1NPcj8ryFRHWAYqCf17BWTXsWEoj/pF76ozfixGX/z51pgjj2KhEWBCX2iE+fyLhoDWmwcxfsN7psZuepOIdyCXjYAoMbdBYX7ISldO29o2tbAWURPT1BtEhwm9QQCbfHg1Fu7yMSyhpy8ywTXoP+VS1U05pdmzCaSnIT2BKNRIpIDMDCH2VpJ7/aqekdP/Hw4+9ANCXJS6ppo8U778YiDAhL4YKPM1FhwBra8bruy44QOVqS1/HWAPfFk22uxCuPiii3mTTvtsl6q0qQUT+oIvEF/g0RFwd2CbC1cb/jFp6+at2G1PKTxrrSv3UCo1irGGlyep1rVIvCOuyw+d9Bt/9HEfFT1P2smQdx4CTOidt+ZLbsZ65trRpLDlA4W9W14l4weQC8rwlEKSJJAytcIteROZG9U3Mo0M2VP9ORP6ktsU7TKh9A5cswVrt6OpwHA9y6n5n9ICSSyhVRax1wPRPYLEW3lnV+8JP/NWnvY50fe829pl6jzO+UeACX3+MeUzLiICevo3y9XMrR8tzNz6MrLMAzkDhFRnLuFRnblKoE3m8GybSKNxbdKAafuTmEz7vtjl3r5rRyOnB0xTBknEnXZLc03QzD41cXVqFqRNMju1VIl1H6S/Bjq/bo8cOvH7uYHHfEsMPJd7k7f3VpiX0TOhzwuMfJJmIKD1TavLD/z6MhHe8+I4ehgC08gK6hdluqy4kjJyXZIVTpnArtSM1OFc/2cTk2zjFxN6Gy8e7VTlWeVBz1ZdGE0YF0/3iMFNC9TElKvFfh4VOYwks7rY1feY/xsMnHCFWPGab7QzAjz2+UWACX1+8eSzLRICuvSbtZVdN35clbY8L8C4JW3T/DGBcHFy6ltuFeCI1CPbNtKQu4DW1DOStK+Z0BdpyTr6Mib2bfqkzO43k9+hclC6AvgxohgIAmkapnjIQtEbXgz4OdObPPIPgux57Ddzy0/8OZYd8Q0hzil3NKg8+UcgwITOm6LtENCTvzkchS2fVKU7niGieyFEEcqUoaUFuzarXVKxLslhmqJdS+ZU7mPapLoyoGZrsTcKPlvojSK4eMfv/+xID5yCfO3U/iyrgSRBonxEMWWv5wGvC4nIQQfL4Hcf9vNM/4b/Qd8Z/y4Gz5lcvFHzldoJASb0dlotHit0+ap1evfWT4czt52f0XsgxJSNMQrfxiFTYQ5XniaSjJXXSgOUxrWpEXvW/W67qbUvsEzorb92jyDy2sx2+juld9B2zARQvkbk+ShRO1OsQK7vxN/3DJ34fTl84jdF/gnbW3+2PMJmIsCE3kz0+doHhICevnp9tPeGz8TFu58YRLvhixkTXzSxcUHJRTZ53dSap4RuBK0pq53qzkkljrg9gfIqriY9jbUf0FBa5sNM6C2zFI86kFoyN/owzvVuPqzIKnf5mYkHZPsxFQGqawVk9yH354Y2fDUzcNq3Rc8zN7f2LHl0rYIAE3qrrASP408ioGeuOa4yuemf48LmM309hiyZNdT+1Oq3Wh1rs5ut650IPSV2E0dXWYB0r+HbrHdZNIly1UziNsWfCb21Fy4l9JTHa2PpaUdeIYEydfnLH4qKOLKQHzj5X4KB076HZeddIwTFifjFCMwNASb0ueHEn2oiAnry2sclkzd8Lq7cfqrU98MT0yaD3TZGSWt9rAvdinM4kqdWp+SON+9RZnsGJlGOKF+WbMka3U2r9UJNnGSdl2ZCrxO4Jh1Wa7EnwkMkuhF6fRDBct0zuOFfvZEzvouhJ1wpxDpyIfGLETggBJjQDwgu/vBiI6D3/s/JanLbF+PpO0/wxBg8PwRQRqJD06giJXWZWClXmwBHCls2MK6oEYv5074lNSm4K/u5lP8Xe1LzeD0m9HkEcwFOZZRanatdKXrAtDlwwveR+Msw5a1Dpv+xP+0eOvGLCA7/lRh4/MQCDINP2SEIMKF3yEK34zR19OvHF++7+nN+fN9xXrwHHkrOIFdQMoQmhqZMYXJXul7mNYW8ltBND3MidMqDT1z2O/2Cytksy7dxThy3T53njZ1qq+9/Wvd8aB4a902ipPwNWy5ee2z6+ZTQNXVJUz5inYPw+hFkhxDmDr42t+ZJn0Nuwy9Ezzk75nkqfLoORIAJvQMXvR2mrKevOLuw47rP62T70b6cQKBC01zFWOQmk90JxZg689RtTuTuZucsc7rb2ti6/YWNrc/2MW9nMjez4n7oDW3ntJ+9eegzeNrT2WoJqyVo9ws9+7kwj2Fu2ocJkMSAlTRASGkd1MPc9+AbbxGlr2vzHjmEYjGEyF8Lv2v97fmhk/4Jy9ZfLvLnceZ6QyvIB9ciwITO+6HlENCTv3hSac/v/1mKB9fp5CFIUQJVmdmacZJsJbe5lXJt9xh4o+AzoTeGoOFtU+5oW5Oa/VQldPLv1BI6/b2mzSltSE0Jlo75PQFNvf1MPib52aVpDlRRPkI5gEzPEYXs8EmfkoOn/ofof96djY2cj2YEHokAEzrvipZCQE/9+BmFPVv+Mancc6iHMQReCZ62lrlNaEtdnlSu1s6NT+cHdib0xnCscd5Aw4VharqekUdHkyUuYutSd3vOenYkfIqFR8q06fUoP8MGzKGlh1B0o5AMIhg4Et3DJ3xajhz/JfRsuFOIYykRhF+MwLwjwIQ+75DyCetFQBd+/IypnZs+o6L7Du7yZ5CEU8iYxDfrIk8J3ZpQtnsa/bLd3eb14pVakoZnSPfbIaElNfuwlqZ1FZeBym5UJu5BVhSQqASeFEi0ML3iO/lVvQGaTURucsJxv+oJaXsBkNs81VtPN11YAXKZDDxPAomGjgSUzCH2BlGRo+hZcdJ/yZHHfhiD6+8WYiOVVvCLEVgwBJjQFwxaPvGBIKD3/vcLp/f87qNS37fGE+MQcQFZ6pYW1ZSnWW1Xe1qKnTtVuHZuf3ogGD3aZ9lCbwzBNJHNCAeaRijE2jXBc0kWOpCk1ZHVhyT7ACD8LCplm6yZ6R5AWfVgJhxCz/BJv86vPuudGDz6FiFOm2pslHw0IzA3BJjQ54YTf2oBEdBjP3llceL694eVu1Zmg13IeWUgURCUiW7qx8kVSq/aWnNSfSN1OJt41KkvJvT6V95IBTsdA98Evmu2WPrsSIZ3+gzp4ueUwS4odg6JmNr0ZvtQ1DnsjbqQGz7m1qHDzvob9B33WyHOH69/dHwkI3DgCDChHzhmfMQ8IqAnv//q0s4b3x/H941mMtMQMcXNFYTIQ5VjSJl3RrltrGKtcycUQ6pwxkpnQmeXez2bkgIOZHrT/2cT4GrPlOoQpQ+WtoqCKiwiY5VHcgBT8TJkeo9/oPewsy7F8Ak/FeKs3fWMho9hBBpFgAm9UQT5+LoR0FPfecv0A9e9M+dNLlNqDBIFBBkNxAkQeqZtpPF1GqGYaLanuSF0qhVyqm91j6D9D2QLvbE1JA2DtKFPtY7c3RXTWnL7zBhAU32a9kx+AvF6KHpRDtbEQ2tO/wQOOfNjQjxnrLHR8NGMQGMIMKE3hh8fXScCeuwbb5vedd07A7F7mKRcSfRFUh9zc/Mkq4k6pFGc3Ca/aRFZDXZTrmaTlkwNcRvLttYJ3T6HMaHXj6Kxto2nXRr5tkhoJDIxym5mhymY5EGE2nxMBFlE6EUx6oOfPRT5oQ3/6q0/72+BvWNCXMSa6/UvBR85Twgwoc8TkHyauSOgd3773aWxa98cyIcHBaYgRMWqvRmCNu3Q7A9lahsytz/GtW5i5rOvTid1JvS577v9P2kInX48KjXzkSiNxNWV19afAwGE34uKolj5cgws2/BTf8Xpr8HQ8TuEOImaBfCLEWgJBJjQW2IZOmcQye6vvjecvOVNfvmhfl9OQ5v+5DYBzpSl1Vrchsidepe27VGNSSVmhWWY0G3sl2Po9X2HREYiLisj6pbJEpAZILZ7EhmBktaIMIBCfAi6+k68cWDtBX+N4VWbuQStPrz5qIVFgAl9YfHls9cgEI1/4yMzu3772ix29OZ9BVRmoD2qIyf3uTfrQjf15VT7q1y6G8Us0/pg8sKTlW512WdlXzsTarbQ6193iplXYiCXty52Tf3NKN8tyEMji6nYQ5wZgug78g9Da897AwY3XinEScX6r8hHMgILiwAT+sLiy2d3CES7v3zZ1Pj1r8tjvDuDGYgogfQp0SiuEjpZ53ZDpoRue5yb0iIj+UpWvNVjJ1130/602j61M6FmQq9/3akcTWSzqMQRvFiBtGGk9hDpXiRYjTA4cmJg9ZPfj0PO+BchNhTqvxIfyQgsDgJM6IuDc8deRWstsfMbnyzsvfbVQt2fz3kVQCdQkYDneTbRzajA2SS4lNCt3KaLnxv0Zq14Wzrk6oZZKY5d7nV+u8hCj8jfQ1vN64bv96AUZXWE5fHwqjO/KI+84FIhnry3ztPzYYzAoiPAhL7okHfOBbW+0sfOOz9eGLv5r7J6R87PhtBh2ehcy6ALcVSBlCRrrSCoDE0HVkzGJLqTW11BS8o5mhWUkUZ/k8jfSXcZ0uc6dI6h1/e9Eh5J4JK624AO/UPigVVnfi848sw3CXEhtzOtD1I+qokIMKE3EfylfGmtNwXYu+0fpx66+tV9mSkfUQGIy4CfMdnr1M9CBhJCkbx1SugUR3eETuAIcrnbxhjmn0ahi9TjUhd8WtLGhN6uhJ62LzUPca5lae33YvZZLe2CZn9L/e3T16P3Kre/N21RU6U3crGbzHbaQx4U8ghVPyJ/tNIz/Jjr/ENOf43ofdW2pfy95LktbQSY0Jf2+jZldlpfk8euLZ+cHv/dq7LeLs/XBUhlRTmoPaWVzLYxcBsTT2vPDW3XjNkRde2NPo2zu8bVnWydpyTYrlnuhszJ4+KW3TaVsURsOpKmZWXmMy4pUigkUkNJ2/3Mow6mCf1WQHoZy95xlL5JaRcI1WzPFU0OH51HgB6UcGgl6jv7rqGDz3ibWP7My5vyZeGLMgLziAAT+jyCyacCtL62Dw9v+2Q4c+MrVHQvMn7RJrCpfFUsxlhiomJi5J1edtbonmnnpLh9CZ3CK0Tos4gYzfRU+MUkRpLii0YiFBSpvlTbkEuIxIOKFRU/kEYM4AsgUNCxsvmU1F1O9qMS96NY6Q57+w7bkV977vsw+tj/EOKcfcUNGl0UPp4RaBICTOhNAn4pXlbrXw2qPZs/Vpjc8goR7kLei6z6G9nkWhjr3DZaIX+7dbUbE6rD1d4a2QvtTOgm0TG10KWtaKgSehpFqcmVMK711EonaQkAACAASURBVG3uQFOGwCUU6RRQO1g/AxFQ+VkB1No00wXKfINO+lBIVidR5jGTg2vP+gIOPf1jQpzECW+NbD4+tuUQYEJvuSVpzwHp6RuWhaVNHy/PbHqpjHYgKxIEZFXFZB7RazammZal2fdYvrWRFW9vQrdtUcgMr+lOauHQltypLDGdI71NLvZZydb0mZDqzQLESYyYuvR55H6nBj8ektCDH6xUCmvHg8GTf4TDz7tUdD/loUYw52MZgVZFgAm9VVemjcalZ363Iind+NHi9JaX6OgBZEUBAVlSiQehqP0p3bRpQjEgSb2DbsQky8Xd0hpd5nYmdBPudp500hkyZD2b62b2DNWKWy0C+yIr3fQuN5Y9eXrcL+gzVPxA0uuKQj85xBhF0LV+XObW/zqz5vR3i6HnbW4Ubz6eEWhlBJjQW3l12mBsunjtGjV+88dnCpuf74tdyFKdeVIy5pVH7nRXhmat8sj+GEInXyi538nV2rlZ6o0ucTsTOjXSI0InYg8SgEi92g3XZPrNZqnTZ9IESo/I3BC/I/TEnoeUYZTsRiT7geCQSZE9YmvXijMvEyte+aNGcebjGYF2QIAJvR1WqUXHqEvXHarGr/lwOHPb8+NoErkghO8rqCg0RC5lABLJnk2Co8x2YRPhKOvdZbQzode/wO1M6PtY6JSpTnr+1Rozl+YurZ6/4W9yzVerImYtc/NcKLKoRP0o6INnZM/xdwysOeeLYtVLvlQ/snwkI9B+CDCht9+atcSIdfmaI5LxLR+NC5ueHWAMQmvoJIZWkfWCUv9o4UGQkhuJwwgrIGMV36yEq3G5t8Rs2ncQ7U7o6frTnpBazCbJuSY8xkp3y2O53prxzuEOLXKoJD1QYigKeo66Kzd69tdx0PkfE+JY2nD8YgQ6CgEm9I5a7vmZrJ6+6phk+sYPhaXbn+3FD8NHabZbWuo+p5pzEyN3giEkEGPqzonQXYMV03yFs9wbWZV2JnTrqUnb6bm9YorKKaHN0rjwfVDteBgmCLJZxPTAGACxTiAzfSgUlyHbt+HurpEzfoLlp14mus/khLdGNhQf29YIMKG39fIt/uD1zLXHY2bzP0SlzRfq8AH4umK6n1mFN5fh5BS6qo1VjLKXHWtaxmaPIbLnLPdGVrHtCT3NejMxcFtnbtvpWlUZit4EpEkkMki0j4oOILO9iEUWIUbvHV551tXo2vApsfyFNzaCIx/LCCwFBJjQl8IqLtIcdOGaE/T09R+szNx6gYh3IEDZtT0lU8pa4ORqpxcpwdn2pxKKSJuy3Y2+RwRBtelG7cN8cpFGvzQv086EXrv89PAn6G5U4183pE55leTRyQKh7EZJrUBJHbynf/SU/9e1/NQviYHnXLE0V5ZnxQgcOAJM6AeOWUceoQu/OTme3vLhuHjjubr8IAKE8D0fSFJJTtdEhYia4uY1ndIMoWvPJDTR74zL3RG81WlnUq93U7U7oZtSM/LUuB+6IZnENyftK3wPiQgQyj5Mx4PTfaMbr84tP+2HYvjV/1IvZnwcI7BUEWBCX6orO4/z0lNXbYwKv/9gXLzjHJHsgq+K8MkSF565ETuT3Eq5kiwXdUlzmu1pC9RqQpzK2ni7Oci2R2VCr3+x2pnQKQyTCsXRM13aqEWQqS4SKJGlZDeUo5VxbuBxV2aXn/pzsfqVH68fLT6SEVjaCDChL+31bXh2evp/z0qmt324Urhpo0x2ICNjylM3CnCaPOy2OZpte1pD6FY0xnG9IW2X4U6EbuQ8nWVek8Xc8GA78ATtTOi0XBRCN3KuCKAVSbh6iEi7VWYR+8Pws4df173qzCuw8tTLhDhnpgOXmKfMCMwZASb0OUPVeR/Upf85Nxq/6YM6vPc0Xd4FT5fhC3KpC2OZJzqGlLSFXJOVtLKcmL4q+UWlaeRXtcwvDLFTS9SyAzRj4uz8qg+BdiZ0k8hOjE4WufSQIINQ9kJnV8PrWrdNdR350/xBG78gcuffVR86fBQj0FkIMKF31nrPebZ65orzKpO//7CO7j7BT3ZDxtRohbzjRM7UBtVlJBtLm1zttgXq7IZKG1jZ+LkGSb1qkxFvOq2ZPylwmmVCn/OqPPKDC0Posw9YlMBoEtZsf539XrUPYrWarft+jFzrsz3LnUfH7Bf6Ibd6DonMIZKD0LmDH8oOHPttf9lp3xODz7+6AWj4UEag4xBgQu+4Jf/zE9bjV1wYF3//IR3evUHHO+HrEiS5yY2rnOrGrcVtbvBGMOaRSW1kiZvfVzupUfJc2vKSMuLp5erQ//yQ+BN/BIGGCL1m3VLCteGQGqI23hZaR/enG0dtuaGJeesEWmuYv9NSa41Iafg+QF1NjUqrtJVpZhuQTjuAgteHyFsJEayZyfUe/fWukVN+JkZe9n1ecEaAEThwBJjQDxyzJX2Enrz8udHUlveryu3rPbUHEkVTO26J2f0YpiZCT2PjnKXerE2xYIReNctrwidpToSZrCV9m8CmoZWCckY6tTOlwgZjhCtlM9hNfx7y1FAiJZnsArE3jGlxUNK9/Livd42eeJXo++t/axaOfF1GYCkgwIS+FFZxnuagp3/w/NLELR9Kyvce7uu9FNGESESNG50u5JqpmHIzd2PnfubztAIHfpqGCN2Q9r6u8llPjC0Kt54WG1JJXe5GJMg9w5k4OKVVkOGthSF1svLJ4rchGmqj5tnGKUpiJs5B+YPI9K5FpvuY7/lDG38Bffx/iBUbCgc+ez6CEWAEahFgQuf9YC2pPd95Wam49b0q3H6I1JMItHZtKr1qTbAm8RgickGiMS52rknGi5PamrWNGib0qnvdaaRXnS3pmjrCd3eKVPFvVgBmltBtiIXc7+neoQcGYnsfCfKoiAEkwSp4vUf8umvk2B+i7zFfFb0X7G4WdnxdRmCpIcCEvtRWtI756F0/fkVl5vfvj5M/rMqKvZC6DB2TRJeEJ2x2eioUY0/viN3oxLAWex2Qz9shjRG6TXA0r1TpL7XYa1Xb9omrzzZHMYeR3kDqbidPOr1n/meJPkqoP/kgYu9gZHqOvyM/eNK/Y/jo74u+826bNxD4RIwAI2C/xoxDZyOgH/rha1Da+vflyl0rfH8MvqxAJxEQZyDIujJkTspvKU7uTu9c7iaJii30pm2ixgid1nK/TPVaQjeLTz82EdK44+n3JN/rEhyN1K9JcouslL+GkxYCIpmHNCVoR4zn+k75DPo2XC6Gn3tt08DiCzMCSxwBJvQlvsB/anp64vtvinb+7l1CP7RcqGl4Hqm8UQZTYknaZCuHVU126oxmNNhNeRpZ6WmyXAeD2OSpN0TotQWD5sHMyfjWeGDsEx0ROgkC0T8oXZ3a4caW7CMi+QDwqUuaRiIShNRIxV+BJDgs6R0589Oy57ifYviiXwqxX8C+ydjx5RmBpYYAE/pSW9E5zkePf/Pt07tufFcO9w8GcsbenGMicspmotgnxcptApwNi1JzFR9Cec6tw4Q+R6gX9GPzR+iOuG36m11/K71vSxWN9r5T+CNrPOXmhB4EstCejwqlUXpdEPk1yA0d95VgYMP3MbL+CiHOSVWEFhQLPjkj0OkIMKF34A7QO//rPdHMzW9OKn8YCLwp2/5U5Y0lZlypJvmtDEqCM2VGpvachGFme5kbC91ptrPLvXmbqCFC18J0vqsGU9KOZ87VTs92htANqVuFQPOGpAc/68gx2e2yD6E3hChYC6/vhJ93jZ78FYysv1yIEyabhwxfmRHoPASY0DtszfWeb3+gMn7jG2W4vTfITkNpJ4+teqp67CYeKiqzljlZ5zpjbt6G/InMq/KuJO3KWe7N2kaNErpnHtict6U2qSYlcvrTeGxI7lchjm1ve9+T8IIeFOMu6OwK+F1H3JgdOuGfMbzxctF1zgPNwoOvywh0MgJM6B20+snO//pEZe9Nr5bh/T1ZlAFZhvIrptoYKm8y1q00K93gQ0PUWlvLnaiciJy6qZnPpIlwaVe1DsKxlaY6H4T+iBa2ROKmDZpvyDxJIkRCwaPnOimRUBe0pAsVLIPoOfbe/mUnfkqOHPffIv+M7a2EDY+FEeg0BJjQO2TFkz1f+6eZPTe8UkQPdPUEFeM9RVSGChQoDCoT2wWtmuyWyrLqwDZXIdoXoSX1aps1pxLWIRi24jQbI3TPhcI1JLnR01I107eeYuYCMWm5S0BlBGIRoBx1QcthdHUfXsr1r/+4HDnl66LvottbERseEyPQaQgwoXfAisc7Pv+lmYnNf5ERY/mcDKHj0FYfZQIkOoQSCpKscxczNZtCC9PTnO7mVrPdZjannzHlSqZFKvczb+YWaozQfajEN/KtnkhgktApMO50+OlBDxmBigYqyCESo5DBkejuOf6fuwY2fh6jx90pxDrqtMMvRoARaAEEmNBbYBEWcgjxg5/9t7Bw24sQ3p/N+iGk50EnCRIl7N9d5pOJjRtCd3rtyul5VkVlbJzV/t59zpA+67gv5Pr9uXM3RujU094ROi2rKVdUUEiQCI3E8xGLLCrog86sRtfghu92DZ/8CQwdf5MQG0t/bmz8e0aAEVhcBJjQFxfvRbua1lf6as/2rxZ2X//cHjmZFSgAScFmKgcZxFKjEilkkIVnEt0qNsO9Suh+NavZqMRZDTDXZYO0valmnV4sLLNoi/ooF2qM0K2Wu+2Ea28F9ICnaE29LGIxhEivQffQhuvE8tPfi+xRvxP9G8ebOV++NiPACPxxBJjQl+Du0HpTkOy5+Wt7d216Vp8/lfHUXgjbNQOQnrHAYo9u5B5k7NsmGoIIPU12I5K2kq90w0/boJoe6E4tzBI6udtZ+rWxLZR+BdNuJ/s2SzF9yKlc8FGb1Frp9GoYpGa9lMl7IKKmlMcS8P/b+xIoua7yzO/et9TWqzbL2jdLlm1MIPaAbQbi4JCEZMIwCTlJZrKcTCYnk0wmcM5kEiaEJAYHjMEkBAcIEGLABrPYBoSxIdhgvCNL3iTvNjZYu9StXqqr3nLvnP+/91VVS7ItdUu9/s9Hp63uqnrvffe1vvtv39fch3TgOUSqDpPn0LrobndX7wonITIbw+pemHAJjFqxs3vdGy9D9dxbVM8lByd3n/JuQUAQONUICKGfaoSn+POt3VptPrftmmz0wV+Ogj1hqGjOPOcudp4lZkKmTvamEwcxZRd5s5Z3ISTiI+8XcTp3wiOeeET2dRIrrNojf+xo5urXR1cxaIM1Xqi57TXvfoXpkwq/eZ5OKAid17oOjO5CNrQLKh9xnuTUA8Fz5QlyA+Q6QB70o4HTgPKGPf1LXncFFl74edV90b5J3KC8VRAQBKYQASH0KQT7VJ/K7rutyzaeujZrPPXmIP9xAByC0qnTBbEVjsA4mqMUu3IlUAtxSzvV6/JSn89ZD78STh+9k9B9OYMJuP2rOr5vgcYJSc3PbbC4NMISrrTWtEloAvYw0NgDkxyETutASlr9tL8jdTcApX4kthcNLM26Fp13VWXlhZeh620HRap1Op8MObcgcOIICKGfOGYz8h3W3rUg2bX12mR4xyWRPRjE1JXOTU5xiwtcvdXNkRf18qKTfUbe1Hy4qGPJm3PWwxmnUBNiIdzT5nRH/JQl0dbJsNKkAm3YDEpcLtFsppJDBWOAGUZW34Xm6H5E+RhiitoNcbrCaHk5RrECvX2v/UJtzX/8v6icu1861+fDgyf3OBcREEKfA6tqh7ctTg/ffU3SfOyNQf6cDvNhhJxSrdAAsROIIV12TWTuCECzcAiRhRzTisCRhN5B5kWDYkdw7taL3+NS9NpSSp0InQRfSAiICD1AYDWTvWkOIqhZIBnE2OAeZM0GgkAh0iWMqT6Yhed+v2/lf/xjdG14Wqk3ywjatD4McnJBYHIICKFPDr9pf7et37XcHnzocyNDO94Qhft0ORgA8gaQ0dhZzUfoNF6WM6m7Oq2GprE0P5Lmxbqn/V7m4wUc+QtYbLDaqfiO1WkV1116nXsceR1dFE97NG5uo9I4DEKTQ4UWGDsMjA4iTROMpgEa6EZ10ZmP9qw4/+1YcN4PZARtPj55cs9zEQEh9Fm8qnZs66p07+1XI33uDSbdrwI7hJBSrBSFs+Wlc0gjcmDHNJ/IZUU447rYrU5epH96FgMziy5dvUhtvFUTb/2GehLvvDcSAzIRW9o6VzwXubvSinXTC7l1Y4qDI/neQ/Ug7lmze/EZF/wVFq+/ViLyWfSgyKUKAseBgBD6cYA0E19iD3/7jHR0x782B7dfVNJDilTYVU610QwIqL5KqVgX7zGh25i73B2RO9c0N5JG3VGSeJ+eNSa3MyfU43jdDY8xMXtydtdF3+8Q9GnN/tN60qaNNmY0Ruhled03XHNcWEY9KR9q6qXP9S495ya9cOXfKnWx80aVQxAQBOYUAkLos3A5bfOuM7MD931qZGD7RbXoILQZhbIVaOXH0qiuSv3LlG6Ft0AlQrcUzblGK0cY5HfO//rPQhTmyiUXv4JE2H7mvxhBK2rlreWhtaPMC6VbSPjHkz2PHBZjhPQM0FqXkKNqGmH/07WlZ30YvWs/I77kc+WZkfsQBI6NgBD6LHsy7MjNr0z23/+JbOzp11TDYRgz4gRheEzJkULRAe2o2ku5sgWqEyhxr3HNcZySn2UYzKnL5e50OorOdnd3LrnifkJa6zwzTstFAuu8C4uAMAWCwzA2gTZVwFaR52U0TZdR1ZX7o951nwwX/9SVSp07MKcwk5sRBASBYyIghD6LHgw7ePer85Ef/LNpPPaaKB0AbOKCNa8W1hJ7KaK1jtRs0THtyN/Zo7qDCF38zKflMWiVPIi7XSmE0uTFLyWTOqnA5ClMlkMHIRCWAMrEpDnSdARhtYGMtAXyhTB6kYFeOorKihvjBZv/QtVev3ta7ktOKggIAtOCgBD6tMB+4ie19X+/YOzA1o+a+o5XVzDgBs4yCxuEPLLElqYccTvFN3fQ910avqjVsqIIO6cVhO7G2uSYegSsppKH63VQ1K1u4/Z6cYBuYE0CRaQeWcAY5HkOaxWUDhGwuY7CmKnYpl5eD3o23dPT8+q/VLXXbJ36u5EzCgKCwHQjIIQ+3StwHOe3Q995Xf3wXR9B8+lXRfkgIhpL4z4pEo3RTOju8On2DpXQce5orXQ8ReiuL4rESFz0LsdUI8CmNzRl4And1cepz8Fn22mDxlb0GYx1/Q6GNdhpE6eQZxVYtbhe7l37YNi/+e9U+Zdvmep7kPMJAoLAzEFACH3mrMUxr8SOfOON2dC9/9Ac2XlOSdURknBIRtrs9I89xenUFe2bpDhl6/LvLrVe6IP7rmcvIdqSDmX/ayHz6XoEmNB9RztNH7iGxU6zFlpj0g8AjA2QsrFOCVZXAVVqpPq05yt9519Z6u39tHSuT9cqynkFgZmDgBD6zFmLo67Ejnzv55KD3/uQNk+8Ikj3QVH3el7heqthZVAibp9it5GPtj2hs443pXPp58WUEinGeeOOwtfcj0rNYBjm9KUV/O009jsGDnwGJSNxmKCMPKggMTWkttYMy0v2dPeefjX6VnxIqTcPzWmA5OYEAUHguBEQQj9uqKbuhdZalQ98/c2msfOKbOjxzRU1CNimmzG31OgcIddl9q6ObeJ02Vsyrm0NcN8W7dPrRO4uxW4RIUfMHthO272z7j519ylnarut0apxH4R3XHPsroGohCQroWn68yBetq/ctfGrumfV+1X1whcEP0FAEBAEOhEQQp+Bz4Otf+utzcEffrBx+NF1vVEKJGNgj0utOQXLFissJRMgMkTIbQ9t1+BWCJY4oRJXL+8k9NBpfvMrCznYGQjEVFzSi5qjFCd/EXHW4yhXHOuXi8vjrR8oFvpxfy2yKW4W3agQuS0jtT1Wx6ftLXetvUt1bbhM1d64bSpgkXMIAoLA7ENACH0GrZm1Xwowkr+1eeihy/Pmj9aVg1G2unSpWKcIVqiJtZXEvMXmUffBBfOOufMOIiEHL2/b2TnvPIOgmJpL8eI6nd7ubfc5PxfOpQma3y82TTRNUAi5kIRuoYnf4RHP0XbhYR5QAbwlAuMa2wyPk9N7IxPzCBp0A4hzmJByJiGathspluyvVTfeX+4+88Oq603fnhpQ5CyCgCAwWxEQQp8hK0dpdgx8+Tebw9s/gOT55aEZhDV1aE2dzy5NXki2ujQ5jZ0RycjY2YSXsCWv2pHhoIkBT+KuRtFJ6EXGoz1N4ObH3ebJZTw6Dg7HrftDRxi4rnUFpCaHzSxikm5VIcv1JlajiQB51He40rv2wVLXGZ9A+W1fUKrlyjLhW5U3CgKCwNxHQAh9BqyxtVsjjB74jfr+B9+fjz65rBwOININ5HkdWhFhF4TuFMTahM4sIXPkk1rDzl8BT7zj0umdXeed1qWk8FZ4lbvu9FZUTtejqTvdICfpXa1Y7Y16HnROfQvsd8clFGMtMhsjtz2AXlIPyssfiyurvoglyz6h1Gul4W1SaytvFgTmFwJC6NO83tbeFmJw3+80Dv/o8nxsz6II+xGpUSiMOfMUctKisI6idK8I5+reTrpV5sgns4Ad436U7WhF7OPT50efwfDGqlDpc8I9gSd0yqXTzzIYbWGo58H/limjmNDDnL4RsI5AIygjVd1pFK58rFxbuwW1TR9VtVfvmsxdyXsFAUFgfiIghD6N627tjhiHtv1eMrTj75vD+xfGegylMAGMt0ClJjgbsIjI0YTu6rjtmu803sisPTV1mZORCUXNJLZTpNILQnfE3T6Kmf327L4dJ6HrVPl4TWh1yMZUKRiTuehch4gUNSNq2FyhnlWhutc9FVRX31zqXf0xVXr9zlkLpVy4ICAITDsCQujTtARE5unAM3/YPPT9y2KzuyfIEyiTQFPkXcyN8yxT5AndEQWNNlGDFlERE7rItk5iBQlF5wvvmt6OrpEfTeiFOYo3wlGp9yF3pQ9qQyTlPvYip080GRO5oZ+ZEJmtIgi6EZX7n9fx6bejZ9PVquuSf5/ETchbBQFBQBDw/44JEFOOgLU/ruDQD/9obPjhS219Z1c1GnWdUlnSHk/jqJxy7CTt6iiHLcy9E5fzMyedODkmgwArtR3ZzEYbpheLzEkbvzC9aVnQFr7z7UmClra+IVMVUncjUZhuZDhtb1he9YO4e8N1qu+Sr0zm2uW9goAgIAh0IiAR+hQ/D9Y+W8bBB/5389CDf2eaT5crpcOArTsiZ59yNwbFpKGJxDtJmyJ04nHffc2yoULqE17CltsZEbi3mfUZj2P3lXdG52yP42f8i61WcSUuZU8Ruw5iJHmMFL31qLbmB3HvWdeh+5VfUGptY8LXLW8UBAQBQeAYCAihT+FjYe2DNXPw/renh3f+dTC2vxRiBAjqjhR4btmTil+VltZ3xzU6ze+imcs1crW02afwXubEqVSH25nHlA1S6CjUX1i9jUR93KKwezk1wVHXugJ0qGDI9S6n1sXQ+ZZby0tpdAUNUzNh16o7Sl2bv46+1dcp9dqfzAns5CYEAUFgxiEghD5FS2Lt1mpj3+N/mQ3d9//i9IWAJFudLzmRsovICxkYzyhcm22Zd3Bk7m1Q2RLVEw+TkiTeJ7SMjG/hdubn/FkopsOwxpunOCp3ErnUwcCEDs0eOTSCFtAsObF4HrCsrop6gXjhNt236UZUTr9OlS95YkLXKG8SBAQBQeA4ERBCP06gJvMyax/rNgfv+Kuxww/+H1XfE5T0GAK2zSTZMBpHK7qji7MUkbdXJKNuaWqGY0In4nCv50Mi9IkvTaurvVDiI+U3v1FibDNAUymEGhVp/IzWxUXmvAEzAbQt87rQmFquaC17oOPlT4bVM7+GyrrrVc9Fd0/8AuWdgoAgIAgcPwJC6MeP1YReyWS++4FLG8N3vD3GboREEqbpSCKIgIy6o4kIXNc0d623JEkp8qaZ88K4w0fo3JRVSI76zuwJXZ28qY2Ay3qMsy+ltVKknU8z//T/lGMnC1PSwleweYwQFeSkERCE0KW+XWF1+Q2ort2iuv7LzYKuICAICAJTiYAQ+ilEm8gce+68LBna8ad27CcoUTd7TISeIc81lI5ZkIQON37m58qLESryNWdluLY0qXtxkRJuS46ewtuYBx/ttNucQEyR+fBmKdplSWir5TZeMYyhMbQYlnTYUUYQLTgcV9d8Fd2rtqB78RalzqOQXg5BQBAQBKYUASH0UwS3HdjeZ5qPXT566I4/7AoOQOUNgP7oJhAE3DBlcvJLo8q561QvDFM6e6bHl8eL8ag2wbcI6BTdx/z42OLXwE0RcBNcYcCirXM/s4GLxE0NFlVAlSm9bsvdp29RlZXXon/TFqXOHpkfeMldCgKCwExEQAj9FKyKtdv70n1b/yEbevR30fgxKqWmS9kmCazRsFEME1CEl7H9adva1HW5uxFzP75GaWAme0fiVjmNcKrnknhJq1HuFNzHvPjIYg59XF8hETpZzlovNUPrUoaxNVjVhyhcCFVa8F1Ey76I7jNvEqnWefGkyE0KAjMeASH0k7xE1m5bnO5+6B/Tke2/qbNdKKkmlG0ANgMCqo9XYK1Gpiy0NQi44YrSuy7V61LvxQhb4WtOTVcFoVNa3jVoCaF3upsV+IwvSbgGtqOnAKhW7rTx24YsLTEYT+OUMclpA6a6YXQPoBZChUu2x7Xln0F52bdVz88+fpIfH/k4QUAQEAQmjIAQ+oShO/qN1t6+2O7e9rHG0BO/qvP9KEVNIC+8s33n+ri3FSleIo2OH7Rq5PS9I5fIpYCdTKn33T6J9zCbPqoFQ6uJ0MHlDGuomOFwJfdRirWNcdrqWjkjFRo/01T0sDk059ppc9UEDI0TKiCsIMu7kOtFsNHK5+KudZ/W1Q03qdpP3z+bcJJrFQQEgfmBgBD6SVpnW79reTZ4/yfykR2/FJn9IGdran4j5TeukjNhOB1299VFkmKuMvEFcBh64ZeOaG1EFAAAIABJREFUJ7nAlCJsJvGgbV/KNqeKzFiIyC2UCpBlGSwScjNFELrmN2Ope70HKjr9YFBe90ndveFb6Hr9HUr5VMnEL1veKQgIAoLAKUFACP0kwGrrt61oDjz+6ebw42+K810oB6OuqSqjIjf5mbtIkdLmbKxCROLPK5Iwk1iAIjLnEkXJS+cSwecgi1ke/yMhfF3M7lvkNM9fgM/rEXC93IYZW+JktgSj+hBG63Idrrk6rm2+Br3L7hKp1kmsk7xVEBAEpgQBIfRJwmwbt21IDzz8ycbwMz8T4RDKwTCQ16kt2s2Zm2g8ofsuajdbXjS7Ca1PaBm8FjttmJQhW1KaI3eCMOwXz5KtTqoVpABHsm50uOYDTqvnvE4hEMZIVAW5WgAVL99S7j7n00H3mbcqdcbQhK5N3iQICAKCwBQjIIQ+CcBt4983Ng/c/69m5OmLTHIIlSiBDnMgHQMyyt+WnP0ppXeVdY1sXiSGx806/bcncR3z+a2d/QSgaNsr6bkHm2rhKWBIZpf6DgnzQgmO4nGK4zVS1Q3o06Era+4oVTddhdLq76vaWbvnM65y74KAIDD7EBBCn+Ca2ZHvvKJ+eMcnzfCO19TUAJSlmjmNpxGJ+IgwJ1KP2R+7PWrmosTCL/tYHdgTvKR5+TY3u+/6E2g6gMf9CnlcdjxrwLpkOvuSK0Q8ZWByjdzGUF1LoOLTHw/L669EZc1NqirmKfPyQZKbFgTmAAJC6BNYRDvw7Z9qjj7y6WTkyVeXzH7EUeqas1KSdKXML0WBIUDNVgGpizlHtGLUjMjHEXoxnjaBi5C3MAIuQnd2slzGoKjcqfT4AQGa589hNM3va2QkDoMuKN0PBEv3l3o3fxilZTeq7gseFUgFAUFAEJjNCAihn+Dq2fq3Lhjb98jHs/oz58YYQKzHoFibnT6oEIPx02bUZc1KY0UndjFq5kq4ztVLSP0El6D18qLR0EXmCtoQln5MkDZYlCkh4xsdIFMhUsTIVTdUtGS0Ul39cV1b/znULt6hFKvIyCEICAKCwKxGQAj9BJbPDl3/uvrAAx/XzV1nh3kDgR2DovE07m4bb7vponJKv5O9aadUq+/H8rPmMrZ2fAvgRszaj6vzIzdAbJGmKQu7RYgBS42IROo5oDNOlBgbo4l+5OEyE9TO+HKltv6f0L32fulcPz7s5VWCgCAwOxAQQj/OdbKD3/y5bOShf8rGHt0UmEFELPBNhE1zy5TypTQ7t7y5mXOVtAi9Xd/t9DQvNGOc1KscE0BAGeSW5sc1NEXjtEnKFJBT57oGogrGmjnCyuk2qq2/HdX1H0DPGbeL5voEsJa3CAKCwIxHQAj9OJbIHrzpTdnQ/R9N68+cEeAAgqDpFdcL7XUiEzeexgf7ZheSrm1FN+e17eVcebyKXueMWeQ4cQTcw0sEniK3GVSoaOwfRoVITA1JvgDV2uaHo8q6y6BX36L6XzV44meRdwgCgoAgMDsQEEJ/mXWyB65/C0Ye/VAy8tR6bQ8hDMjHnJTFqMnKp9q5qzpqqb4ZSvWqFJq7q32Kna02neQoR5JeFOXFtMZnx+MzdVfZmW6n9Huxb3LCMRHl25Eai1EyOg17EHet3hOX1n8g6jv7s0q95uDUXamcSRAQBASB6UFACP0lcLfDW36juf/e9+nkR2t0dhiBpmg7ZrI2ahTgv7vovB2hU5TuvbRJ4MQ7otHPFXdYF1E8zUZLbH68j31B6AWZu40SicVEPOuf6QhNXUMenTYYdK3+WG3xhn9S6vUyS368AMvrBAFBYNYjIIT+IktoD33jt0YPP/w+nTy5KjIHEBaOaL7pKtcpdJABFC1y1E0Sr67LnSVeOeVOMq9EPC6Cpzo7R+TUKEe+6Pxz+pkn+Vn/OJ38G+Dmt8IRrePj+fsoIUlrSG0NKu5plHtWXRMsOOv9KP3M04ocWeQQBAQBQWAeISCEfozFtgNf+f364UcvzRrPLY/sCGJVR0Bt1DQKZS0Mi5dEUJra4ajLnb7vCZ0MV3RberSVYidCZ4EZIvPUEzq9tQRXW5fjWAgUhN5Ks5OxCnW7k2yr6sWIWZaVutfdXu5Z/R50Lb5TqfNoJyWHICAICALzDgEh9COW3A7d+Acj+7a9x6TPL61EDdi0iUCR2QcJlqRsxUkOXcjLsOzk5TXDC8vOwtOTRtZ8hO7S8kX0bmF1wqROx2wn9PZIXmEF61vVuOmvM0imMb7xXuUF9NSL0H6pU35rPZhO8J6l8Q1iGFJ60xUoXUqbauGD3csueC+qy24SIp93/3bJDQsCgsARCAihe0Cstcrsv/ZPRgcffHdk9y6O1ChsVueRKHcU9qcUfXti4uY2r1bGafMjPNSK+XOvYtaiN55R7/Azn6Upd561pwZAxoOMUZz0KpNz0cVfyLL6+3Vz92Qp68b8rE29Cx0F3c6fnN9MI4EkEkNZkbAE6BhjWRUNu9CG5WVPdC/Y/Pfo67pWqYtFFEb+WRMEBAFBoIOB5jUYlsS9D17/J2Mjj7xbpc8uKtlDUDaBzUicpOQa2bx8K9l5KLLg7FB6azW6zTcUvdtZQejUxa+L8oF3lXPd/DSv73mfNkB+Xp++o4NCXc/C5oYx1/TaQAFhBNvMkZgSMt1ndHnlnlLvpk/qRed+UGbJ59vDJvcrCAgCL4fAvI/QmcwPXP+Ow4MP/bXKX+gtq0OI7CgUR4gh+5mTuQpHk+yfTYTekSJmgpq/B/m7t0sK7ZE8xoTNUfy8fQuinEsOZGLDm6I8hGZRHsKaXkSz+QY5MpZqTVWf0fGKw3Ft0xei6upLVdcle+cv2nLngoAgIAi8OALzmtCttaHZ96U/a9Qfe3fW/HFPhEGUMAqdN5wuO9mfmsgRunUKcERg/MdHoPN5jtyVHpwxijuKTIbr9G+XGIr/c5r2tCkqCN1mGppHAanRjZoNgVyHSHXVJqp/rNy74Rtxed3fqJ63PC6/yIKAICAICAJC6EchYO1tIfYP/fnI4J1/HWB3JcQIQpDRSuK1wIlkaNSMGrGClqKbEHobSjJEcValxOVE0s6IxpG5Zs2XIuLWlHbnYJ2U8kIomh+nDYD3p6GGQ6pwJKYMGy+rl3s2bw8qm96jen/uFvkFFgQEAUFAEHh5BOZlhG7tjhh7H/3zoYFt74rxfDkOBtkxTVnqr6LBcT8bnrkovfAzd9ElReeUcqeIcr7LtnoZW2ZqUs7zZM5jfIUaniP1ootdkQe5oUiclPMUrA6QmNyNAkY9Y2Ft5eNR94bLVe9//eLLP77yCkFAEBAEBIECgXlH6NY+WcK+be9sDm//q7TxbFiN6lC24WrmTOYUjZMCmSZR8HF+5m1CJ4Jyaeb57JZWEHgr3c7hdmEV61Ty3OEi8vEiOuRCF6GBMnK9oBnGK18od6+5Covwj0r9ugvn5RAEBAFBQBA4bgTmFaFb++MKDnz/L4f3b/sr5M8H3dUUJhmFsjkUReWavDbJ7IOCR9IIJye0dtQ5Lt3e6nLvkHM9btjnxguJ0HPWtXdqeNpvcngKgOvkPlJnD9OS60tgAR63GUpUNcn00gPl3g1fDJee+x6lxDxlbjwZcheCgCAwHQjMG0K3dmvV7H7oXWPD970zwj5EJOySk546HTQ/7RrfXFHXNXVRxO7mrH3U6ef83Jx1Ufwl0p+f0q0EV+5vXftRPp5FZwALaElZjzrXAxaESfMq8rxionjJ3riy9ltYdMF7VGXzj6bj4ZdzCgKCgCAwlxCYF4Ru7Y4u7Nv6rnzkob+w2TMI1DATuM3IN9tF2CSI4r668TTSW3fz0wWhey9zJivPYlwnnr9+5twT5wfMW1shymywrJthItdRhNwqpKoEo3th1aJ9pXjFvWHf6vepnv9091z6ZZJ7EQQEAUFgOhGY84Ru7dZe7N35N+nQD9+hshcQUmROzW8kJ8rBOXVma67xMqEX0bn3M/ev8jVzep0XQilWbZ43xpG2G2c2ctoEUZmC+hAKAxqK4MtI8hpSLDoY19Y+WOnddJXq/sXrp/Ohl3MLAoKAIDAXEZjThG7tjgVm973vtmM7/sw2n0VIlqdknE2KZMQ5oQZJmBRypDyCRQdF5Sp1deBCkpy7sr2feetJKCRc56e0jHt4vJgMu845Mjc64GbCXFcxlpSGq73rdkR9Z34K1fTfpOFtLv4zIvckCAgCMwGBOUvodujehWg++d7Rgbv/KMYehHnDa4xTYxZ1r1vnZ85a4hSWO3tTd1C02Uno3vMcnX7mRSp+fpK52+gQe7vmQQQuQs9sgFx3UWq9keulT9S6Nn4Zi0//iFKvHZoJD7xcgyAgCAgCcxWBOUnodnTr6fnwzr9tjuz4w8A8iwhDHJWzqAl1XAeukc3YFJpT60ToLgJvzU93ELoTT2n7mZMFKhE+dXG37FHn6hPykvflKueEJVnW5CjBhL15VFr+WFxbfwuqaz6iKhc9Ny+hkZsWBAQBQWCKEZhzhG7r319phne+pzn65O/aZA9KOoEyYy4Sp/G0QLOrlyGCNjlbo3L+vSD0Ypaaid45orUI3eu2k/VpHozRlmDW259O5nljbZ0ASFAGsAA2XPZ0VFn/3aC0/mOq/6IHJvPZ8l5BQBAQBASBE0NgThG6Hbt7DUa3X9o4vPO3ke1mMrc5dVxbKE3e5VTmTZHR3xEhoGY4S01ylFKndHvR8EbpY0/0jKf3M2erVKqb57BB0ymgmRJU4TB2Ytif5Fd3LqUvAxT2rbwpaY/WeZG7I85fvL8QhxlfSnCa9XQU2u0amYrQ1DWocPGuuLLyB3H3+n9TXb9080m+Mfk4QUAQEAQEgeNAYM4Qum38YF0ysP19tvHorwf5buh8GCbPEOgyk3WbkDwt+WbsVhTOqePxfubjwGFzFmZGF7R7H/DpTrlzHbvYdLQWnHzKSR3HZxj4qou5eeUaAv19UF+/MRaGB8o1giCE8mN7xuTQkUaeZSSvwyN+GmQn6wRimlh80Hafd0dYW/uVcs+SLyt1Bu1y5BAEBAFBQBCYBgTmBKHb5t2b7WFKs+/8VZU+h8gOQLNKGXEa2Z9SM5uLvosxNOqHY2Ju65NOA/yTPaWf/va66YUDnOv+o0wCy823hG8sjZWRWE7HqpMHeaACKFLJI4wMUXfOFXHKRtAUAP3M6BiZjZFkVQS6p1nrWnInapu+hN5XXKvUmcOTvRN5vyAgCAgCgsDkEJj1hG6Hbz3bNp68fGz46V+yyW7EZgARyG+bRF+IoAJvrkIN2QasaEYU56zAZjmhB7DUC8A7lRSK/pAqWxGxk+EJe7oXmxfSTydCd+N4TiEvcM6lyFyPgceFvxlQ46Dh1HqGbli92Aal1XfHlVVbdG3FF1TlAlF4m9zvn7xbEBAEBIGThsCsJnQ7cvu5yfC2y/PG079gmocQmlHERGpktEICMJqicoouXe3bqMwl1indbskpbLYTOm1NqDufCL3p9dO9KQo1+TGhO1czZzxDhO56AIpD6xDWZDBkG6uoSZAsTQm3GIY2A0EXEvRAqaXboq4139R9m76iSq996KQ9gfJBgoAgIAgIAicFgVlL6Hb0tvPS4e3vy+o7L1HZPgR5ikjTXDSAjL6S9amLTo0mEstgdO4idNIb5yYxT3QnBcrp+pA2WRfe43wlfH9u3G5cnZ8b5QpHNNrRpLBacec/73ACw/owOSrIzQLoeP2zUXnDjahs/JLq/el7pusu5byCgCAgCAgCL43ArCR0e/ju1zRH7vlgOvb462KzC6EdZcVRrgHn3vqUFOGI4FXuCT3lr6xMSoTOnemznNB5Dp468l2anRrfivp4YRhTbFxam5giJc/vI9ByIKTyRMjqrSlp2Qdd0OUlB6Jw9dd0+cwb0f+mbynVEdbLb5UgIAgIAoLAjENg1hG6Hb7l9cnQA5eno8+/NrAHEJlhBNRx7vLqTrmMOrq9rjiPmFGqmbu+ifvcz5WJOe0+m5vinDStbyynWroia1LXM0D9Ai5it75vgMif7p9wKpr1SeGtBGqWYysaVYUJlo5FldXXR7VNN6B35bel4W3G/c7KBQkCgoAgcEwEZhWh2+G73pAO3f7hZOyJVwX5KEoqhUnHEFAk7ju0+S5JipS6tE3qxN+obqxd7Zzqyi5apXT0HCB0mqPno+TU7I7oGeB5ehgWwaHOfl5wdoalTU8Eq3vRNGWYoIa4suzbYffGa9C39uviTS7/YggCgoAgMLsQmDWEbg9/5+eTw1svTxtPvLKkhqENkTnNmUe+ibujLswjW+7vrgnMpdkL33P3/+6YzUrsjpxJAIfuJ2CCdhsaCwuSps35/41xfuRcJzf0s9zteXQP6nYh4vLau6Laps+juva7qvxTT8yuR1iuVhAQBAQBQYAQmBWEbgdufUs6dNf78+SpM0MzjFAlzjGNVOB03J6r5nEs181diKo445XQjWdxZF4sPHmdz25C5wWkrnQqMRTjZryktJmhyDwHghx5nvNkuQ1iqKAKq8qwoK99j1cWnf0vUCtvUd0/u0N+JQQBQUAQEARmLwIzntDt4A2/mhx+4APJ6KPrShhBRMpvOfmZp0BIMjE0iOYPL6jS6vZupdYj9jvnCL0gO9oUUH2dFdRm50G175wJnQJxavijsoLv9G9p0o8BsYINNZq2jEa2GCpYtbdWO+eTYc+GLar6yntn593LVQsCgoAgIAh0IjCjCd0euOl3xkbuvNQmz6yO8kFExF02gk0ous6hSiFIntR1dlMjGH11qfaim509zA3Vl2ku2xO6SmB1w3WHd6TfZ9ujQYSeKuoDUAisQWCpAc5DwGNoJA6jkBqNVFeA+PR6qXrmvwXdG7+I8uJ7lTo7mW33LNcrCAgCgoAgcGwEZiyh24PX/X59cPulNvvR8siOIqaIk9jKkOEK1Y0jqJA6upOWKjmnnvkgNThH1pxqN0TmJWf16a1PrR6b9fanHIxruicNzSUFmiunzIPLPhhVRmb7oIIVCEtnXhdUNn4aC9bdqdSyuvxCCAKCgCAgCMwtBGYkodt9X/tf9aG736nyHy+jGfOQSNhoJ02qMyiSLyWNdmOgAx+hs1tacTuuju4U4WhMi7zMKUon8qOO9yb/YT9zQ/X12Zt25wY4pWGNRm5pG2OdUEwYw+g+BNHaW0u1TR9F37l3KHXG/rn1+MrdCAKCgCAgCBQIzDhCtwOff3t66LF32sbuJZEeBemZ0PiZsQnPjFOnNndoUxxuMwQsb+okXl09nDq6qcM7YYMR1/nmFNMsvYbdP8nPvOGE0XKaR5+dhO6yEJlTwyPhV1WCDXqA6DRE5dX323j5PwT959yq1Jm75JEXBAQBQUAQmNsIzChCz/dd+8764LZ3RHbP4pJtAjmVeGkcywAkDEPBNsmSUqROuuNBAKTE0N6EhM1WiNApiifBFU/o/EbnuMaEzupxzqAkyCcXobvxOHcc38bgxSBvD9B1fqYbteNPb5/H2ci1/k4bmVyXkQc9UPGK5+PqhsvRddbNqnz+M3P78ZW7EwQEAUFAEJhxEbrdd927RgYefIfJn1xQjkYQk3ZZRrXyknNO8zPjxVx5QWi6JeHauagsieZJz0ffnbPnrea54yXhYz8w7lrGE3pB6sekbRayoc2Fk2jlMTp2iMnZppSH6KhPwOnYwlLXOjvGKSiEUCyeQ+UHEszJgDBCw5aRogs6OO1wqWvtP4Z9G69TpUt2yiMuCAgCgoAgML8QmBERut31+fc2h574Y6t39wfBAcAcRpDn0CoEcnILc17mFKoyiXIk3o6Kp8vS/MUJ3Tm5tYfe21rrFGm70oDfpJiM+vCdkh3dU7FJ8BsQIvQso7JDAHJG077eYEEd7mVk0eK8XFv9qaB/wycRLX1IqfMK6bj59STL3QoCgoAgMM8RmHZCt3s+/77G4R3/s9HY1VsqN1COE5ikTkErwiB2ZissU1oovxVjai2On74l7IzQfVPe+LQ7pf+d9Go7Re4NVHyUTo1+mvoCWKOWXubU3DjFTtE5b2QIAiLwAKmJYHQNUXSaDUunbwm7N16B7tO3KfXK0ekDQs4sCAgCgoAgMN0ITCuh2703Xjk8eOcfRHpvN9CANWMISJaUs84hNDmmFRltJkby8/bpaA5nKQieZvFWzhh01rmPbLBj4fSODUmxMXFLz37klFrPnZJdm/tphpz+TsYyMUxURqIqyNRCq0tL76tV11yG/s23KXX2yHQ/RHJ+QUAQEAQEgelHYNoI3e655h8PH9j637X6Sa1cGWMHzyxJkWVApGIE5BxmCmU3IkQ3W81HoV3Of/GEOW1YFhsLKgN0Nrb57vqO2XiWpOUOfMqKu6Y86hGgdLrzgKPRu9Dps9O9smxrhixgFzQE5XWPx9Wz3ov+jd9SavPBabtlObEgIAgIAoLAjENgygndWqvzPdde1Rx6+PeQPV+OSoMcmWtLjV8RlIpgcqpBhzyi5vy+PREyebuOdecsRiG612+fFmjddbrDpdeLJjlXJx9P6u5eiNCL+wGsoQid2t0CQHsHuNwitQY2iKBL1Lm+5FBY2fAhlDf+q+q6eM+03KqcVBAQBAQBQWBGIzClhG6tDbD3X64aHnzg97QdLFWjFAp1ZM0Gz1FHYcUTeo6ctMkDav0iws78TDml2KnWTMpvTpudld+mzTNNOVlZF2ozUdNInPvqagWFy1th29pSs+NgvtNEJQS0QmIMErq3YCHC0vLhuLzpU7q05ir0XviM4pZ4OQQBQUAQEAQEgaMRmDJCt/bZsnnhvn8eG7n9tyP1Qqh1BpM2EJH9qfcpJ0JjTXbvFGZJFY7/n7666JxNVojQ6SuPs7Xr6lO/wETo1IVPDWy+xk/z8nxN4wm98F/n7ELhjkY3zop1lK6PkQZlJKaEPFzULHWvu6FcPfP9qF38iKKhezkEAUFAEBAEBIGXQGBKCN3aXdX0xzddlY3s+O3A7g2icBhG1bmbOzBVVzcuRGHYw9xFuQVJdka6zjWN6swkOOOi3M7a9dSutuJ0OV8fC9oQidN1+04+1pJ3sqzsgkZpdRLD4csmxzhu5UdiA6S2BhMuMWFl451R1+Z3h33dd8oI2tSuppxNEBAEBIHZjMApJ3Q78GyfqW+7Kq3f8xsqf16HZHtqG7DBGAKqGaeksR52kHORsi4IneClyNzJuzpt9vZlTx+ZH7HsLSEbT+yFkE2uoeg+aQTNWuTGsiZ9SNmFsIKRJIaN+lCqLns47t3w9+g57StKXew75mbzoyXXLggIAoKAIDCVCJxSQrd2x4J013c/ktef/K082a/KOkGgDfKsiYCi8JCEYzjf7O7ZC8e4BrOiC5zS6r4Jzke8HAFzp7gbGZu2ozWH7pv1xsm/+pS71jA5ETldcwgVRtz8lxuFZtZtdXXzj+Lu9R+IFi29WqkLx6btXuTEgoAgIAgIArMagVNG6HbkntPs4MP/lDZ++DabvwCdW9ZeJxEVk2WOhqlmTuYifDj1NFd77pRtLdzSqHZe+JlTFE9a7ZRud1Kq03J4jXnej5AADs+jj3d8y8lAJoyBIEYzC5CkMazqNuXqkkOl0pqrsfRV71fqvAPTcv1yUkFAEBAEBIE5g8ApIXRbf2A5Dt/z4frg9reF2IMocIEn15tZMIYibvpGys5nHHFz53qbmF0TnCd67mwvutqL0S9H6C56n05CJytXGl+jDQeVBFyDnFV0bwlyTUYwIQwqSM0CA71yuFxZ87W4uv5vVd8bnp0zT5LciCAgCAgCgsC0InDSCd2O3b0mO/TIlcnIg28N7W5oM4IwcuRsMqofBwi0I2+bp7CRlx63ZGPqG8Z4iK3DUawYVaPvssk5icw4P/MjNwJTjWa7WuCunQ1UuGRgYJRGajUatmSN6q+Xutf9oNr/ir9R1V+4b6qvU84nCAgCgoAgMLcROKmEbhvfXW8Hd36wMfTEf7bpQcRhEypPQCNqPHlFnd2cWidv8sgZrfiJLJ7ntk4xjWxPVUtNrahPUyRO9qdewIXGvdjLxEXG03O4LncaD1coBGPoSgJY6lpHL9J8UT0ur31M953xfrXwTV+enuuUswoCgoAgIAjMdQROGqHbxg83JQfuvzIbffjNoT6AEBnydAxREMPkKTl2tzVVckpJx1ABzZw7knfjaEUN+ghCp6v089vOGpw2AuSVTt8vIvsOzZVxlqaU3afa+wnKz3R8hjvPsdP6TkreW55SVK4jWFNFjsWNPF/8TG3p+R9RC37pE3P9QZL7EwQEAUFAEJheBE4Kodvhm8/OB564Im08/4sau6EwCI0EAZXMaWyLpVqdaExrbtwTpqPhzmYy95rC0ITtwpmNjyBUb6PKs93ejY2NWpRxcrHjDmqcc/ovxVGkyosu+fHNbB2fQU4xxvuY82aiXRYgUxXqA9BhhNxW0MhLaOS9SVheuae3/5zPYMFZ71PqDJdKkEMQEAQEAUFAEDiFCEya0O3oTa/C0GNX5MN73piZ/QjUIJQaYYU3Fn5j+9NCqpXI2cudFmNprM0+8aY22/JKJxIuCL0DMSbyjtl1Go1jYna+6u7odEvz3y02HGRvynPkZGtKKXbLw3KkM083SCNpKam7oT8Lyiv3lnrO+IaubrpU1c7bfQrXTT5aEBAEBAFBQBAYh8CkCN2OfvM8e2jn5aax92eT9DCghhHqOjSarMFOI2rIqcbtRGHoKAidZF0pEnfR+8QJ/djrWdyWV2rzpO2icj8Sx4TtGu+oo76dBdBE160xOs4Q2ByWNihsd0re7HRfdIchEtVtVXz63kp1w/fQtfE9qvv1O+UZEwQEAUFAEBAEphqBCRO6rX/9tdnQIx/MhvdcpPJhwIxBBQlCag6zTnudo1hSeGNCd6RdmKnQSBcHyieD0LnbvdgUtMm8+B7Pqvtj3Jw7N7O5jUURqbta/dHWp+59XsYVJUBVYHTfgbC26oeqtvoDqv+t35vqxZPzCQKCgCAgCAgCBQITInQ7dOtF+cjsTP1eAAANr0lEQVS9H0jqT12ozSiUbTCBB4UojLEs0eoIvSDTon4+3mbUSblOPEJv3YAvirdq45318tbddozCeRI32pF5QJdFc+S8AenYANDmJAphwxBJHqORVqGCBQO12spHg8raj6tFv/I5eZwEAUFAEBAEBIHpRuCECd0Of+tn8qFHrsjHnjpPGRI4oxS7U3sryJnJnAVWnH55+/BGKi3J1PZ7JgqEa2Yrov8i0rZeTdan0vnDvRRrx4mKWjp9SxuvE286ld6Y6pEhRqJqsOGC0bC04vFS9+rPom/NP4t5ykRXTd4nCAgCgoAgcLIROCFCt4Nf+7mkvv3KvP7cOWE6gkg1nGsaKaOxoxiNh5U65E+LSLfDEW1cd3vhFz7R2yKFNi8ZyzsKVx934jOdqfQjtdZ9VqDoiOfPKCJzkpWlcD1xo3VhPxK7MDV65WO6tu7rcWn9B1X/qwYnesXyPkFAEBAEBAFB4FQgcNyEbkdv+cXGoe0fzBo7ziphEGFG41w5FCu95bCcOqcol2rQ1OhG3WQds+ctjXZHppbS8RzVd0bwJ3qL7ei8eKerdfvUuj8n+63z0TFCV6TVWyNubmMA7RTechUgVTXo6PRHo9r624Lesz6iyq97/ESvUF4vCAgCgoAgIAhMBQLHReh2YMuvNIfuv9Kkz68PzSACU2fCZrmWlisaETmRdTGnTWydt7rKHdES1dLr2nVqp9k+GVLvdFOlZjaXFSg+l+v4xaaB9ePp3L7pjbzJU7chQWiAOEZmS6ibGhAtey6orPxebdFZV6n4oh9OxWLIOQQBQUAQEAQEgYki8LKEbgdufGs+8sSH8sbja5XZj9DQmBcpvRVd7D5KbtWyC2EY7jIDqL5e1MwpMm8Ruhtjc13mEyT0TvtSzgy4jQKn4TmdTmconNtobpyujUbOOog9oBl56t3TSHUVWdi/V5WX31XtP+tzqvqmGyYKrLxPEBAEBAFBQBCYSgRektCzwa/+Wjr48Id08sIqle1FBDJFIeKkpjMibNfF7tLsnYfXaOeo3BG6C89PLqGzFjyNv9H4mdd0Z4MXruXT+Qyn0ElDntzPSHPdFkpvmjIJMfKghmZWg1H9A1Fl1V3lro3Xo2/jtUqtbUzlQsi5BAFBQBAQBASBySDwooRuG1t+fmT/9k/pxrMr4uwgwjxxzeRc+yaZFdIvD6BN4BvTiss4sjGtiJLpKxF6ZwNaOzU+kZs4ktCVcVE6R+asEOdcz7jGz97llA/gCXmANNeDHgwnXVm1Z91dtd6NX0Zl8dVKvW54Itci7xEEBAFBQBAQBKYTgWMSuh2+7Zz60B3X5I0nzy3nw4iIzFkAhviyyXSec3o7AP3XPtpjY0VUfnQyffzMebth7cRhcG5tjrSJzFvjci4d4G1MUxitoHSILIiRmRCZjaHDijXRafcEtbNuqVbWX6PKFz514lcg7xAEBAFBQBAQBGYGAkcRurVbo/zg9mtHBu/5tbLajzhPoDKqO5M6GhH6GJMoEzo0/zeuU73Tpayjm719u50d6JOfQ2/7kdMIW3GWYmyNLpEq/gESW0KuumB0D8Ly4ofLtcVbdNe661T8Cw/OjKWQqxAEBAFBQBAQBCaOwNGEPnT9W+qH7r3BNB9XtWAMbEtOqWz6Q83hAaWv6Y/TOCe99pYjGjeg+Qh83Gx3ex6dO9+5M74Qo6GmtIkqxSmfwnfmKq6z3XfWe6lWhNS5XkWq+qHDZT/S8aqvR9WVN6j+i0WqdeLPjbxTEBAEBAFBYIYhMI7QrX22nOz60q1jI9suKKsBboLTFJnbyJmscEN7DhsYZCrl1HtofWTcci/z89wtQvfjbHzjlB6nJjnaJbw8oR+rHsDl8dYPlEu1tz6byJwa4MgYLURuy8hVH2ywaDCqrv961LX6y+iOb1bqYndyOQQBQUAQEAQEgTmCwHhCH7nzpwZ/8pn7K6XntE2biHUAlcWug5yInQ6d8p+Uxc8NAh5j6zhaym2dzW8dEThH5+2UuKt9k9+4sz4tDicjyycEDInUuDE4G2jYwCKjznarESX0Omp4S2GCFBltNlBCpvuQYkmzWt34jbh6xleDng03KXXG0BxZN7kNQUAQEAQEAUFgHALjufjglr8e3f+FS+P4J7C5QahiIA+hKTrnSJ34tclReh4YkLFJmLt0dztqdp/vutn93HdnSr1Tya3Qf+ctgSuAj78gCuqJrDVAIjCc5s+QW1JzM9yQF3BnO3WtWyQWSFQIGy9GVFt1S1Be86Woe90tSl34gqy7ICAICAKCgCAwlxFom5XZHXHy43tvzEfv+MVY74ZF6pTgWM41gsp9lzvPfecwgWHS1iY6ooY+PtI+Zn28pbnuZtOdJKvXZS8a2yi1z813OSx1qSsFa63L2FNvHu0giOQ1kNoAuekBgiUIy6u2hdU1V6Nr+RZVPv+Zubx4cm+CgCAgCAgCgkArs138j7V3VYYeu/vR2D62Olb7oVTTGZ2ACFtzrbpVAydhGe0IXRlnxjLOEKUl+doJ9LEb3wpJWErrt6xUaR+hMhhNGwc3826MgbYaoQ0QkiUrbwRC1IMQedCPOF7xZKmy9jOonfEdVXvNVlliQUAQEAQEAUFgPiHQEaFvrR56+Jt7uvSe7hD7oXXDuaghcsTthVqUr2U7sqdZdErFk9Rq0V1OIXQO97p2TbyIxJ3euz8tK7clHm+vImeD1o/JydSYDFo7b3WlAihDjXA0MhciQRea0fLDUdfqqys9q69R1TfeN58WT+5VEBAEBAFBQBA4ZoQ+uPPb+2p2d1ekDgFqzCusEaE7DmaNNUp7t8J6GhsrutjbqmxOR/1FCJ3NWzrH2FInDuNV5GiTQESufeqdIvMgCGB1gDwNkZoStO5CXFmUB+Uln0XXmZ9H18J7lDqvLssqCAgCgoAgIAjMVwTGRegjT97ykzh5uj/WAwAoQncpd46U/SsDInQqk3vC5Xl0JvAjDVGOhLQYZ/OE7l/PY2Y695aqRfDujVWUIV0YWKqRU+c6epDrpYjKa74SV9d+GgtW3qfU2Yfm6+LJfQsCgoAgIAgIAseI0J8tN57+xlbVvP/sUrCfvc45ra5D9gen4TTuQyMxGe57I2KmWnrSJnROzb+USEyRbi864F2t3Auv+2vyOwU/1650hMyWkekFiCqr7g27Nl6J3nW3KfXq/bKMgoAgIAgIAoKAIOAQ6IzQo8Zzj3w2tHf8hm08iYhS6dRZzilwjdy7lBGhB/Q2InRLc+EkBUtRe9ERT93wR0jC0F8prW4tj5yxGxrXxGmTYFzDG0JoFTnv8pya4RRUXEVie6ArKx6PujZegfKq76nyRU/L4gkCgoAgIAgIAoLAeASOmEP/zv8YGfzSv0TmaZRIhz0jRzXNqms09e3q6CkC+rYhydYOQveNakXDWvs01CRHIT012FHU7+vx1OCmFHIaM6fmOuPOp1UJiGqwqoKxvHtPdek5V6CyfAtKb3xSkf+pHIKAICAICAKCgCBwFALjCb3+4IqBPf/6RGSfqlSIOpOENV2s0rDW1dI1Uq8AS1KwFGFTyp0CcG9dWgi9cPzvpFgL/XZ2R2tJt7rRswAVmMyCEgAqKiPJKkjMwqTaddbH9ZJX/Avi8x9Tij9IDkFAEBAEBAFBQBB4EQSO0HJ/sjS894ZPmbGH/1s5baJkE8BQt7vTRuf+dh5Jowjd2aZSQ5sba6MUvJNxdUchMOOb3ojYNY2paeQ0t07jaXmIwJahwxpypZGggnL3ys8ECzd/FNErdiq1tiErJwgIAoKAICAICAIvj8DRbmvNLecM7r3nXj2yu1oL6ggMyZ9nPJ5mOSJ3Xe7FWFlrpI0JvaMpjkfRMuQU0fMbnDOaVTFH+zRHbmwJga6imdUQl1d9N1q86VJ0LdwqI2gvv3DyCkFAEBAEBAFBoBOBY/ihW9U4ePVfpoce+/tStgexGgAsjbC5CN0F4I7U3VgbHU661X31H++FZjjNTv1yCJGbEMaUYVUZgarCBN1AtPC+8sJN70X3pruU2nxQlkcQEAQEAUFAEBAEThyBYzmUwtrbF2Pvzn9LBx95c2T2AKruus95fI2K3TTE5sfaWqJvblytTeg0jkbiMtRMRzX4ErK8AthuBGEfgtLC51Fa9jdYev43hMhPfOHkHYKAICAICAKCwEtG6MUPbeO765Pd93/BNp46P1KDUGjC8My4OxSyNnm3vuekXgt9dkqxZyRMgwqgemHQizBcfDAuLbkCfSs+q2q/sFuWQxAQBAQBQUAQEAQmj8AxI/QWqdsH147s+v7HTPLszyN9ARrDKAU0tkaz4hSNh86FjQ5tgIAIP2OVd5pbz1UViakhs32w4dJmtXvdpyrdmz6E8n/4kYygTX7x5BMEAUFAEBAEBIF2oP0yWFj7UH82uO1PRw49+q68uTsqqRGUWOo1hzIWQVwCD5M7hoc1BplVyFQX8oCkWhebcm3VjaWFG9+j4osfEOgFAUFAEBAEBAFB4OQj8JIReufp7PDtZ2H0hXfmI8//Wjq2txzqEYRRgqx5EDAJYGNudoPqAnQfVLgkM8FpN8cLNl6GBRfdp1Sn9drJvxH5REFAEBAEBAFBYD4jcNyE3krDj3xzKUaefzPGXrgE6Z5XAEMrYZsVoNpE2LcL0Wk7UF5+K2orr5ca+Xx+tOTeBQFBQBAQBKYSgf8PGFJWlGcanKIAAAAASUVORK5CYII=;rotation=-30;" vertex="1" parent="1">
          <mxGeometry x="1389.13" y="210" width="41.74" height="41.74" as="geometry" />
        </mxCell>
        <mxCell id="lu7XamibzpSkQB7wHSbF-40" value="INTERNET" style="text;html=1;strokeColor=none;fillColor=none;align=center;verticalAlign=middle;whiteSpace=wrap;rounded=0;fontSize=16;fontStyle=1" vertex="1" parent="1">
          <mxGeometry x="1325" y="320" width="170" height="30" as="geometry" />
        </mxCell>
        <mxCell id="lu7XamibzpSkQB7wHSbF-41" value="" style="endArrow=none;dashed=1;html=1;dashPattern=1 3;strokeWidth=4;rounded=0;" edge="1" parent="1">
          <mxGeometry width="50" height="50" relative="1" as="geometry">
            <mxPoint x="1409.58" y="180" as="sourcePoint" />
            <mxPoint x="1409.58" y="50" as="targetPoint" />
          </mxGeometry>
        </mxCell>
        <mxCell id="lu7XamibzpSkQB7wHSbF-42" value="VRF - A" style="text;html=1;strokeColor=none;fillColor=none;align=center;verticalAlign=middle;whiteSpace=wrap;rounded=0;fontSize=16;fontStyle=1" vertex="1" parent="1">
          <mxGeometry x="1219" y="230" width="170" height="30" as="geometry" />
        </mxCell>
        <mxCell id="lu7XamibzpSkQB7wHSbF-43" value="VRF - B" style="text;html=1;strokeColor=none;fillColor=none;align=center;verticalAlign=middle;whiteSpace=wrap;rounded=0;fontSize=16;fontStyle=1" vertex="1" parent="1">
          <mxGeometry x="1439" y="230" width="170" height="30" as="geometry" />
        </mxCell>
        <mxCell id="lu7XamibzpSkQB7wHSbF-46" value="COSTUMER B" style="text;html=1;strokeColor=none;fillColor=none;align=center;verticalAlign=middle;whiteSpace=wrap;rounded=0;fontSize=16;fontStyle=1" vertex="1" parent="1">
          <mxGeometry x="715" y="210" width="170" height="30" as="geometry" />
        </mxCell>
        <mxCell id="lu7XamibzpSkQB7wHSbF-47" value="COM VRF" style="text;html=1;strokeColor=none;fillColor=none;align=center;verticalAlign=middle;whiteSpace=wrap;rounded=0;fontSize=16;fontStyle=1" vertex="1" parent="1">
          <mxGeometry x="1590" y="430" width="170" height="30" as="geometry" />
        </mxCell>
      </root>
    </mxGraphModel>
  </diagram>
</mxfile>
